<?xml version="1.0" standalone="no"?>
<!DOCTYPE svg PUBLIC "-//W3C//DTD SVG 1.1//EN" "http://www.w3.org/Graphics/SVG/1.1/DTD/svg11.dtd" >
<svg xmlns="http://www.w3.org/2000/svg" xmlns:xlink="http://www.w3.org/1999/xlink" version="1.1">
<metadata>
Created by FontForge 20150318 at Wed May  6 20:53:55 2015
 By uniteet7
Copyright (c) 2002-2007 Typotheque V.O.F. All rights reserved.
</metadata>
<defs>
<font id="FedraMonoStdBook" horiz-adv-x="600" >
  <font-face 
    font-family="FedraMonoStdBook"
    font-weight="400"
    font-stretch="normal"
    units-per-em="1000"
    panose-1="2 1 5 9 0 0 0 2 0 4"
    ascent="780"
    descent="-220"
    x-height="546"
    cap-height="707"
    bbox="-62 -255 665 975"
    underline-thickness="50"
    underline-position="-50"
    unicode-range="U+0009-FB02"
  />
<missing-glyph 
 />
    <glyph glyph-name=".notdef" 
 />
    <glyph glyph-name=".null" horiz-adv-x="0" 
 />
    <glyph glyph-name="nonmarkingreturn" 
 />
    <glyph glyph-name="uni0009" unicode="&#x9;" 
d="M600 1h-600v545h600v-545zM534 62v423h-468v-423h468zM508 240q0 -60 -66 -60h-59v201h51q64 0 64 -54q0 -27 -16 -41q26 -9 26 -46zM368 180h-37l-16 58h-51l-19 -58h-36l65 201h39zM232 347h-56v-167h-35v167h-56v34h147v-34zM463 324q0 15 -6.5 20t-25.5 5h-12v-50h11
q19 0 26 6t7 19zM473 239q0 15 -9.5 21t-35.5 6h-9v-53h19q19 0 27 5t8 21zM307 271l-15 57l-18 -57h33z" />
    <glyph glyph-name="space" unicode=" " 
 />
    <glyph glyph-name="exclam" unicode="!" 
d="M340 312l-4 -140h-70l-6 140v395h80v-395zM345 0h-90v87h90v-87z" />
    <glyph glyph-name="quotedbl" unicode="&#x22;" 
d="M427 753l-6 -246h-66l-6 246h78zM249 753l-6 -247h-65l-6 247h77z" />
    <glyph glyph-name="numbersign" unicode="#" 
d="M548 159h-105l-9 -159h-72l10 159h-165l-9 -159h-72l10 159h-84v69h87l15 250h-102v68h105l9 161h72l-9 -161h164l9 161h72l-10 -161h84v-68h-87l-15 -250h102v-69zM388 478h-163l-14 -250h163z" />
    <glyph glyph-name="dollar" unicode="$" 
d="M518 186q0 -83 -50.5 -130.5t-135.5 -59.5l3 -95h-79l2 90q-97 2 -176 37l25 69q77 -34 165 -34q67 0 116 27.5t49 89.5q0 41 -25 72t-63 48.5t-81.5 39.5t-81.5 44.5t-63 63t-25 95.5q0 70 44 112t116 53l-2 92h78l-2 -89q77 -3 140 -29l-23 -63q-67 24 -141 24
q-132 0 -132 -96q0 -44 35 -76.5t85.5 -56t101 -49.5t85.5 -71.5t35 -107.5z" />
    <glyph glyph-name="percent" unicode="%" 
d="M332 558q0 -74 -43.5 -117t-108.5 -43t-105.5 37.5t-40.5 114.5t43 120.5t106 43.5q149 0 149 -156zM567 429l-514 -215l-22 58l513 214zM584 153q0 -75 -43.5 -118t-107.5 -43q-65 0 -105.5 37.5t-40.5 115.5q0 77 43 120.5t106 43.5q148 0 148 -156zM268 558
q0 48 -21.5 75.5t-63.5 27.5q-37 0 -60 -28t-23 -83q0 -97 80 -97q40 0 64 28t24 77zM520 153q0 103 -84 103q-37 0 -60.5 -28.5t-23.5 -82.5q0 -97 81 -97q39 0 63 28t24 77z" />
    <glyph glyph-name="ampersand" unicode="&#x26;" 
d="M547 338h-78v-301q-82 -46 -193 -46q-96 0 -152 45t-56 142q0 80 38.5 130t97.5 67q-45 13 -74 54.5t-29 109.5q0 81 55.5 128t145.5 47q97 0 167 -35l-21 -59q-66 25 -143 25q-54 0 -92.5 -26.5t-38.5 -82.5q0 -66 34 -100.5t92 -34.5h98v96h70v-96h79v-63zM398 338h-95
q-79 0 -120.5 -40.5t-41.5 -113.5q0 -69 40.5 -98t96.5 -29q83 0 120 22v259z" />
    <glyph glyph-name="quotesingle" unicode="'" 
d="M338 753l-6 -247h-66l-5 247h77z" />
    <glyph glyph-name="parenleft" unicode="(" 
d="M496 -167l-46 -55q-47 32 -82 60.5t-78.5 76t-71 97.5t-47 121t-19.5 151t20 151.5t49.5 121.5t71.5 93.5t79 70t78 48.5l44 -56q-262 -155 -262 -427q0 -73 18 -137t40.5 -105.5t65 -87t67.5 -66.5t73 -57z" />
    <glyph glyph-name="parenright" unicode=")" 
d="M197 -222l-45 55q35 27 51 40t50 43t51.5 52.5t42.5 60t37.5 73t22 83.5t9.5 101q0 272 -262 427l43 56q42 -22 79 -48.5t79 -70t71.5 -93.5t49.5 -121.5t20 -151.5t-19.5 -151t-47 -121t-71 -97.5t-79 -76t-82.5 -60.5z" />
    <glyph glyph-name="asterisk" unicode="*" 
d="M79 518v61l173 -4l-90 147l53 31l83 -152l83 152l53 -31l-90 -147l173 4v-61l-173 4l90 -148l-53 -31l-83 152l-83 -152l-53 31l90 148z" />
    <glyph glyph-name="plus" unicode="+" 
d="M493 320h-158v-160h-71v160h-157v67h157v160h71v-160h158v-67z" />
    <glyph glyph-name="comma" unicode="," 
d="M367 60q0 -51 -11 -93.5t-21.5 -60.5t-26.5 -42h-72q15 25 27.5 68.5t12.5 75.5v130h91v-78z" />
    <glyph glyph-name="hyphen" unicode="-" 
d="M449 252h-298v70h298v-70z" />
    <glyph glyph-name="period" unicode="." 
d="M347 0h-94v90h94v-90z" />
    <glyph glyph-name="slash" unicode="/" 
d="M544 707l-405 -832h-90l409 832h86z" />
    <glyph glyph-name="zero" unicode="0" 
d="M542 364q0 -179 -57 -277t-190 -98q-69 0 -117 27t-73.5 77.5t-36 110.5t-10.5 138q0 376 253 376q58 0 101 -21t67.5 -53t39 -81t19 -94.5t4.5 -104.5zM461 358q0 62 -6 108.5t-21.5 91.5t-48 69t-80.5 24q-50 0 -84.5 -25t-51.5 -71t-24 -95.5t-7 -113.5
q0 -290 161 -290q49 0 82.5 24t50 68.5t23 94t6.5 115.5z" />
    <glyph glyph-name="one" unicode="1" 
d="M534 0h-469v69h196v549l-189 -57v62l268 96v-650h194v-69z" />
    <glyph glyph-name="two" unicode="2" 
d="M526 0h-452v65q1 1 42 39.5t84.5 84t91.5 102t79 114.5t31 101q0 78 -31.5 110t-96.5 32q-76 0 -151 -44l-29 56q83 57 186 57q60 0 102.5 -18t63 -49t29 -63t8.5 -71q0 -44 -17 -91.5t-43 -88t-69.5 -90t-82.5 -87.5t-96 -90h351v-69z" />
    <glyph glyph-name="three" unicode="3" 
d="M521 185q0 -103 -70.5 -149.5t-182.5 -46.5q-101 0 -173 31l19 66q79 -30 150 -30q84 0 131 27t47 101q0 66 -60 105.5t-149 45.5v66q69 6 123.5 45.5t54.5 95.5q0 107 -138 107q-86 0 -154 -37l-25 58q91 47 184 47q98 0 153.5 -43t55.5 -124q0 -65 -48.5 -112
t-100.5 -60v-4q67 -13 125 -64.5t58 -124.5z" />
    <glyph glyph-name="four" unicode="4" 
d="M540 189h-104v-189h-75v189h-301v70l220 449h69l-214 -450h226v450h75v-449h104v-70z" />
    <glyph glyph-name="five" unicode="5" 
d="M501 213q0 -107 -62.5 -165.5t-168.5 -58.5q-99 0 -171 24l19 69q76 -22 151 -22q69 0 111.5 38.5t42.5 102.5q0 75 -41.5 112.5t-111.5 37.5t-145 -8v364h353v-68h-277v-221q32 2 87 2q100 0 156.5 -54.5t56.5 -152.5z" />
    <glyph glyph-name="six" unicode="6" 
d="M523 225q0 -116 -58 -176t-158 -60q-118 0 -174 68.5t-56 244.5q0 203 79.5 309t217.5 106q55 0 97 -14l-16 -66q-33 10 -80 10q-179 0 -211 -243q91 33 151 33q104 0 156 -58t52 -154zM443 215q1 76 -37 115.5t-100 39.5q-48 0 -149 -30q0 -7 -0.5 -21.5t-0.5 -22.5
q0 -125 32.5 -183t123.5 -58q63 0 97 45.5t34 114.5z" />
    <glyph glyph-name="seven" unicode="7" 
d="M518 643l-294 -643h-82l294 637h-347v70h429v-64z" />
    <glyph glyph-name="eight" unicode="8" 
d="M527 169q0 -85 -60.5 -132t-168.5 -47q-104 0 -164.5 43.5t-60.5 124.5q0 69 45 117t123 90q-48 30 -75 52t-47.5 57t-20.5 76q0 76 56 120.5t153 44.5q95 0 147.5 -46t52.5 -114q0 -29 -10 -54.5t-22 -42t-37 -36.5t-39 -28.5t-44 -26.5q82 -47 127 -93.5t45 -104.5z
M427 547q1 45 -29 75t-91 30q-63 0 -98.5 -27.5t-35.5 -76.5q0 -23 11 -44t36.5 -43t37.5 -31t42 -30q127 76 127 147zM447 172q0 30 -25 60.5t-52.5 49.5t-63.5 40q-8 4 -11 6q-144 -76 -144 -163q0 -55 41.5 -83t110.5 -28q144 0 144 118z" />
    <glyph glyph-name="nine" unicode="9" 
d="M523 397q0 -116 -20.5 -195.5t-62.5 -126t-99 -66.5t-136 -20q-37 0 -85 13l17 66q36 -10 69 -10q120 0 169.5 58.5t59.5 165.5q-85 -26 -159 -26q-98 0 -148.5 60t-50.5 166q0 110 59.5 170t159.5 60q106 0 166.5 -82.5t60.5 -232.5zM441 350v59q0 96 -37 165.5
t-114 69.5q-64 0 -99 -43t-35 -110q0 -96 34.5 -132t101.5 -36q63 0 149 27z" />
    <glyph glyph-name="colon" unicode=":" 
d="M347 456h-94v90h94v-90zM347 0h-94v90h94v-90z" />
    <glyph glyph-name="semicolon" unicode=";" 
d="M356 456h-94v90h94v-90zM356 60q0 -51 -11 -93.5t-21.5 -60.5t-26.5 -42h-72q15 25 27.5 68.5t12.5 75.5v130h91v-78z" />
    <glyph glyph-name="less" unicode="&#x3c;" 
d="M490 144l-380 160v99l380 160v-75l-324 -135l324 -134v-75z" />
    <glyph glyph-name="equal" unicode="=" 
d="M495 420h-390v64h390v-64zM495 224h-390v65h390v-65z" />
    <glyph glyph-name="greater" unicode="&#x3e;" 
d="M490 304l-380 -160v75l325 134l-325 135v75l380 -160v-99z" />
    <glyph glyph-name="question" unicode="?" 
d="M431 508q0 -34 -16.5 -66t-40.5 -56.5t-47.5 -47.5t-40 -49.5t-16.5 -51.5q0 -33 8 -59l-69 -10q-13 45 -13 70q0 45 24 85.5t53 65.5t53 55.5t24 58.5q0 61 -51.5 96t-129.5 42l16 68q48 -4 89.5 -16.5t78 -35.5t57.5 -61.5t21 -87.5zM293 0h-90v87h90v-87z" />
    <glyph glyph-name="at" unicode="@" 
d="M555 377q0 -143 -39.5 -214t-105.5 -71q-35 0 -50.5 15.5t-19.5 46.5h-3q-36 -58 -89 -58q-72 0 -72 127q0 100 43 162t117 62q44 0 81 -17l-26 -233q-6 -50 19 -50q83 0 83 228q0 92 -46 142.5t-108 50.5q-32 0 -62 -8.5t-61.5 -32.5t-54.5 -60.5t-38 -97.5t-15 -139
q0 -250 179 -250q69 0 137 24l14 -55q-74 -30 -158 -30q-121 0 -178 83t-57 216q0 110 25 191.5t68 127.5t94 68t111 22q96 0 154 -66.5t58 -183.5zM352 389q-11 3 -23 3q-47 0 -71.5 -45t-24.5 -118q0 -75 28 -75q6 0 12 1.5t12.5 5.5t10 6t10.5 9l8.5 8.5t9.5 10.5l7 9z
" />
    <glyph glyph-name="A" unicode="A" 
d="M556 0h-88l-52 215h-235l-62 -215h-82l209 707h129zM401 281l-68 276l-23 109h-3l-27 -107l-82 -278h203z" />
    <glyph glyph-name="B" unicode="B" 
d="M529 201q0 -96 -50.5 -148.5t-173.5 -52.5h-200v707h168q221 0 221 -174q0 -39 -11.5 -70t-29.5 -48t-31.5 -25.5t-26.5 -12.5v-4q13 -2 32 -11t43.5 -27.5t41.5 -53.5t17 -80zM411 520q0 68 -34.5 95.5t-114.5 27.5h-73v-246h74q78 0 113 30.5t35 92.5zM444 198
q0 74 -46 103.5t-145 29.5h-64v-263h99q77 0 116.5 27.5t39.5 102.5z" />
    <glyph glyph-name="C" unicode="C" 
d="M535 668l-31 -59q-66 38 -133 38q-106 0 -147.5 -65.5t-41.5 -222.5q0 -166 40.5 -233t159.5 -67q59 0 132 23l21 -63q-1 0 -13.5 -5t-19 -7t-22.5 -6t-30.5 -6t-37 -4t-47.5 -2q-68 0 -116.5 18t-77.5 47.5t-46 77.5t-22.5 98t-5.5 119q0 86 12 148.5t41 114.5
t83.5 78.5t134.5 26.5q96 0 167 -49z" />
    <glyph glyph-name="D" unicode="D" 
d="M544 356q0 -191 -65 -273.5t-231 -82.5h-152v707h146q161 0 231.5 -86.5t70.5 -264.5zM462 345q0 155 -48.5 224.5t-172.5 69.5h-63v-571h81q118 0 160.5 64t42.5 213z" />
    <glyph glyph-name="E" unicode="E" 
d="M531 0h-419v707h401v-67h-318v-251h298v-68h-298v-253h336v-68z" />
    <glyph glyph-name="F" unicode="F" 
d="M540 640h-335v-271h316v-67h-316v-302h-82v707h417v-67z" />
    <glyph glyph-name="G" unicode="G" 
d="M516 668l-31 -60q-74 37 -137 37q-104 0 -144.5 -65t-40.5 -221q0 -67 4.5 -112.5t17 -83.5t34.5 -59t56.5 -32.5t84.5 -11.5q32 0 74 10v238h81v-288q-77 -31 -173 -31q-67 0 -115.5 18t-77 47.5t-45 77.5t-22 98t-5.5 119q0 85 12 147.5t40.5 114.5t83 79t133.5 27
q95 0 170 -49z" />
    <glyph glyph-name="H" unicode="H" 
d="M530 0h-83v321h-294v-321h-83v707h83v-318h294v318h83v-707z" />
    <glyph glyph-name="I" unicode="I" 
d="M536 0h-472v68h196v572h-196v67h472v-67h-194v-572h194v-68z" />
    <glyph glyph-name="J" unicode="J" 
d="M469 231q0 -68 -32 -117.5t-87.5 -75t-116.5 -37t-133 -12.5l-7 71q294 13 294 169v411h-292v67h374v-476z" />
    <glyph glyph-name="K" unicode="K" 
d="M578 0h-101l-259 369v15l245 323h97l-258 -327zM106 0v707h82v-707h-82z" />
    <glyph glyph-name="L" unicode="L" 
d="M534 0h-377v707h83v-636h294v-71z" />
    <glyph glyph-name="M" unicode="M" 
d="M530 0h-73v527l8 108h-3l-25 -99l-97 -276h-95l-88 276l-21 97h-2l8 -108v-525h-73l2 707h104l77 -252l40 -144h3l48 147l84 249h101z" />
    <glyph glyph-name="N" unicode="N" 
d="M533 0h-128l-237 561l-26 75h-3l6 -81v-555h-78v707h118l236 -554l35 -91h3l-5 96v549h79v-707z" />
    <glyph glyph-name="O" unicode="O" 
d="M540 353q0 -87 -10.5 -149.5t-37.5 -113t-76.5 -76t-123.5 -25.5q-56 0 -97.5 18t-67 48.5t-41 78t-21 100t-5.5 121.5q0 179 56.5 270.5t192.5 91.5q68 0 114.5 -26.5t71.5 -78.5t35 -113.5t10 -145.5zM456 354q0 54 -3.5 95t-13 80.5t-26 64t-44.5 40t-67 15.5
q-87 0 -123 -75.5t-36 -217.5q0 -44 2 -77t7 -69.5t15.5 -62t26.5 -47t41.5 -32.5t58.5 -11q44 0 75 16.5t47.5 41t26 66.5t11.5 79t2 94z" />
    <glyph glyph-name="P" unicode="P" 
d="M560 486q0 -102 -67 -166.5t-205 -64.5h-89v-255h-84v707h225q105 0 162.5 -57t57.5 -164zM474 481q0 83 -38 121t-120 38h-117v-316h95q180 0 180 157z" />
    <glyph glyph-name="Q" unicode="Q" 
d="M539 353q0 -69 -6.5 -122t-23 -100t-44 -77.5t-71.5 -48t-103 -17.5q-56 0 -97.5 18t-67 48.5t-40.5 78.5t-20.5 100.5t-5.5 121.5q0 179 56.5 270.5t192.5 91.5q54 0 95 -18.5t66.5 -49.5t41 -78.5t21.5 -99.5t6 -118zM561 -160q-110 0 -190 26q-91 29 -168 34v65
q19 0 38 -1.5t31.5 -3t32.5 -6t26.5 -6.5t27.5 -7.5t24 -6.5q85 -27 178 -27v-67zM455 354q0 56 -3 96.5t-13 80t-26.5 64t-44.5 39.5t-67 15q-86 0 -122.5 -75t-36.5 -218q0 -44 2 -77.5t7 -70t16 -62t27 -47t41 -32.5t58 -11q44 0 75 16.5t47.5 41t26 67t11.5 79.5t2 94z
" />
    <glyph glyph-name="R" unicode="R" 
d="M559 0h-95l-141 285q-25 -5 -62 -5h-88v-280h-84v707h224q103 0 162.5 -53t59.5 -154q0 -145 -135 -196zM447 494q1 77 -38 111.5t-119 34.5h-118v-290h95q180 0 180 144z" />
    <glyph glyph-name="S" unicode="S" 
d="M526 187q0 -105 -69 -151.5t-182 -46.5q-115 0 -201 37l27 68q90 -33 171 -33q32 0 59.5 5.5t54.5 17.5t42.5 37t15.5 60q0 40 -26.5 70.5t-65.5 48.5t-85.5 40t-85.5 44.5t-65.5 63t-26.5 93.5q0 89 61.5 132.5t154.5 43.5q96 0 178 -37l-24 -63q-82 32 -151 32
q-62 0 -101 -24.5t-39 -77.5q0 -44 37 -76.5t89.5 -56t105 -49t89.5 -71t37 -107.5z" />
    <glyph glyph-name="T" unicode="T" 
d="M547 638h-205v-638h-83v638h-206v69h494v-69z" />
    <glyph glyph-name="U" unicode="U" 
d="M532 267q0 -82 -17.5 -138.5t-50.5 -86t-72 -41.5t-90 -12q-56 0 -95.5 11t-72.5 37.5t-49.5 77.5t-16.5 126v466h84v-460q0 -108 37.5 -147.5t112.5 -39.5q79 0 115 44t36 162v441h79v-440z" />
    <glyph glyph-name="V" unicode="V" 
d="M556 707l-211 -707h-126l-182 707h87l132 -537l26 -114h3l31 114l157 537h83z" />
    <glyph glyph-name="W" unicode="W" 
d="M543 707l-44 -707h-101l-81 350l-15 77h-2l-19 -79l-91 -348h-100l-32 707h74l20 -526l-1 -116h3l25 121l76 292h95l68 -289l21 -123h3l1 118l29 523h71z" />
    <glyph glyph-name="X" unicode="X" 
d="M45 0l207 354l-203 353h87l172 -301l173 301h85l-205 -350l203 -357h-86l-173 306l-174 -306h-86z" />
    <glyph glyph-name="Y" unicode="Y" 
d="M562 707l-228 -449v-258h-82v258l-213 449h88l130 -285l37 -99h3l40 99l139 285h86z" />
    <glyph glyph-name="Z" unicode="Z" 
d="M537 0h-474v71l360 565h-334v71h427v-65l-363 -572h384v-70z" />
    <glyph glyph-name="bracketleft" unicode="[" 
d="M480 -220h-321v974h321v-67h-241v-840h241v-67z" />
    <glyph glyph-name="backslash" unicode="\" 
d="M454 -125l-405 832h86l409 -832h-90z" />
    <glyph glyph-name="bracketright" unicode="]" 
d="M480 -220h-321v67h242v840h-242v67h321v-974z" />
    <glyph glyph-name="asciicircum" unicode="^" 
d="M525 294h-85l-134 357l-149 -357h-82l178 413h106z" />
    <glyph glyph-name="underscore" unicode="_" 
d="M600 -165h-600v69h600v-69z" />
    <glyph glyph-name="grave" unicode="`" 
d="M392 669l-31 -51l-197 121l36 61z" />
    <glyph glyph-name="a" unicode="a" 
d="M529 53l-5 -64q-42 -2 -76 15.5t-40 55.5q-78 -71 -185 -71q-73 0 -112.5 40.5t-39.5 115.5q0 48 19.5 81.5t52.5 50.5t66 24t71 8l122 2v75q0 62 -31.5 82.5t-106.5 20.5q-52 0 -131 -24l-17 63q75 30 172 30q92 0 141.5 -33.5t49.5 -111.5v-307q0 -47 50 -53zM402 115
v141l-123 -5q-65 -3 -98 -30t-33 -68q0 -52 24 -74t71 -22q72 0 159 58z" />
    <glyph glyph-name="b" unicode="b" 
d="M520 289q0 -159 -71 -229.5t-183 -70.5q-95 0 -186 27v738h78v-238q73 35 147 35q104 0 159.5 -68t55.5 -194zM439 273h1q0 37 -3 65.5t-12.5 57.5t-25.5 47.5t-43 30.5t-64 12q-50 0 -134 -32v-386q50 -12 110 -12q84 0 127.5 60t43.5 157z" />
    <glyph glyph-name="c" unicode="c" 
d="M521 15q-87 -26 -161 -26q-146 0 -211.5 67t-65.5 216q0 133 69 209.5t186 76.5q105 0 182 -45l-28 -60q-76 39 -154 39q-79 0 -126.5 -57t-47.5 -160q0 -115 45 -167t160 -52q62 0 138 21z" />
    <glyph glyph-name="d" unicode="d" 
d="M517 0h-79v53q-25 -25 -65 -43.5t-80 -18.5q-219 0 -219 280q0 138 70.5 212.5t181.5 74.5q67 0 112 -13v209h79v-754zM438 118v360q-45 17 -112 17q-89 0 -130.5 -65t-41.5 -162q0 -106 39 -157.5t109 -51.5q60 0 136 59z" />
    <glyph glyph-name="e" unicode="e" 
d="M523 254h-366q1 -62 17 -102.5t45.5 -60.5t61.5 -27t77 -7q61 0 138 20l13 -64q-75 -25 -171 -25q-126 0 -193.5 63t-67.5 212q0 154 67 224.5t179 70.5q200 0 200 -275v-29zM440 314q0 87 -33.5 135.5t-95.5 48.5t-104 -47t-49 -137h282z" />
    <glyph glyph-name="f" unicode="f" 
d="M557 748l-14 -66q-63 14 -117 14q-65 0 -96 -24.5t-31 -87.5v-38h224v-64h-224v-414h224v-68h-456v68h154v414h-154v64h154v39q0 180 204 180q76 0 132 -17z" />
    <glyph glyph-name="g" unicode="g" 
d="M514 -34q0 -96 -61.5 -145t-162.5 -49q-97 0 -174 20l14 68q83 -18 142 -18q81 0 123 28t42 112v58q-51 -49 -132 -49q-37 0 -66.5 5.5t-61.5 23t-53 47t-35 82t-14 122.5q0 140 70.5 213.5t182.5 73.5q70 0 186 -20v-572zM435 106l1 374q-60 12 -108 12
q-175 0 -175 -224q0 -113 39 -162t123 -49q62 0 120 49z" />
    <glyph glyph-name="h" unicode="h" 
d="M512 0h-75v337q0 79 -21 115.5t-88 36.5q-61 0 -162 -66v-423h-79v754h79v-270q92 74 185 74q44 0 75 -12.5t47 -30.5t25.5 -47.5t11.5 -53t2 -57.5v-357z" />
    <glyph glyph-name="i" unicode="i" 
d="M559 0h-472v68h197v414h-179v64h258v-478h196v-68zM388 724l-66 -65l-63 65l63 64z" />
    <glyph glyph-name="j" unicode="j" 
d="M420 -47q0 -175 -208 -175q-86 0 -179 35l23 67q93 -31 159 -31q64 0 95.5 25.5t31.5 82.5v525h-270v64h348v-593zM445 724l-66 -65l-63 65l63 64z" />
    <glyph glyph-name="k" unicode="k" 
d="M543 0h-96l-235 292l238 254h92l-242 -252zM186 0h-79v754h79v-754z" />
    <glyph glyph-name="l" unicode="l" 
d="M537 0h-476v68h200v623h-182v63h260v-686h198v-68z" />
    <glyph glyph-name="m" unicode="m" 
d="M542 0h-71v350v7q0 26 -0.5 38.5t-2 32t-5 29.5t-10 20.5t-17 15t-25.5 4.5q-38 0 -79 -62q3 -21 3 -72v-363h-70v367q0 83 -11 105q-12 26 -42 26q-36 0 -83 -74v-424h-71v546h71v-61q44 73 102 73q75 0 91 -71q39 71 105 71q32 0 54.5 -11.5t34 -27.5t18 -44.5t7.5 -50
t1 -57.5v-367z" />
    <glyph glyph-name="n" unicode="n" 
d="M512 0h-76v337q0 78 -21.5 115t-87.5 37q-61 0 -162 -66v-423h-79v546h78v-62q27 21 45 33t58 26.5t82 14.5q43 0 74 -12t47.5 -30t26.5 -46.5t12.5 -53.5t2.5 -59v-357z" />
    <glyph glyph-name="o" unicode="o" 
d="M538 273q0 -140 -64.5 -212t-174.5 -72q-114 0 -175.5 72t-61.5 206q0 139 65.5 215t176.5 76q234 0 234 -285zM457 273q0 221 -155 221q-59 0 -96.5 -34.5t-50.5 -81.5t-13 -106q0 -218 161 -218q154 0 154 219z" />
    <glyph glyph-name="p" unicode="p" 
d="M522 289q0 -83 -20 -142.5t-56 -93t-80 -48.5t-98 -15q-53 0 -107 8v-218h-79v766h78v-47q82 59 150 59q103 0 157.5 -68t54.5 -201zM440 269q0 47 -5.5 83.5t-21 69.5t-46 50.5t-75.5 17.5q-59 0 -132 -53v-371q60 -10 111 -10q85 0 127 58.5t42 154.5z" />
    <glyph glyph-name="q" unicode="q" 
d="M515 -220h-79v241q-61 -32 -137 -32q-225 0 -225 285q0 137 71.5 210.5t182.5 73.5q103 0 187 -25v-753zM436 86v393q-51 14 -110 14q-90 0 -132 -63t-42 -158q0 -218 156 -218q73 0 128 32z" />
    <glyph glyph-name="r" unicode="r" 
d="M572 520l-24 -65q-75 35 -122 35q-80 0 -147 -81v-341h197v-68h-420v68h145v413h-144v65h222v-69q66 81 157 81q22 0 40.5 -2.5t34.5 -8t24 -8.5t22 -10.5t15 -8.5z" />
    <glyph glyph-name="s" unicode="s" 
d="M509 143q0 -44 -23.5 -76t-61.5 -48t-75 -23t-75 -7q-105 0 -185 31l17 66q102 -34 164 -34q71 0 116.5 21t45.5 67q0 33 -33.5 55.5t-81 37.5t-95 33t-81 54.5t-33.5 90.5q0 70 57.5 108.5t142.5 38.5q93 0 167 -30l-19 -61q-83 27 -151 27q-54 0 -87 -20.5t-33 -58.5
q0 -36 33.5 -60.5t81 -40t95 -34t81 -53t33.5 -84.5z" />
    <glyph glyph-name="t" unicode="t" 
d="M549 31q-103 -42 -190 -42q-90 0 -137.5 32.5t-47.5 123.5v336h-126v65h126v112h76v-112h289v-65h-288v-320q0 -57 25 -80t88 -23q70 0 170 35z" />
    <glyph glyph-name="u" unicode="u" 
d="M511 0h-76v64q-2 -1 -14 -9.5t-16.5 -11.5t-17 -11t-19.5 -11t-20 -9.5t-23.5 -9.5t-23.5 -6.5t-27 -5t-28 -1.5q-42 0 -72 13t-46 32.5t-25.5 49.5t-11.5 54.5t-2 58.5v349h78v-333q0 -31 1 -49.5t6.5 -41t16 -34t30 -20t47.5 -8.5q60 0 167 67v419h76v-546z" />
    <glyph glyph-name="v" unicode="v" 
d="M564 546l-219 -546h-110l-197 546h82l147 -417l24 -79h2l28 79l163 417h80z" />
    <glyph glyph-name="w" unicode="w" 
d="M572 546l-87 -546h-102l-82 450h-2l-102 -450h-99l-70 546h75l50 -490h3l100 449h91l83 -449h3l67 490h72z" />
    <glyph glyph-name="x" unicode="x" 
d="M573 546l-224 -273l224 -273h-95l-178 226l-179 -226h-94l224 273l-224 273h94l179 -224l179 224h94z" />
    <glyph glyph-name="y" unicode="y" 
d="M563 546l-306 -766h-74l87 220h-35l-197 546h83l170 -491h3l190 491h79z" />
    <glyph glyph-name="z" unicode="z" 
d="M527 0h-454v68l359 409h-333v69h424v-64l-365 -413h369v-69z" />
    <glyph glyph-name="braceleft" unicode="{" 
d="M511 -219h-92q-50 0 -87 6t-72.5 22.5t-54.5 51.5t-19 88q0 10 2 36l18 159q4 40 -26 66.5t-70 26.5h-21v72h20q41 0 71.5 26.5t25.5 66.5l-21 179q-2 24 -2 35q0 41 13.5 70.5t34 46.5t52 27t61 13t67.5 3h100v-71h-103q-27 0 -46.5 -2t-41.5 -9.5t-34.5 -20.5
t-19.5 -36.5t-3 -55.5l20 -160q7 -61 -19 -98t-73 -47v-2q105 -36 92 -145l-17 -145q-4 -41 9.5 -69.5t39.5 -41t50 -17.5t51 -5h95v-70z" />
    <glyph glyph-name="bar" unicode="|" 
d="M340 -126h-80v833h80v-833z" />
    <glyph glyph-name="braceright" unicode="}" 
d="M511 237h-21q-40 0 -70 -26.5t-26 -66.5l18 -159q2 -26 2 -37q0 -43 -13.5 -74t-34 -48.5t-52.5 -28t-62.5 -13.5t-69.5 -3h-93v70h95q27 0 51 5t50.5 17.5t40 41t8.5 69.5l-16 145q-13 110 92 145v2q-47 10 -73 47t-20 98l20 160q5 40 -5 66.5t-33.5 38t-47.5 15.5
t-58 4h-104v71h100q48 0 84 -5.5t71.5 -21.5t54.5 -49.5t19 -83.5q0 -11 -2 -35l-21 -179q-5 -40 25 -66.5t71 -26.5h20v-72z" />
    <glyph glyph-name="asciitilde" unicode="~" 
d="M537 345q-57 -62 -129 -62q-54 0 -118.5 30t-98.5 30q-44 0 -89 -29l-39 55q58 54 133 54q52 0 111 -30.5t100 -30.5q45 0 88 33z" />
    <glyph glyph-name="exclamdown" unicode="&#xa1;" 
d="M345 459h-90v87h90v-87zM340 -161h-80v395l4 140h70l6 -140v-395z" />
    <glyph glyph-name="cent" unicode="&#xa2;" 
d="M501 113q-51 -16 -122 -18l4 -95h-80l4 99q-109 14 -159 81t-50 197q0 119 55 193t153 89l-3 95h79l-3 -92q71 -4 122 -30l-24 -63q-65 27 -125 27q-79 0 -126 -56.5t-47 -159.5q0 -115 44.5 -166t159.5 -51q20 0 40 2.5t39 6.5t25 5z" />
    <glyph glyph-name="sterling" unicode="&#xa3;" 
d="M518 0h-421v70q26 9 46 51t26 72.5t10 58.5h-97v67h101q2 27 2 89v100q0 55 17.5 94.5t42.5 59.5t60.5 30.5t63 13t59.5 3.5h14l4 -67q-85 -8 -107 -15q-76 -23 -76 -116v-7q0 -10 0.5 -30.5t0.5 -30.5q0 -62 -5 -124h184v-67h-189q-16 -133 -64 -184h328v-68z" />
    <glyph glyph-name="currency" unicode="&#xa4;" 
d="M513 525l-68 -67q34 -37 34 -106q0 -68 -36 -107l68 -68l-37 -39l-70 69q-51 -28 -104 -28q-57 0 -103 30l-71 -70l-39 40l69 67q-35 44 -35 106q0 66 34 106l-68 68l39 38l69 -70q55 32 105 32q61 0 104 -30l69 69zM410 352q1 48 -28 79.5t-82 31.5t-82.5 -31.5
t-29.5 -79.5t30 -79t82 -31q54 0 82 30.5t28 79.5z" />
    <glyph glyph-name="yen" unicode="&#xa5;" 
d="M563 707l-201 -384h181v-69h-210v-97h210v-69h-209v-88h-82v88h-197v69h197v97h-197v69h171l-189 384h90l130 -285l37 -100h4l39 100l139 285h87z" />
    <glyph glyph-name="brokenbar" unicode="&#xa6;" 
d="M340 431h-80v276h80v-276zM340 -126h-80v307h80v-307z" />
    <glyph glyph-name="section" unicode="&#xa7;" 
d="M513 173q0 -38 -30 -78t-72 -65q29 -43 29 -92q0 -48 -43.5 -83t-105.5 -51t-133 -17l-4 64q71 3 137.5 26.5t66.5 64.5q0 42 -46 96l-167 195q-55 61 -55 117q0 86 97 132q-38 43 -38 89q0 129 237 151l17 -59q-172 -24 -172 -86q0 -21 10.5 -38.5t39.5 -47.5l168 -181
q64 -66 64 -137zM434 171q0 44 -46 92l-159 171q-65 -32 -65 -80q0 -31 38 -74l169 -197q25 13 44 39t19 49z" />
    <glyph glyph-name="dieresis" unicode="&#xa8;" 
d="M462 716l-56 -57l-57 57l56 56zM250 716l-56 -57l-56 57l55 56z" />
    <glyph glyph-name="copyright" unicode="&#xa9;" 
d="M529 377q0 -108 -63.5 -172.5t-174.5 -64.5q-107 0 -167.5 65t-60.5 174q0 110 66 173.5t174 63.5q109 0 167.5 -66t58.5 -173zM474 378q0 84 -47 137t-130 53q-86 0 -132 -52.5t-46 -136.5q0 -82 45.5 -137t128.5 -55q88 0 134.5 53t46.5 138zM390 264q-53 -16 -81 -16
q-64 0 -101.5 38t-37.5 96q0 62 36.5 99t101.5 37q45 0 81 -18l-15 -41q-34 11 -66 11q-37 0 -60 -21t-23 -64t25 -65t65 -22q28 0 62 10z" />
    <glyph glyph-name="ordfeminine" unicode="&#xaa;" 
d="M441 435l-3 -47q-28 -2 -52 7t-28 31q-49 -40 -103 -40q-45 0 -69.5 23.5t-24.5 68.5q0 91 123 93l71 2v39q0 32 -16 42t-58 10q-12 0 -82 -15l-13 45q50 21 107 21q55 0 86 -19t31 -70v-167q0 -24 31 -24zM450 300h-299v52h299v-52zM355 468v64l-68 -4q-70 -3 -70 -46
q0 -49 48 -49q10 0 25 5t26.5 10.5t24.5 12t14 7.5z" />
    <glyph glyph-name="guillemotleft" unicode="&#xab;" 
d="M515 503l-100 -231l99 -235l-61 -26l-121 261l121 255zM290 503l-100 -231l99 -235l-61 -26l-121 261l121 256z" />
    <glyph glyph-name="logicalnot" unicode="&#xac;" 
d="M492 160h-72v158h-312v68h384v-226z" />
    <glyph glyph-name="registered" unicode="&#xae;" 
d="M531 497q0 -108 -63.5 -173t-174.5 -65q-107 0 -168 65.5t-61 173.5q0 109 66.5 172.5t174.5 63.5q109 0 167.5 -66t58.5 -171zM475 497q0 84 -46.5 137t-129.5 53q-86 0 -132 -52.5t-46 -136.5q0 -82 45 -137t129 -55q88 0 134 53t46 138zM427 412l-11 -42q-45 5 -74 43
q-4 3 -23.5 27t-21.5 26q-2 0 -7.5 -0.5t-8.5 -0.5h-23v-91h-50v259h91q93 0 93 -81q0 -50 -45 -71q1 -2 6.5 -8.5t7 -8.5t6.5 -8t7 -8.5t7 -7.5t8 -7.5t8 -6t9.5 -6t10 -4.5t10.5 -4zM339 550q0 23 -11 32.5t-37 9.5h-33v-85h25q56 0 56 43z" />
    <glyph glyph-name="macron" unicode="&#xaf;" 
d="M446 692h-292v66h292v-66z" />
    <glyph glyph-name="degree" unicode="&#xb0;" 
d="M434 587q0 -61 -38 -96.5t-99 -35.5q-131 0 -131 132q0 57 38 93t96 36q61 0 97.5 -34t36.5 -95zM372 587q0 36 -20 56.5t-53 20.5t-52.5 -20.5t-19.5 -56.5q0 -39 19.5 -59t52.5 -20q34 0 53.5 20.5t19.5 58.5z" />
    <glyph glyph-name="plusminus" unicode="&#xb1;" 
d="M496 319h-159v-160h-74v160h-159v69h159v159h73v-159h160v-69zM496 0h-392v69h392v-69z" />
    <glyph glyph-name="twosuperior" unicode="&#xb2;" 
d="M407 402h-214v43q4 3 36.5 33t50.5 48.5t36.5 45.5t18.5 45q0 28 -10.5 38.5t-33.5 10.5q-37 0 -69 -20l-24 41q42 30 96 30q57 0 79.5 -28t22.5 -67q0 -20 -9.5 -41.5t-17.5 -34.5t-31.5 -36.5t-29.5 -28.5t-34 -29h133v-50z" />
    <glyph glyph-name="threesuperior" unicode="&#xb3;" 
d="M403 490q0 -91 -113 -91q-54 0 -93 14l12 45q43 -12 77 -12q59 0 59 42q0 32 -18.5 42t-65.5 13v39q70 5 70 53q0 32 -42 32q-39 0 -59 -10l-18 40q41 19 81 19q42 0 68.5 -19t26.5 -56q0 -50 -40 -72q55 -20 55 -79z" />
    <glyph glyph-name="acute" unicode="&#xb4;" 
d="M460 739l-197 -121l-31 52l190 130z" />
    <glyph glyph-name="mu" unicode="&#xb5;" 
d="M96 -220v766h75v-336q0 -37 2.5 -59t12.5 -45.5t32 -34.5t57 -11q78 0 160 68v418h76v-435q0 -34 17.5 -46t57.5 -8l-1 -63q-25 -3 -48 -3q-90 0 -99 75q-91 -78 -180 -78q-54 0 -87 26v-234h-75z" />
    <glyph glyph-name="mu" unicode="&#x3bc;" 
d="M96 -220v766h75v-336q0 -37 2.5 -59t12.5 -45.5t32 -34.5t57 -11q78 0 160 68v418h76v-435q0 -34 17.5 -46t57.5 -8l-1 -63q-25 -3 -48 -3q-90 0 -99 75q-91 -78 -180 -78q-54 0 -87 26v-234h-75z" />
    <glyph glyph-name="paragraph" unicode="&#xb6;" 
d="M356 269h-69q-105 0 -161 55t-56 167q0 111 54 163t161 53h71v-438zM530 -16q0 -112 -48.5 -158t-133.5 -46q-38 0 -72 12l15 68q2 0 13 -2t23 -3t22 -1q58 0 81 32.5t23 98.5v722h77v-723z" />
    <glyph glyph-name="periodcentered" unicode="&#xb7;" 
d="M364 356l-65 -64l-66 65l65 64z" />
    <glyph glyph-name="cedilla" unicode="&#xb8;" 
d="M389 -117q2 -81 -106 -125l-25 42q57 34 57 82q0 27 -23 66h78q19 -30 19 -65z" />
    <glyph glyph-name="onesuperior" unicode="&#xb9;" 
d="M362 402h-60v261h-64v48l124 3v-312z" />
    <glyph glyph-name="ordmasculine" unicode="&#xba;" 
d="M449 550q0 -80 -42 -123t-110 -43q-70 0 -108 43t-38 120q0 80 40.5 125t108.5 45q149 0 149 -167zM449 300h-299v52h299v-52zM386 550q0 116 -86 116q-87 0 -87 -117q0 -114 87 -114q86 0 86 115z" />
    <glyph glyph-name="guillemotright" unicode="&#xbb;" 
d="M515 272l-121 -261l-60 26l99 235l-101 231l62 25zM290 272l-121 -261l-61 26l99 235l-100 231l63 24z" />
    <glyph glyph-name="onequarter" unicode="&#xbc;" 
d="M542 494l-474 -294l-28 50l473 293zM168 402h-59v261h-64v48l123 3v-312zM555 79h-54v-79h-58v79h-132v57l103 176h86v-185h55v-48zM442 127l1 143l-82 -143h81z" />
    <glyph glyph-name="onehalf" unicode="&#xbd;" 
d="M168 402h-60v261h-63v48l123 3v-312zM542 494l-474 -294l-28 50l473 293zM546 0h-214v43q4 4 36 33.5t51 48t37.5 45.5t18.5 45q0 28 -11 38.5t-33 10.5q-36 0 -70 -20l-24 41q42 30 95 30q58 0 80.5 -28t22.5 -67q0 -24 -10 -47.5t-33 -48.5t-36.5 -37t-42.5 -37h133
v-50z" />
    <glyph glyph-name="threequarters" unicode="&#xbe;" 
d="M239 490q0 -91 -114 -91q-51 0 -93 14l12 45q41 -12 76 -12q60 0 60 42q0 29 -19.5 40.5t-65.5 14.5v39q36 2 53.5 14t17.5 37q0 34 -42 34q-39 0 -59 -10l-18 39q40 20 80 20q42 0 69 -19t27 -56q0 -51 -41 -72q57 -19 57 -79zM542 494l-474 -294l-28 50l473 293z
M555 79h-54v-79h-57v79h-132v57l103 176h86v-185h54v-48zM444 127v143l-82 -143h82z" />
    <glyph glyph-name="questiondown" unicode="&#xbf;" 
d="M397 459h-91v87h91v-87zM431 -95l-16 -68q-48 4 -89.5 16.5t-78 35.5t-57.5 61.5t-21 87.5q0 34 16.5 66t40.5 56.5t47.5 48t40 49.5t16.5 52t-7 59l68 9q13 -39 13 -70q0 -45 -24 -85.5t-53 -65.5t-53 -55.5t-24 -58.5q0 -61 51.5 -96t129.5 -42z" />
    <glyph glyph-name="Agrave" unicode="&#xc0;" 
d="M556 0h-88l-52 215h-235l-62 -215h-82l209 707h129zM401 281l-68 276l-23 109h-3l-27 -107l-82 -278h203zM381 749l-201 109l32 62l195 -117z" />
    <glyph glyph-name="Aacute" unicode="&#xc1;" 
d="M556 0h-88l-52 215h-235l-62 -215h-82l209 707h129zM401 281l-68 276l-23 109h-3l-27 -107l-82 -278h203zM451 858l-201 -109l-26 54l195 117z" />
    <glyph glyph-name="Acircumflex" unicode="&#xc2;" 
d="M556 0h-88l-52 215h-235l-62 -215h-82l209 707h129zM401 281l-68 276l-23 109h-3l-27 -107l-82 -278h203zM495 812l-28 -51l-158 84l-159 -84l-31 50l189 109z" />
    <glyph glyph-name="Atilde" unicode="&#xc3;" 
d="M556 0h-88l-52 215h-235l-62 -215h-82l209 707h129zM401 281l-68 276l-23 109h-3l-27 -107l-82 -278h203zM471 804q-12 -16 -39 -33t-62 -17q-24 0 -65.5 19t-61.5 19q-37 0 -70 -26l-30 48q41 44 104 44q27 0 66.5 -18t56.5 -18q32 0 71 27z" />
    <glyph glyph-name="Adieresis" unicode="&#xc4;" 
d="M556 0h-88l-52 215h-235l-62 -215h-82l209 707h129zM401 281l-68 276l-23 109h-3l-27 -107l-82 -278h203zM472 807l-57 -57l-57 57l56 57zM258 807l-55 -57l-57 57l56 57z" />
    <glyph glyph-name="Aring" unicode="&#xc5;" 
d="M556 0h-88l-52 215h-235l-62 -215h-82l209 707h129zM401 281l-68 276l-23 109h-3l-27 -107l-82 -278h203zM426 840q0 -50 -33 -79t-84 -29t-86 26.5t-35 79.5q0 51 35 80.5t83 29.5q46 0 83 -26.5t37 -81.5zM372 839q0 28 -19 45.5t-46 17.5q-30 0 -47.5 -16.5
t-17.5 -44.5t18 -46t47 -18q30 0 47.5 17t17.5 45z" />
    <glyph glyph-name="AE" unicode="&#xc6;" 
d="M568 0h-259v311h-108l-88 -311h-80l211 707h303v-67h-163v-251h151v-68h-151v-253h184v-68zM309 378v288h-9l-44 -156l-37 -132h90z" />
    <glyph glyph-name="Ccedilla" unicode="&#xc7;" 
d="M535 668l-31 -59q-66 38 -133 38q-106 0 -147.5 -65.5t-41.5 -222.5q0 -166 40.5 -233t159.5 -67q59 0 132 23l21 -63q-1 0 -13.5 -5t-19 -7t-22.5 -6t-30.5 -6t-37 -4t-47.5 -2q-68 0 -116.5 18t-77.5 47.5t-46 77.5t-22.5 98t-5.5 119q0 86 12 148.5t41 114.5
t83.5 78.5t134.5 26.5q96 0 167 -49zM411 -117q2 -81 -106 -125l-25 42q57 34 57 82q0 27 -23 66h78q19 -30 19 -65z" />
    <glyph glyph-name="Egrave" unicode="&#xc8;" 
d="M395 749l-201 109l32 62l195 -117zM531 0h-419v707h401v-67h-318v-251h298v-68h-298v-253h336v-68z" />
    <glyph glyph-name="Eacute" unicode="&#xc9;" 
d="M452 858l-201 -109l-26 54l195 117zM531 0h-419v707h401v-67h-318v-251h298v-68h-298v-253h336v-68z" />
    <glyph glyph-name="Ecircumflex" unicode="&#xca;" 
d="M531 0h-419v707h401v-67h-318v-251h298v-68h-298v-253h336v-68zM502 812l-28 -51l-158 84l-159 -84l-31 50l189 109z" />
    <glyph glyph-name="Edieresis" unicode="&#xcb;" 
d="M479 807l-57 -57l-57 57l56 57zM265 807l-55 -57l-57 57l56 57zM531 0h-419v707h401v-67h-318v-251h298v-68h-298v-253h336v-68z" />
    <glyph glyph-name="Igrave" unicode="&#xcc;" 
d="M536 0h-472v68h196v572h-196v67h472v-67h-194v-572h194v-68zM366 749l-201 109l32 62l195 -117z" />
    <glyph glyph-name="Iacute" unicode="&#xcd;" 
d="M536 0h-472v68h196v572h-196v67h472v-67h-194v-572h194v-68zM446 858l-201 -109l-26 54l195 117z" />
    <glyph glyph-name="Icircumflex" unicode="&#xce;" 
d="M536 0h-472v68h196v572h-196v67h472v-67h-194v-572h194v-68zM488 812l-28 -51l-158 84l-159 -84l-31 50l189 109z" />
    <glyph glyph-name="Idieresis" unicode="&#xcf;" 
d="M536 0h-472v68h196v572h-196v67h472v-67h-194v-572h194v-68zM463 807l-57 -57l-57 57l56 57zM249 807l-55 -57l-57 57l56 57z" />
    <glyph glyph-name="Eth" unicode="&#xd0;" 
d="M554 356q0 -191 -65 -273.5t-231 -82.5h-151v323h-65v60h65v324h145q161 0 231.5 -86.5t70.5 -264.5zM473 345q0 155 -49 224.5t-173 69.5h-63v-256h119v-60h-119v-255h81q120 0 162 65t42 212z" />
    <glyph glyph-name="Ntilde" unicode="&#xd1;" 
d="M464 804q-12 -16 -39 -33t-62 -17q-24 0 -65.5 19t-61.5 19q-37 0 -70 -26l-30 48q41 44 104 44q27 0 66.5 -18t56.5 -18q32 0 71 27zM533 0h-128l-237 561l-26 75h-3l6 -81v-555h-78v707h118l236 -554l35 -91h3l-5 96v549h79v-707z" />
    <glyph glyph-name="Ograve" unicode="&#xd2;" 
d="M374 749l-201 109l32 62l195 -117zM540 353q0 -87 -10.5 -149.5t-37.5 -113t-76.5 -76t-123.5 -25.5q-56 0 -97.5 18t-67 48.5t-41 78t-21 100t-5.5 121.5q0 179 56.5 270.5t192.5 91.5q68 0 114.5 -26.5t71.5 -78.5t35 -113.5t10 -145.5zM456 354q0 54 -3.5 95t-13 80.5
t-26 64t-44.5 40t-67 15.5q-87 0 -123 -75.5t-36 -217.5q0 -44 2 -77t7 -69.5t15.5 -62t26.5 -47t41.5 -32.5t58.5 -11q44 0 75 16.5t47.5 41t26 66.5t11.5 79t2 94z" />
    <glyph glyph-name="Oacute" unicode="&#xd3;" 
d="M433 858l-201 -109l-26 54l195 117zM540 353q0 -87 -10.5 -149.5t-37.5 -113t-76.5 -76t-123.5 -25.5q-56 0 -97.5 18t-67 48.5t-41 78t-21 100t-5.5 121.5q0 179 56.5 270.5t192.5 91.5q68 0 114.5 -26.5t71.5 -78.5t35 -113.5t10 -145.5zM456 354q0 54 -3.5 95
t-13 80.5t-26 64t-44.5 40t-67 15.5q-87 0 -123 -75.5t-36 -217.5q0 -44 2 -77t7 -69.5t15.5 -62t26.5 -47t41.5 -32.5t58.5 -11q44 0 75 16.5t47.5 41t26 66.5t11.5 79t2 94z" />
    <glyph glyph-name="Ocircumflex" unicode="&#xd4;" 
d="M540 353q0 -87 -10.5 -149.5t-37.5 -113t-76.5 -76t-123.5 -25.5q-56 0 -97.5 18t-67 48.5t-41 78t-21 100t-5.5 121.5q0 179 56.5 270.5t192.5 91.5q68 0 114.5 -26.5t71.5 -78.5t35 -113.5t10 -145.5zM456 354q0 54 -3.5 95t-13 80.5t-26 64t-44.5 40t-67 15.5
q-87 0 -123 -75.5t-36 -217.5q0 -44 2 -77t7 -69.5t15.5 -62t26.5 -47t41.5 -32.5t58.5 -11q44 0 75 16.5t47.5 41t26 66.5t11.5 79t2 94zM488 812l-28 -51l-158 84l-159 -84l-31 50l189 109z" />
    <glyph glyph-name="Otilde" unicode="&#xd5;" 
d="M464 804q-12 -16 -39 -33t-62 -17q-24 0 -65.5 19t-61.5 19q-37 0 -70 -26l-30 48q41 44 104 44q27 0 66.5 -18t56.5 -18q32 0 71 27zM540 353q0 -87 -10.5 -149.5t-37.5 -113t-76.5 -76t-123.5 -25.5q-56 0 -97.5 18t-67 48.5t-41 78t-21 100t-5.5 121.5
q0 179 56.5 270.5t192.5 91.5q68 0 114.5 -26.5t71.5 -78.5t35 -113.5t10 -145.5zM456 354q0 54 -3.5 95t-13 80.5t-26 64t-44.5 40t-67 15.5q-87 0 -123 -75.5t-36 -217.5q0 -44 2 -77t7 -69.5t15.5 -62t26.5 -47t41.5 -32.5t58.5 -11q44 0 75 16.5t47.5 41t26 66.5
t11.5 79t2 94z" />
    <glyph glyph-name="Odieresis" unicode="&#xd6;" 
d="M463 807l-57 -57l-57 57l56 57zM249 807l-55 -57l-57 57l56 57zM540 353q0 -87 -10.5 -149.5t-37.5 -113t-76.5 -76t-123.5 -25.5q-56 0 -97.5 18t-67 48.5t-41 78t-21 100t-5.5 121.5q0 179 56.5 270.5t192.5 91.5q68 0 114.5 -26.5t71.5 -78.5t35 -113.5t10 -145.5z
M456 354q0 54 -3.5 95t-13 80.5t-26 64t-44.5 40t-67 15.5q-87 0 -123 -75.5t-36 -217.5q0 -44 2 -77t7 -69.5t15.5 -62t26.5 -47t41.5 -32.5t58.5 -11q44 0 75 16.5t47.5 41t26 66.5t11.5 79t2 94z" />
    <glyph glyph-name="multiply" unicode="&#xd7;" 
d="M482 224l-50 -49l-131 130l-132 -133l-51 50l133 133l-130 129l50 49l130 -129l129 129l50 -50l-130 -129z" />
    <glyph glyph-name="Oslash" unicode="&#xd8;" 
d="M540 353q0 -87 -10.5 -149.5t-37.5 -113t-76.5 -76t-123.5 -25.5q-107 0 -163 64l-41 -64h-55l69 106q-42 81 -42 260t56.5 270.5t192.5 91.5q100 0 156 -62l40 63h51l-65 -100q49 -87 49 -265zM143 356q0 -115 16 -172l257 396q-35 69 -114 69q-87 0 -123 -75.5
t-36 -217.5zM456 354q0 112 -22 174l-256 -399q34 -72 116 -72q44 0 75 16.5t47.5 41t26 66.5t11.5 79t2 94z" />
    <glyph glyph-name="Ugrave" unicode="&#xd9;" 
d="M374 749l-201 109l32 62l195 -117zM532 267q0 -82 -17.5 -138.5t-50.5 -86t-72 -41.5t-90 -12q-56 0 -95.5 11t-72.5 37.5t-49.5 77.5t-16.5 126v466h84v-460q0 -108 37.5 -147.5t112.5 -39.5q79 0 115 44t36 162v441h79v-440z" />
    <glyph glyph-name="Uacute" unicode="&#xda;" 
d="M446 858l-201 -109l-26 54l195 117zM532 267q0 -82 -17.5 -138.5t-50.5 -86t-72 -41.5t-90 -12q-56 0 -95.5 11t-72.5 37.5t-49.5 77.5t-16.5 126v466h84v-460q0 -108 37.5 -147.5t112.5 -39.5q79 0 115 44t36 162v441h79v-440z" />
    <glyph glyph-name="Ucircumflex" unicode="&#xdb;" 
d="M532 267q0 -82 -17.5 -138.5t-50.5 -86t-72 -41.5t-90 -12q-56 0 -95.5 11t-72.5 37.5t-49.5 77.5t-16.5 126v466h84v-460q0 -108 37.5 -147.5t112.5 -39.5q79 0 115 44t36 162v441h79v-440zM488 812l-28 -51l-158 84l-159 -84l-31 50l189 109z" />
    <glyph glyph-name="Udieresis" unicode="&#xdc;" 
d="M463 807l-57 -57l-57 57l56 57zM249 807l-55 -57l-57 57l56 57zM532 267q0 -82 -17.5 -138.5t-50.5 -86t-72 -41.5t-90 -12q-56 0 -95.5 11t-72.5 37.5t-49.5 77.5t-16.5 126v466h84v-460q0 -108 37.5 -147.5t112.5 -39.5q79 0 115 44t36 162v441h79v-440z" />
    <glyph glyph-name="Yacute" unicode="&#xdd;" 
d="M562 707l-228 -449v-258h-82v258l-213 449h88l130 -285l37 -99h3l40 99l139 285h86zM438 858l-201 -109l-26 54l195 117z" />
    <glyph glyph-name="Thorn" unicode="&#xde;" 
d="M554 363q0 -102 -67.5 -166.5t-204.5 -64.5h-89v-132h-84v707h84v-123h140q106 0 163.5 -57t57.5 -164zM467 358q0 82 -37.5 120.5t-119.5 38.5h-117v-316h95q179 0 179 157z" />
    <glyph glyph-name="germandbls" unicode="&#xdf;" 
d="M539 135q0 -77 -47 -110.5t-113 -33.5q-87 0 -140 20l14 65q88 -17 112 -17q100 0 100 69q0 27 -15 49t-38 35.5t-49.5 30.5t-49.5 34.5t-38 47.5t-15 68q0 30 16 58.5t35.5 49t35.5 51.5t16 64q0 82 -88 82q-65 0 -89.5 -34t-24.5 -101v-563h-77v564q0 201 190 201
q31 0 58.5 -7t53 -22.5t40.5 -46t15 -73.5q0 -34 -17 -68t-37 -56t-37 -48t-17 -47q0 -33 21 -58.5t51.5 -44t61 -38t51.5 -50.5t21 -71z" />
    <glyph glyph-name="agrave" unicode="&#xe0;" 
d="M529 53l-5 -64q-42 -2 -76 15.5t-40 55.5q-78 -71 -185 -71q-73 0 -112.5 40.5t-39.5 115.5q0 48 19.5 81.5t52.5 50.5t66 24t71 8l122 2v75q0 62 -31.5 82.5t-106.5 20.5q-52 0 -131 -24l-17 63q75 30 172 30q92 0 141.5 -33.5t49.5 -111.5v-307q0 -47 50 -53zM402 115
v141l-123 -5q-65 -3 -98 -30t-33 -68q0 -52 24 -74t71 -22q72 0 159 58zM380 669l-31 -51l-197 121l36 61z" />
    <glyph glyph-name="aacute" unicode="&#xe1;" 
d="M529 53l-5 -64q-42 -2 -76 15.5t-40 55.5q-78 -71 -185 -71q-73 0 -112.5 40.5t-39.5 115.5q0 48 19.5 81.5t52.5 50.5t66 24t71 8l122 2v75q0 62 -31.5 82.5t-106.5 20.5q-52 0 -131 -24l-17 63q75 30 172 30q92 0 141.5 -33.5t49.5 -111.5v-307q0 -47 50 -53zM402 115
v141l-123 -5q-65 -3 -98 -30t-33 -68q0 -52 24 -74t71 -22q72 0 159 58zM431 739l-197 -121l-31 52l190 130z" />
    <glyph glyph-name="acircumflex" unicode="&#xe2;" 
d="M529 53l-5 -64q-42 -2 -76 15.5t-40 55.5q-78 -71 -185 -71q-73 0 -112.5 40.5t-39.5 115.5q0 48 19.5 81.5t52.5 50.5t66 24t71 8l122 2v75q0 62 -31.5 82.5t-106.5 20.5q-52 0 -131 -24l-17 63q75 30 172 30q92 0 141.5 -33.5t49.5 -111.5v-307q0 -47 50 -53zM402 115
v141l-123 -5q-65 -3 -98 -30t-33 -68q0 -52 24 -74t71 -22q72 0 159 58zM491 697l-31 -52l-158 86l-159 -86l-34 52l193 114z" />
    <glyph glyph-name="atilde" unicode="&#xe3;" 
d="M529 53l-5 -64q-42 -2 -76 15.5t-40 55.5q-78 -71 -185 -71q-73 0 -112.5 40.5t-39.5 115.5q0 48 19.5 81.5t52.5 50.5t66 24t71 8l122 2v75q0 62 -31.5 82.5t-106.5 20.5q-52 0 -131 -24l-17 63q75 30 172 30q92 0 141.5 -33.5t49.5 -111.5v-307q0 -47 50 -53zM402 115
v141l-123 -5q-65 -3 -98 -30t-33 -68q0 -52 24 -74t71 -22q72 0 159 58zM466 717q-11 -16 -38 -33t-63 -17q-24 0 -65.5 18.5t-61.5 18.5q-36 0 -70 -25l-30 47q42 45 104 45q27 0 66.5 -18.5t56.5 -18.5q35 0 71 28z" />
    <glyph glyph-name="adieresis" unicode="&#xe4;" 
d="M529 53l-5 -64q-42 -2 -76 15.5t-40 55.5q-78 -71 -185 -71q-73 0 -112.5 40.5t-39.5 115.5q0 48 19.5 81.5t52.5 50.5t66 24t71 8l122 2v75q0 62 -31.5 82.5t-106.5 20.5q-52 0 -131 -24l-17 63q75 30 172 30q92 0 141.5 -33.5t49.5 -111.5v-307q0 -47 50 -53zM402 115
v141l-123 -5q-65 -3 -98 -30t-33 -68q0 -52 24 -74t71 -22q72 0 159 58zM462 716l-56 -57l-57 57l56 56zM250 716l-56 -57l-56 57l55 56z" />
    <glyph glyph-name="aring" unicode="&#xe5;" 
d="M529 53l-5 -64q-42 -2 -76 15.5t-40 55.5q-78 -71 -185 -71q-73 0 -112.5 40.5t-39.5 115.5q0 48 19.5 81.5t52.5 50.5t66 24t71 8l122 2v75q0 62 -31.5 82.5t-106.5 20.5q-52 0 -131 -24l-17 63q75 30 172 30q92 0 141.5 -33.5t49.5 -111.5v-307q0 -47 50 -53zM402 115
v141l-123 -5q-65 -3 -98 -30t-33 -68q0 -52 24 -74t71 -22q72 0 159 58zM413 734q0 -50 -33 -79t-84 -29t-86 26.5t-35 79.5q0 51 35 80.5t83 29.5q46 0 83 -26.5t37 -81.5zM359 733q0 28 -19 45.5t-46 17.5q-30 0 -47.5 -16.5t-17.5 -44.5t18 -46t47 -18q30 0 47.5 17
t17.5 45z" />
    <glyph glyph-name="ae" unicode="&#xe6;" 
d="M551 7q-43 -17 -115 -17q-122 0 -149 78q-46 -78 -121 -78q-121 0 -121 155t170 165l47 2v77q0 66 -13 85.5t-54 19.5q-21 0 -42.5 -4t-41.5 -10t-26 -7l-15 56q60 30 149 30q70 0 91 -56q26 56 111 56q75 0 101.5 -58.5t26.5 -190.5v-41l-217 -13q2 -128 24 -163
t101 -35q38 0 80 11zM481 326q1 89 -12.5 130t-58.5 41q-38 0 -57 -42.5t-19 -139.5zM270 115q-10 37 -10 139l-43 -4q-60 -5 -81.5 -29t-21.5 -67q0 -57 15.5 -78.5t49.5 -21.5q26 0 45.5 15t45.5 46z" />
    <glyph glyph-name="ccedilla" unicode="&#xe7;" 
d="M521 15q-87 -26 -161 -26q-146 0 -211.5 67t-65.5 216q0 133 69 209.5t186 76.5q105 0 182 -45l-28 -60q-76 39 -154 39q-79 0 -126.5 -57t-47.5 -160q0 -115 45 -167t160 -52q62 0 138 21zM391 -117q2 -81 -106 -125l-25 42q57 34 57 82q0 27 -23 66h78q19 -30 19 -65z
" />
    <glyph glyph-name="egrave" unicode="&#xe8;" 
d="M523 254h-366q1 -62 17 -102.5t45.5 -60.5t61.5 -27t77 -7q61 0 138 20l13 -64q-75 -25 -171 -25q-126 0 -193.5 63t-67.5 212q0 154 67 224.5t179 70.5q200 0 200 -275v-29zM440 314q0 87 -33.5 135.5t-95.5 48.5t-104 -47t-49 -137h282zM392 669l-31 -51l-197 121
l36 61z" />
    <glyph glyph-name="eacute" unicode="&#xe9;" 
d="M459 739l-197 -121l-31 52l190 130zM523 254h-366q1 -62 17 -102.5t45.5 -60.5t61.5 -27t77 -7q61 0 138 20l13 -64q-75 -25 -171 -25q-126 0 -193.5 63t-67.5 212q0 154 67 224.5t179 70.5q200 0 200 -275v-29zM440 314q0 87 -33.5 135.5t-95.5 48.5t-104 -47t-49 -137
h282z" />
    <glyph glyph-name="ecircumflex" unicode="&#xea;" 
d="M506 697l-31 -52l-158 86l-159 -86l-34 52l193 114zM523 254h-366q1 -62 17 -102.5t45.5 -60.5t61.5 -27t77 -7q61 0 138 20l13 -64q-75 -25 -171 -25q-126 0 -193.5 63t-67.5 212q0 154 67 224.5t179 70.5q200 0 200 -275v-29zM440 314q0 87 -33.5 135.5t-95.5 48.5
t-104 -47t-49 -137h282z" />
    <glyph glyph-name="edieresis" unicode="&#xeb;" 
d="M471 716l-56 -57l-57 57l56 56zM259 716l-56 -57l-56 57l55 56zM523 254h-366q1 -62 17 -102.5t45.5 -60.5t61.5 -27t77 -7q61 0 138 20l13 -64q-75 -25 -171 -25q-126 0 -193.5 63t-67.5 212q0 154 67 224.5t179 70.5q200 0 200 -275v-29zM440 314q0 87 -33.5 135.5
t-95.5 48.5t-104 -47t-49 -137h282z" />
    <glyph glyph-name="igrave" unicode="&#xec;" 
d="M559 0h-472v68h197v414h-179v64h258v-478h196v-68zM376 669l-31 -51l-197 121l36 61z" />
    <glyph glyph-name="iacute" unicode="&#xed;" 
d="M464 739l-197 -121l-31 52l190 130zM559 0h-472v68h197v414h-179v64h258v-478h196v-68z" />
    <glyph glyph-name="icircumflex" unicode="&#xee;" 
d="M491 697l-31 -52l-158 86l-159 -86l-34 52l193 114zM559 0h-472v68h197v414h-179v64h258v-478h196v-68z" />
    <glyph glyph-name="idieresis" unicode="&#xef;" 
d="M462 716l-56 -57l-57 57l56 56zM250 716l-56 -57l-56 57l55 56zM559 0h-472v68h197v414h-179v64h258v-478h196v-68z" />
    <glyph glyph-name="eth" unicode="&#xf0;" 
d="M512 0h-78v55q-25 -25 -65 -44t-80 -19q-218 0 -218 279q0 138 70 213t181 75q64 0 112 -14v74h-150v59h150v76h78v-76h72v-59h-72v-619zM434 118v360q-52 18 -112 18q-89 0 -130 -65.5t-41 -162.5q0 -209 146 -209q57 0 137 59z" />
    <glyph glyph-name="ntilde" unicode="&#xf1;" 
d="M512 0h-76v337q0 78 -21.5 115t-87.5 37q-61 0 -162 -66v-423h-79v546h78v-62q27 21 45 33t58 26.5t82 14.5q43 0 74 -12t47.5 -30t26.5 -46.5t12.5 -53.5t2.5 -59v-357zM465 717q-11 -16 -38 -33t-63 -17q-24 0 -65.5 18.5t-61.5 18.5q-36 0 -70 -25l-30 47
q42 45 104 45q27 0 66.5 -18.5t56.5 -18.5q35 0 71 28z" />
    <glyph glyph-name="ograve" unicode="&#xf2;" 
d="M538 273q0 -140 -64.5 -212t-174.5 -72q-114 0 -175.5 72t-61.5 206q0 139 65.5 215t176.5 76q234 0 234 -285zM457 273q0 221 -155 221q-59 0 -96.5 -34.5t-50.5 -81.5t-13 -106q0 -218 161 -218q154 0 154 219zM387 669l-31 -51l-197 121l36 61z" />
    <glyph glyph-name="oacute" unicode="&#xf3;" 
d="M453 739l-197 -121l-31 52l190 130zM538 273q0 -140 -64.5 -212t-174.5 -72q-114 0 -175.5 72t-61.5 206q0 139 65.5 215t176.5 76q234 0 234 -285zM457 273q0 221 -155 221q-59 0 -96.5 -34.5t-50.5 -81.5t-13 -106q0 -218 161 -218q154 0 154 219z" />
    <glyph glyph-name="ocircumflex" unicode="&#xf4;" 
d="M491 697l-31 -52l-158 86l-159 -86l-34 52l193 114zM538 273q0 -140 -64.5 -212t-174.5 -72q-114 0 -175.5 72t-61.5 206q0 139 65.5 215t176.5 76q234 0 234 -285zM457 273q0 221 -155 221q-59 0 -96.5 -34.5t-50.5 -81.5t-13 -106q0 -218 161 -218q154 0 154 219z" />
    <glyph glyph-name="otilde" unicode="&#xf5;" 
d="M538 273q0 -140 -64.5 -212t-174.5 -72q-114 0 -175.5 72t-61.5 206q0 139 65.5 215t176.5 76q234 0 234 -285zM457 273q0 221 -155 221q-59 0 -96.5 -34.5t-50.5 -81.5t-13 -106q0 -218 161 -218q154 0 154 219zM464 717q-11 -16 -38 -33t-63 -17q-24 0 -65.5 18.5
t-61.5 18.5q-36 0 -70 -25l-30 47q42 45 104 45q27 0 66.5 -18.5t56.5 -18.5q35 0 71 28z" />
    <glyph glyph-name="odieresis" unicode="&#xf6;" 
d="M462 716l-56 -57l-57 57l56 56zM250 716l-56 -57l-56 57l55 56zM538 273q0 -140 -64.5 -212t-174.5 -72q-114 0 -175.5 72t-61.5 206q0 139 65.5 215t176.5 76q234 0 234 -285zM457 273q0 221 -155 221q-59 0 -96.5 -34.5t-50.5 -81.5t-13 -106q0 -218 161 -218
q154 0 154 219z" />
    <glyph glyph-name="divide" unicode="&#xf7;" 
d="M340 469h-80v79h80v-79zM495 318h-390v71h390v-71zM340 161h-80v78h80v-78z" />
    <glyph glyph-name="oslash" unicode="&#xf8;" 
d="M562 558l-71 -86q47 -71 47 -199q0 -140 -64.5 -212t-174.5 -72q-101 0 -160 55l-45 -55h-55l72 87q-49 72 -49 191q0 139 65.5 215t176.5 76q103 0 161 -55l46 55h51zM142 272q0 -78 25 -129l247 298q-38 53 -112 53q-59 0 -96.5 -34.5t-50.5 -81.5t-13 -106zM457 273
q0 77 -24 128l-245 -298q40 -49 115 -49q154 0 154 219z" />
    <glyph glyph-name="ugrave" unicode="&#xf9;" 
d="M511 0h-76v64q-2 -1 -14 -9.5t-16.5 -11.5t-17 -11t-19.5 -11t-20 -9.5t-23.5 -9.5t-23.5 -6.5t-27 -5t-28 -1.5q-42 0 -72 13t-46 32.5t-25.5 49.5t-11.5 54.5t-2 58.5v349h78v-333q0 -31 1 -49.5t6.5 -41t16 -34t30 -20t47.5 -8.5q60 0 167 67v419h76v-546zM392 669
l-31 -51l-197 121l36 61z" />
    <glyph glyph-name="uacute" unicode="&#xfa;" 
d="M460 739l-197 -121l-31 52l190 130zM511 0h-76v64q-2 -1 -14 -9.5t-16.5 -11.5t-17 -11t-19.5 -11t-20 -9.5t-23.5 -9.5t-23.5 -6.5t-27 -5t-28 -1.5q-42 0 -72 13t-46 32.5t-25.5 49.5t-11.5 54.5t-2 58.5v349h78v-333q0 -31 1 -49.5t6.5 -41t16 -34t30 -20t47.5 -8.5
q60 0 167 67v419h76v-546z" />
    <glyph glyph-name="ucircumflex" unicode="&#xfb;" 
d="M491 697l-31 -52l-158 86l-159 -86l-34 52l193 114zM511 0h-76v64q-2 -1 -14 -9.5t-16.5 -11.5t-17 -11t-19.5 -11t-20 -9.5t-23.5 -9.5t-23.5 -6.5t-27 -5t-28 -1.5q-42 0 -72 13t-46 32.5t-25.5 49.5t-11.5 54.5t-2 58.5v349h78v-333q0 -31 1 -49.5t6.5 -41t16 -34
t30 -20t47.5 -8.5q60 0 167 67v419h76v-546z" />
    <glyph glyph-name="udieresis" unicode="&#xfc;" 
d="M462 716l-56 -57l-57 57l56 56zM250 716l-56 -57l-56 57l55 56zM511 0h-76v64q-2 -1 -14 -9.5t-16.5 -11.5t-17 -11t-19.5 -11t-20 -9.5t-23.5 -9.5t-23.5 -6.5t-27 -5t-28 -1.5q-42 0 -72 13t-46 32.5t-25.5 49.5t-11.5 54.5t-2 58.5v349h78v-333q0 -31 1 -49.5t6.5 -41
t16 -34t30 -20t47.5 -8.5q60 0 167 67v419h76v-546z" />
    <glyph glyph-name="yacute" unicode="&#xfd;" 
d="M563 546l-306 -766h-74l87 220h-35l-197 546h83l170 -491h3l190 491h79zM460 739l-197 -121l-31 52l190 130z" />
    <glyph glyph-name="thorn" unicode="&#xfe;" 
d="M542 289q0 -83 -19.5 -142.5t-55.5 -92t-79.5 -47.5t-97.5 -15q-66 0 -107 6v-218h-79v974h78v-253q75 54 147 54q213 0 213 -266zM461 269h1q0 48 -5.5 83.5t-20.5 68t-45.5 49.5t-76.5 17q-35 0 -73.5 -17.5t-58.5 -32.5v-371q54 -9 111 -9q85 0 126.5 58t41.5 154z
" />
    <glyph glyph-name="ydieresis" unicode="&#xff;" 
d="M563 546l-306 -766h-74l87 220h-35l-197 546h83l170 -491h3l190 491h79zM462 716l-56 -57l-57 57l56 56zM250 716l-56 -57l-56 57l55 56z" />
    <glyph glyph-name="Amacron" unicode="&#x100;" 
d="M556 0h-88l-52 215h-235l-62 -215h-82l209 707h129zM401 281l-68 276l-23 109h-3l-27 -107l-82 -278h203zM453 781h-292v66h292v-66z" />
    <glyph glyph-name="amacron" unicode="&#x101;" 
d="M529 53l-5 -64q-42 -2 -76 15.5t-40 55.5q-78 -71 -185 -71q-73 0 -112.5 40.5t-39.5 115.5q0 48 19.5 81.5t52.5 50.5t66 24t71 8l122 2v75q0 62 -31.5 82.5t-106.5 20.5q-52 0 -131 -24l-17 63q75 30 172 30q92 0 141.5 -33.5t49.5 -111.5v-307q0 -47 50 -53zM402 115
v141l-123 -5q-65 -3 -98 -30t-33 -68q0 -52 24 -74t71 -22q72 0 159 58zM445 692h-292v66h292v-66z" />
    <glyph glyph-name="Abreve" unicode="&#x102;" 
d="M556 0h-88l-52 215h-235l-62 -215h-82l209 707h129zM401 281l-68 276l-23 109h-3l-27 -107l-82 -278h203zM305 758q-106 0 -161 84l42 39q45 -57 122 -57q76 0 121 56l41 -38q-7 -13 -21.5 -29t-54 -35.5t-89.5 -19.5z" />
    <glyph glyph-name="abreve" unicode="&#x103;" 
d="M529 53l-5 -64q-42 -2 -76 15.5t-40 55.5q-78 -71 -185 -71q-73 0 -112.5 40.5t-39.5 115.5q0 48 19.5 81.5t52.5 50.5t66 24t71 8l122 2v75q0 62 -31.5 82.5t-106.5 20.5q-52 0 -131 -24l-17 63q75 30 172 30q92 0 141.5 -33.5t49.5 -111.5v-307q0 -47 50 -53zM402 115
v141l-123 -5q-65 -3 -98 -30t-33 -68q0 -52 24 -74t71 -22q72 0 159 58zM299 660q-102 0 -159 86l41 42q51 -59 119 -59t117 59l41 -43q-24 -37 -66.5 -61t-92.5 -24z" />
    <glyph glyph-name="Aogonek" unicode="&#x104;" 
d="M570 -215q-32 -20 -86 -20q-114 0 -114 99q0 39 28.5 75t69.5 58l-52 218h-235l-62 -215h-83l210 707h129l181 -713q-45 -21 -78.5 -52t-33.5 -65q0 -49 61 -49q21 0 48 9zM401 281l-68 276l-23 109h-3l-28 -107l-81 -278h203z" />
    <glyph glyph-name="aogonek" unicode="&#x105;" 
d="M555 -215q-26 -16 -83 -16q-119 0 -119 104q0 70 99 132q-38 18 -44 58q-50 -41 -91 -56q-43 -15 -92 -15q-73 0 -113.5 40t-40.5 114q0 47 19.5 81t52.5 50.5t66 24t71 7.5l122 3v75q0 62 -31.5 82.5t-108.5 20.5q-34 0 -130 -24l-16 63q75 30 168 30q92 0 143.5 -32.5
t51.5 -112.5v-305q0 -49 50 -53l-5 -64q-39 -22 -68 -52.5t-29 -56.5q0 -51 66 -51q22 0 43 8zM402 118v139l-123 -5q-64 -3 -97.5 -29.5t-33.5 -68.5q0 -52 23.5 -73.5t71.5 -21.5q58 0 159 59z" />
    <glyph glyph-name="Cacute" unicode="&#x106;" 
d="M535 668l-31 -59q-66 38 -133 38q-106 0 -147.5 -65.5t-41.5 -222.5q0 -166 40.5 -233t159.5 -67q59 0 132 23l21 -63q-1 0 -13.5 -5t-19 -7t-22.5 -6t-30.5 -6t-37 -4t-47.5 -2q-68 0 -116.5 18t-77.5 47.5t-46 77.5t-22.5 98t-5.5 119q0 86 12 148.5t41 114.5
t83.5 78.5t134.5 26.5q96 0 167 -49zM508 858l-201 -109l-26 54l195 117z" />
    <glyph glyph-name="cacute" unicode="&#x107;" 
d="M478 739l-197 -121l-31 52l190 130zM521 15q-87 -26 -161 -26q-146 0 -211.5 67t-65.5 216q0 133 69 209.5t186 76.5q105 0 182 -45l-28 -60q-76 39 -154 39q-79 0 -126.5 -57t-47.5 -160q0 -115 45 -167t160 -52q62 0 138 21z" />
    <glyph glyph-name="Ccircumflex" unicode="&#x108;" 
d="M535 668l-31 -59q-66 38 -133 38q-106 0 -147.5 -65.5t-41.5 -222.5q0 -166 40.5 -233t159.5 -67q59 0 132 23l21 -63q-1 0 -13.5 -5t-19 -7t-22.5 -6t-30.5 -6t-37 -4t-47.5 -2q-68 0 -116.5 18t-77.5 47.5t-46 77.5t-22.5 98t-5.5 119q0 86 12 148.5t41 114.5
t83.5 78.5t134.5 26.5q96 0 167 -49zM540 812l-28 -51l-158 84l-159 -84l-31 50l189 109z" />
    <glyph glyph-name="ccircumflex" unicode="&#x109;" 
d="M537 697l-31 -52l-158 86l-159 -86l-34 52l193 114zM521 15q-87 -26 -161 -26q-146 0 -211.5 67t-65.5 216q0 133 69 209.5t186 76.5q105 0 182 -45l-28 -60q-76 39 -154 39q-79 0 -126.5 -57t-47.5 -160q0 -115 45 -167t160 -52q62 0 138 21z" />
    <glyph glyph-name="Cdotaccent" unicode="&#x10a;" 
d="M414 843l-63 -64l-61 64l61 62zM535 668l-31 -59q-66 38 -133 38q-106 0 -147.5 -65.5t-41.5 -222.5q0 -166 40.5 -233t159.5 -67q59 0 132 23l21 -63q-1 0 -13.5 -5t-19 -7t-22.5 -6t-30.5 -6t-37 -4t-47.5 -2q-68 0 -116.5 18t-77.5 47.5t-46 77.5t-22.5 98t-5.5 119
q0 86 12 148.5t41 114.5t83.5 78.5t134.5 26.5q96 0 167 -49z" />
    <glyph glyph-name="cdotaccent" unicode="&#x10b;" 
d="M521 15q-87 -26 -161 -26q-146 0 -211.5 67t-65.5 216q0 133 69 209.5t186 76.5q105 0 182 -45l-28 -60q-76 39 -154 39q-79 0 -126.5 -57t-47.5 -160q0 -115 45 -167t160 -52q62 0 138 21zM407 724l-66 -65l-63 65l63 64z" />
    <glyph glyph-name="Ccaron" unicode="&#x10c;" 
d="M535 668l-31 -59q-66 38 -133 38q-106 0 -147.5 -65.5t-41.5 -222.5q0 -166 40.5 -233t159.5 -67q59 0 132 23l21 -63q-1 0 -13.5 -5t-19 -7t-22.5 -6t-30.5 -6t-37 -4t-47.5 -2q-68 0 -116.5 18t-77.5 47.5t-46 77.5t-22.5 98t-5.5 119q0 86 12 148.5t41 114.5
t83.5 78.5t134.5 26.5q96 0 167 -49zM534 820l-188 -82l-181 82l27 54l154 -65l160 65z" />
    <glyph glyph-name="ccaron" unicode="&#x10d;" 
d="M531 760l-192 -115l-190 115l31 50l158 -85l159 85zM521 15q-87 -26 -161 -26q-146 0 -211.5 67t-65.5 216q0 133 69 209.5t186 76.5q105 0 182 -45l-28 -60q-76 39 -154 39q-79 0 -126.5 -57t-47.5 -160q0 -115 45 -167t160 -52q62 0 138 21z" />
    <glyph glyph-name="Dcaron" unicode="&#x10e;" 
d="M472 820l-188 -82l-181 82l27 54l154 -65l160 65zM544 356q0 -191 -65 -273.5t-231 -82.5h-152v707h146q161 0 231.5 -86.5t70.5 -264.5zM462 345q0 155 -48.5 224.5t-172.5 69.5h-63v-571h81q118 0 160.5 64t42.5 213z" />
    <glyph glyph-name="dcaron" unicode="&#x10f;" 
d="M636 756l-29 -197h-58l16 197h71zM504 0h-79v53q-25 -25 -65 -43.5t-80 -18.5q-219 0 -219 280q0 138 70.5 212.5t181.5 74.5q67 0 112 -13v209h79v-754zM425 118v360q-45 17 -112 17q-89 0 -130.5 -65t-41.5 -162q0 -106 39 -157.5t109 -51.5q60 0 136 59z" />
    <glyph glyph-name="Dcroat" unicode="&#x110;" 
d="M554 356q0 -191 -65 -273.5t-231 -82.5h-151v323h-65v60h65v324h145q161 0 231.5 -86.5t70.5 -264.5zM473 345q0 155 -49 224.5t-173 69.5h-63v-256h119v-60h-119v-255h81q120 0 162 65t42 212z" />
    <glyph glyph-name="dcroat" unicode="&#x111;" 
d="M512 0h-78v55q-25 -25 -65 -44t-80 -19q-218 0 -218 279q0 138 70 213t181 75q64 0 112 -14v74h-150v59h150v76h78v-76h72v-59h-72v-619zM434 118v360q-52 18 -112 18q-89 0 -130 -65.5t-41 -162.5q0 -209 146 -209q57 0 137 59z" />
    <glyph glyph-name="Emacron" unicode="&#x112;" 
d="M460 781h-292v66h292v-66zM531 0h-419v707h401v-67h-318v-251h298v-68h-298v-253h336v-68z" />
    <glyph glyph-name="emacron" unicode="&#x113;" 
d="M523 254h-366q1 -62 17 -102.5t45.5 -60.5t61.5 -27t77 -7q61 0 138 20l13 -64q-75 -25 -171 -25q-126 0 -193.5 63t-67.5 212q0 154 67 224.5t179 70.5q200 0 200 -275v-29zM440 314q0 87 -33.5 135.5t-95.5 48.5t-104 -47t-49 -137h282zM463 692h-292v66h292v-66z" />
    <glyph glyph-name="Ebreve" unicode="&#x114;" 
d="M313 758q-106 0 -161 84l42 39q45 -57 122 -57q76 0 121 56l41 -38q-7 -13 -21.5 -29t-54 -35.5t-89.5 -19.5zM531 0h-419v707h401v-67h-318v-251h298v-68h-298v-253h336v-68z" />
    <glyph glyph-name="ebreve" unicode="&#x115;" 
d="M523 254h-366q1 -62 17 -102.5t45.5 -60.5t61.5 -27t77 -7q61 0 138 20l13 -64q-75 -25 -171 -25q-126 0 -193.5 63t-67.5 212q0 154 67 224.5t179 70.5q200 0 200 -275v-29zM440 314q0 87 -33.5 135.5t-95.5 48.5t-104 -47t-49 -137h282zM307 660q-102 0 -159 86l41 42
q51 -59 119 -59t117 59l41 -43q-24 -37 -66.5 -61t-92.5 -24z" />
    <glyph glyph-name="Edotaccent" unicode="&#x116;" 
d="M381 843l-63 -64l-61 64l61 62zM531 0h-419v707h401v-67h-318v-251h298v-68h-298v-253h336v-68z" />
    <glyph glyph-name="edotaccent" unicode="&#x117;" 
d="M523 254h-366q1 -62 17 -102.5t45.5 -60.5t61.5 -27t77 -7q61 0 138 20l13 -64q-75 -25 -171 -25q-126 0 -193.5 63t-67.5 212q0 154 67 224.5t179 70.5q200 0 200 -275v-29zM440 314q0 87 -33.5 135.5t-95.5 48.5t-104 -47t-49 -137h282zM373 724l-66 -65l-63 65l63 64z
" />
    <glyph glyph-name="Eogonek" unicode="&#x118;" 
d="M548 -215q-29 -18 -82 -18q-63 0 -91 29.5t-28 76.5q0 68 91 127h-326v707h401v-67h-318v-251h298v-68h-298v-253h336v-68q-41 -22 -75.5 -55t-34.5 -62q0 -53 66 -53q16 0 43 10z" />
    <glyph glyph-name="eogonek" unicode="&#x119;" 
d="M511 -215q-26 -16 -83 -16q-62 0 -90 28.5t-28 75.5q0 60 74 120q-28 -2 -46 -2q-126 0 -193.5 62t-67.5 210q0 156 66.5 226t179.5 70q200 0 200 -276v-28h-366q1 -62 17 -102t45.5 -59.5t61 -26t77.5 -6.5q72 0 138 17l13 -64q-42 -20 -83.5 -58t-41.5 -73
q0 -51 65 -51q22 0 43 8zM440 315q0 86 -33.5 134.5t-95.5 48.5q-63 0 -104.5 -46.5t-48.5 -136.5h282z" />
    <glyph glyph-name="Ecaron" unicode="&#x11a;" 
d="M498 820l-188 -82l-181 82l27 54l154 -65l160 65zM531 0h-419v707h401v-67h-318v-251h298v-68h-298v-253h336v-68z" />
    <glyph glyph-name="ecaron" unicode="&#x11b;" 
d="M508 760l-192 -115l-190 115l31 50l158 -85l159 85zM523 254h-366q1 -62 17 -102.5t45.5 -60.5t61.5 -27t77 -7q61 0 138 20l13 -64q-75 -25 -171 -25q-126 0 -193.5 63t-67.5 212q0 154 67 224.5t179 70.5q200 0 200 -275v-29zM440 314q0 87 -33.5 135.5t-95.5 48.5
t-104 -47t-49 -137h282z" />
    <glyph glyph-name="Gcircumflex" unicode="&#x11c;" 
d="M516 668l-31 -60q-74 37 -137 37q-104 0 -144.5 -65t-40.5 -221q0 -67 4.5 -112.5t17 -83.5t34.5 -59t56.5 -32.5t84.5 -11.5q32 0 74 10v238h81v-288q-77 -31 -173 -31q-67 0 -115.5 18t-77 47.5t-45 77.5t-22 98t-5.5 119q0 85 12 147.5t40.5 114.5t83 79t133.5 27
q95 0 170 -49zM518 812l-28 -51l-158 84l-159 -84l-31 50l189 109z" />
    <glyph glyph-name="gcircumflex" unicode="&#x11d;" 
d="M523 697l-31 -52l-158 86l-159 -86l-34 52l193 114zM514 -34q0 -96 -61.5 -145t-162.5 -49q-97 0 -174 20l14 68q83 -18 142 -18q81 0 123 28t42 112v58q-51 -49 -132 -49q-37 0 -66.5 5.5t-61.5 23t-53 47t-35 82t-14 122.5q0 140 70.5 213.5t182.5 73.5q70 0 186 -20
v-572zM435 106l1 374q-60 12 -108 12q-175 0 -175 -224q0 -113 39 -162t123 -49q62 0 120 49z" />
    <glyph glyph-name="Gbreve" unicode="&#x11e;" 
d="M330 758q-106 0 -161 84l42 39q45 -57 122 -57q75 0 121 56l41 -38q-7 -13 -21.5 -29t-54 -35.5t-89.5 -19.5zM516 668l-31 -60q-74 37 -137 37q-104 0 -144.5 -65t-40.5 -221q0 -67 4.5 -112.5t17 -83.5t34.5 -59t56.5 -32.5t84.5 -11.5q32 0 74 10v238h81v-288
q-77 -31 -173 -31q-67 0 -115.5 18t-77 47.5t-45 77.5t-22 98t-5.5 119q0 85 12 147.5t40.5 114.5t83 79t133.5 27q95 0 170 -49z" />
    <glyph glyph-name="gbreve" unicode="&#x11f;" 
d="M514 -34q0 -96 -61.5 -145t-162.5 -49q-97 0 -174 20l14 68q83 -18 142 -18q81 0 123 28t42 112v58q-51 -49 -132 -49q-37 0 -66.5 5.5t-61.5 23t-53 47t-35 82t-14 122.5q0 140 70.5 213.5t182.5 73.5q70 0 186 -20v-572zM435 106l1 374q-60 12 -108 12
q-175 0 -175 -224q0 -113 39 -162t123 -49q62 0 120 49zM335 660q-102 0 -159 86l41 42q51 -59 119 -59t117 59l41 -43q-24 -37 -66.5 -61t-92.5 -24z" />
    <glyph glyph-name="Gdotaccent" unicode="&#x120;" 
d="M394 843l-63 -64l-61 64l61 62zM516 668l-31 -60q-74 37 -137 37q-104 0 -144.5 -65t-40.5 -221q0 -67 4.5 -112.5t17 -83.5t34.5 -59t56.5 -32.5t84.5 -11.5q32 0 74 10v238h81v-288q-77 -31 -173 -31q-67 0 -115.5 18t-77 47.5t-45 77.5t-22 98t-5.5 119q0 85 12 147.5
t40.5 114.5t83 79t133.5 27q95 0 170 -49z" />
    <glyph glyph-name="gdotaccent" unicode="&#x121;" 
d="M514 -34q0 -96 -61.5 -145t-162.5 -49q-97 0 -174 20l14 68q83 -18 142 -18q81 0 123 28t42 112v58q-51 -49 -132 -49q-37 0 -66.5 5.5t-61.5 23t-53 47t-35 82t-14 122.5q0 140 70.5 213.5t182.5 73.5q70 0 186 -20v-572zM435 106l1 374q-60 12 -108 12
q-175 0 -175 -224q0 -113 39 -162t123 -49q62 0 120 49zM391 724l-66 -65l-63 65l63 64z" />
    <glyph glyph-name="Gcommaaccent" unicode="&#x122;" 
d="M364 -58l-28 -197h-58l16 197h70zM516 668l-31 -60q-74 37 -137 37q-104 0 -144.5 -65t-40.5 -221q0 -67 4.5 -112.5t17 -83.5t34.5 -59t56.5 -32.5t84.5 -11.5q32 0 74 10v238h81v-288q-77 -31 -173 -31q-67 0 -115.5 18t-77 47.5t-45 77.5t-22 98t-5.5 119
q0 85 12 147.5t40.5 114.5t83 79t133.5 27q95 0 170 -49z" />
    <glyph glyph-name="gcommaaccent" unicode="&#x123;" 
d="M298 625l28 197h58l-16 -197h-70zM514 -34q0 -96 -61.5 -145t-162.5 -49q-97 0 -174 20l14 68q83 -18 142 -18q81 0 123 28t42 112v58q-51 -49 -132 -49q-37 0 -66.5 5.5t-61.5 23t-53 47t-35 82t-14 122.5q0 140 70.5 213.5t182.5 73.5q70 0 186 -20v-572zM435 106
l1 374q-60 12 -108 12q-175 0 -175 -224q0 -113 39 -162t123 -49q62 0 120 49z" />
    <glyph glyph-name="Hcircumflex" unicode="&#x124;" 
d="M530 0h-83v321h-294v-321h-83v707h83v-318h294v318h83v-707zM488 812l-28 -51l-158 84l-159 -84l-31 50l189 109z" />
    <glyph glyph-name="hcircumflex" unicode="&#x125;" 
d="M320 841l-31 -52l-158 86l-159 -86l-34 52l193 114zM512 0h-75v337q0 79 -21 115.5t-88 36.5q-61 0 -162 -66v-423h-79v754h79v-270q92 74 185 74q44 0 75 -12.5t47 -30.5t25.5 -47.5t11.5 -53t2 -57.5v-357z" />
    <glyph glyph-name="Hbar" unicode="&#x126;" 
d="M530 0h-83v321h-294v-321h-83v511h-64v58h64v138h83v-138h294v138h83v-138h64v-58h-64v-511zM153 389h294v122h-294v-122z" />
    <glyph glyph-name="hbar" unicode="&#x127;" 
d="M316 619h-150v-135q20 16 32 24.5t37 22.5t53 21t60 7q46 0 78.5 -13.5t49 -31.5t25 -50t10 -53.5t1.5 -58.5v-352h-75v337q0 81 -20.5 116.5t-88.5 35.5q-61 0 -162 -66v-423h-79v619h-71v59h71v76h79v-76h150v-59z" />
    <glyph glyph-name="Itilde" unicode="&#x128;" 
d="M536 0h-472v68h196v572h-196v67h472v-67h-194v-572h194v-68zM464 804q-12 -16 -39 -33t-62 -17q-24 0 -65.5 19t-61.5 19q-37 0 -70 -26l-30 48q41 44 104 44q27 0 66.5 -18t56.5 -18q32 0 71 27z" />
    <glyph glyph-name="itilde" unicode="&#x129;" 
d="M559 0h-472v68h197v414h-179v64h258v-478h196v-68zM463 717q-11 -16 -38 -33t-63 -17q-24 0 -65.5 18.5t-61.5 18.5q-36 0 -70 -25l-30 47q42 45 104 45q27 0 66.5 -18.5t56.5 -18.5q35 0 71 28z" />
    <glyph glyph-name="Imacron" unicode="&#x12a;" 
d="M536 0h-472v68h196v572h-196v67h472v-67h-194v-572h194v-68zM446 781h-292v66h292v-66z" />
    <glyph glyph-name="imacron" unicode="&#x12b;" 
d="M559 0h-472v68h197v414h-179v64h258v-478h196v-68zM446 692h-292v66h292v-66z" />
    <glyph glyph-name="Ibreve" unicode="&#x12c;" 
d="M536 0h-472v68h196v572h-196v67h472v-67h-194v-572h194v-68zM298 758q-106 0 -161 84l42 39q45 -57 122 -57q75 0 121 56l41 -38q-7 -13 -21.5 -29t-54 -35.5t-89.5 -19.5z" />
    <glyph glyph-name="ibreve" unicode="&#x12d;" 
d="M559 0h-472v68h197v414h-179v64h258v-478h196v-68zM300 660q-102 0 -159 86l41 42q51 -59 119 -59t117 59l41 -43q-24 -37 -66.5 -61t-92.5 -24z" />
    <glyph glyph-name="Iogonek" unicode="&#x12e;" 
d="M536 -215q-30 -16 -83 -16q-62 0 -90 29t-28 76q0 67 101 126h-373v68h196v572h-196v67h472v-67h-194v-572h194v-68q-43 -17 -84.5 -49.5t-41.5 -66.5q0 -29 16.5 -40t48.5 -11q24 0 43 7z" />
    <glyph glyph-name="iogonek" unicode="&#x12f;" 
d="M559 -215q-26 -16 -83 -16q-62 0 -90 28.5t-28 75.5q0 68 102 127h-373v68h197v414h-179v64h258v-478h196v-68q-43 -17 -85 -50t-42 -67q0 -51 65 -51q22 0 43 8zM391 716l-68 -68l-66 68l66 67z" />
    <glyph glyph-name="Idotaccent" unicode="&#x130;" 
d="M536 0h-472v68h196v572h-196v67h472v-67h-194v-572h194v-68zM362 843l-63 -64l-61 64l61 62z" />
    <glyph glyph-name="dotlessi" unicode="&#x131;" 
d="M559 0h-472v68h197v414h-179v64h258v-478h196v-68z" />
    <glyph glyph-name="IJ" unicode="&#x132;" 
d="M494 226q0 -55 -23.5 -97.5t-60.5 -68.5t-88.5 -42.5t-102 -23t-107.5 -6.5l-6 72q306 14 306 171v476h82v-481zM196 182h-82v525h82v-525z" />
    <glyph glyph-name="ij" unicode="&#x133;" 
d="M507 -47q0 -175 -207 -175q-88 0 -179 35l22 67q93 -31 160 -31q64 0 95.5 25.5t31.5 82.5v589h77v-593zM170 0h-79v546h79v-546zM196 724l-66 -65l-63 65l63 64zM533 724l-66 -65l-63 65l63 64z" />
    <glyph glyph-name="Jcircumflex" unicode="&#x134;" 
d="M469 231q0 -68 -32 -117.5t-87.5 -75t-116.5 -37t-133 -12.5l-7 71q294 13 294 169v411h-292v67h374v-476zM477 812l-28 -51l-158 84l-159 -84l-31 50l189 109z" />
    <glyph glyph-name="jcircumflex" unicode="&#x135;" 
d="M420 -47q0 -175 -208 -175q-86 0 -179 35l23 67q93 -31 159 -31q64 0 95.5 25.5t31.5 82.5v525h-270v64h348v-593zM491 697l-31 -52l-158 86l-159 -86l-34 52l193 114z" />
    <glyph glyph-name="Kcommaaccent" unicode="&#x136;" 
d="M349 -58l-28 -197h-58l16 197h70zM578 0h-101l-259 369v15l245 323h97l-258 -327zM106 0v707h82v-707h-82z" />
    <glyph glyph-name="kcommaaccent" unicode="&#x137;" 
d="M340 -58l-28 -197h-58l16 197h70zM543 0h-96l-235 292l238 254h92l-242 -252zM186 0h-79v754h79v-754z" />
    <glyph glyph-name="Lacute" unicode="&#x139;" 
d="M389 858l-201 -109l-26 54l195 117zM534 0h-377v707h83v-636h294v-71z" />
    <glyph glyph-name="lacute" unicode="&#x13a;" 
d="M433 913l-201 -109l-26 54l195 117zM537 0h-476v68h200v623h-182v63h260v-686h198v-68z" />
    <glyph glyph-name="Lcommaaccent" unicode="&#x13b;" 
d="M386 -58l-28 -197h-58l16 197h70zM534 0h-377v707h83v-636h294v-71z" />
    <glyph glyph-name="lcommaaccent" unicode="&#x13c;" 
d="M338 -58l-28 -197h-58l16 197h70zM537 0h-476v68h200v623h-182v63h260v-686h198v-68z" />
    <glyph glyph-name="Lcaron" unicode="&#x13d;" 
d="M422 756l-29 -197h-58l16 197h71zM534 0h-377v707h83v-636h294v-71z" />
    <glyph glyph-name="lcaron" unicode="&#x13e;" 
d="M497 756l-29 -197h-58l16 197h71zM531 0h-476v68h200v623h-182v63h260v-686h198v-68z" />
    <glyph glyph-name="Ldot" unicode="&#x13f;" 
d="M534 0h-377v707h83v-636h294v-71zM587 374l-65 -64l-66 65l65 64z" />
    <glyph glyph-name="ldot" unicode="&#x140;" 
d="M537 0h-476v68h200v623h-182v63h260v-686h198v-68zM665 356l-65 -64l-66 65l65 64z" />
    <glyph glyph-name="Lslash" unicode="&#x141;" 
d="M542 0h-376v311l-77 -44l-1 64l77 45v331h83v-284l128 73v-65l-128 -73v-287h294v-71z" />
    <glyph glyph-name="lslash" unicode="&#x142;" 
d="M537 0h-476v68h200v273l-200 -72v64l200 72v286h-182v63h260v-318l198 71v-65l-198 -71v-303h198v-68z" />
    <glyph glyph-name="Nacute" unicode="&#x143;" 
d="M443 858l-201 -109l-26 54l195 117zM533 0h-128l-237 561l-26 75h-3l6 -81v-555h-78v707h118l236 -554l35 -91h3l-5 96v549h79v-707z" />
    <glyph glyph-name="nacute" unicode="&#x144;" 
d="M470 739l-197 -121l-31 52l190 130zM512 0h-76v337q0 78 -21.5 115t-87.5 37q-61 0 -162 -66v-423h-79v546h78v-62q27 21 45 33t58 26.5t82 14.5q43 0 74 -12t47.5 -30t26.5 -46.5t12.5 -53.5t2.5 -59v-357z" />
    <glyph glyph-name="Ncommaaccent" unicode="&#x145;" 
d="M350 -58l-28 -197h-58l16 197h70zM533 0h-128l-237 561l-26 75h-3l6 -81v-555h-78v707h118l236 -554l35 -91h3l-5 96v549h79v-707z" />
    <glyph glyph-name="ncommaaccent" unicode="&#x146;" 
d="M337 -58l-28 -197h-58l16 197h70zM512 0h-76v337q0 78 -21.5 115t-87.5 37q-61 0 -162 -66v-423h-79v546h78v-62q27 21 45 33t58 26.5t82 14.5q43 0 74 -12t47.5 -30t26.5 -46.5t12.5 -53.5t2.5 -59v-357z" />
    <glyph glyph-name="Ncaron" unicode="&#x147;" 
d="M484 820l-188 -82l-181 82l27 54l154 -65l160 65zM533 0h-128l-237 561l-26 75h-3l6 -81v-555h-78v707h118l236 -554l35 -91h3l-5 96v549h79v-707z" />
    <glyph glyph-name="ncaron" unicode="&#x148;" 
d="M495 760l-192 -115l-190 115l31 50l158 -85l159 85zM512 0h-76v337q0 78 -21.5 115t-87.5 37q-61 0 -162 -66v-423h-79v546h78v-62q27 21 45 33t58 26.5t82 14.5q43 0 74 -12t47.5 -30t26.5 -46.5t12.5 -53.5t2.5 -59v-357z" />
    <glyph glyph-name="napostrophe" unicode="&#x149;" 
d="M76 690q0 -49 -11.5 -91t-20 -58t-25.5 -40h-66q15 24 27 66t12 73v127h84v-77zM524 0h-76v337q0 78 -21.5 115t-87.5 37q-61 0 -162 -66v-423h-79v546h78v-62q27 21 45 33t58 26.5t82 14.5q43 0 74 -12t47.5 -30t26.5 -46.5t12.5 -53.5t2.5 -59v-357z" />
    <glyph glyph-name="Eng" unicode="&#x14a;" 
d="M533 707v-754q0 -175 -207 -175q-88 0 -179 35l22 67q93 -31 160 -31q126 0 126 105v46h-50l-237 561l-26 75h-3l6 -81v-555h-78v707h118l236 -554l35 -91h3l-5 96v549h79z" />
    <glyph glyph-name="eng" unicode="&#x14b;" 
d="M513 -47q0 -175 -207 -175q-88 0 -179 35l23 67q91 -31 159 -31q128 0 128 107v381q0 81 -20.5 116.5t-89.5 35.5q-64 0 -161 -66v-423h-80v546h79v-62q61 47 102 62q39 13 80 13q46 0 79 -13.5t49.5 -31.5t25.5 -49.5t10.5 -54t1.5 -58.5v-399z" />
    <glyph glyph-name="Omacron" unicode="&#x14c;" 
d="M446 781h-292v66h292v-66zM540 353q0 -87 -10.5 -149.5t-37.5 -113t-76.5 -76t-123.5 -25.5q-56 0 -97.5 18t-67 48.5t-41 78t-21 100t-5.5 121.5q0 179 56.5 270.5t192.5 91.5q68 0 114.5 -26.5t71.5 -78.5t35 -113.5t10 -145.5zM456 354q0 54 -3.5 95t-13 80.5t-26 64
t-44.5 40t-67 15.5q-87 0 -123 -75.5t-36 -217.5q0 -44 2 -77t7 -69.5t15.5 -62t26.5 -47t41.5 -32.5t58.5 -11q44 0 75 16.5t47.5 41t26 66.5t11.5 79t2 94z" />
    <glyph glyph-name="omacron" unicode="&#x14d;" 
d="M446 692h-292v66h292v-66zM538 273q0 -140 -64.5 -212t-174.5 -72q-114 0 -175.5 72t-61.5 206q0 139 65.5 215t176.5 76q234 0 234 -285zM457 273q0 221 -155 221q-59 0 -96.5 -34.5t-50.5 -81.5t-13 -106q0 -218 161 -218q154 0 154 219z" />
    <glyph glyph-name="Obreve" unicode="&#x14e;" 
d="M298 758q-106 0 -161 84l42 39q45 -57 122 -57q75 0 121 56l41 -38q-7 -13 -21.5 -29t-54 -35.5t-89.5 -19.5zM540 353q0 -87 -10.5 -149.5t-37.5 -113t-76.5 -76t-123.5 -25.5q-56 0 -97.5 18t-67 48.5t-41 78t-21 100t-5.5 121.5q0 179 56.5 270.5t192.5 91.5
q68 0 114.5 -26.5t71.5 -78.5t35 -113.5t10 -145.5zM456 354q0 54 -3.5 95t-13 80.5t-26 64t-44.5 40t-67 15.5q-87 0 -123 -75.5t-36 -217.5q0 -44 2 -77t7 -69.5t15.5 -62t26.5 -47t41.5 -32.5t58.5 -11q44 0 75 16.5t47.5 41t26 66.5t11.5 79t2 94z" />
    <glyph glyph-name="obreve" unicode="&#x14f;" 
d="M538 273q0 -140 -64.5 -212t-174.5 -72q-114 0 -175.5 72t-61.5 206q0 139 65.5 215t176.5 76q234 0 234 -285zM457 273q0 221 -155 221q-59 0 -96.5 -34.5t-50.5 -81.5t-13 -106q0 -218 161 -218q154 0 154 219zM300 660q-102 0 -159 86l41 42q51 -59 119 -59t117 59
l41 -43q-24 -37 -66.5 -61t-92.5 -24z" />
    <glyph glyph-name="Ohungarumlaut" unicode="&#x150;" 
d="M540 353q0 -87 -10.5 -149.5t-37.5 -113t-76.5 -76t-123.5 -25.5q-56 0 -97.5 18t-67 48.5t-41 78t-21 100t-5.5 121.5q0 179 56.5 270.5t192.5 91.5q68 0 114.5 -26.5t71.5 -78.5t35 -113.5t10 -145.5zM456 354q0 54 -3.5 95t-13 80.5t-26 64t-44.5 40t-67 15.5
q-87 0 -123 -75.5t-36 -217.5q0 -44 2 -77t7 -69.5t15.5 -62t26.5 -47t41.5 -32.5t58.5 -11q44 0 75 16.5t47.5 41t26 66.5t11.5 79t2 94zM561 855l-193 -108l-26 54l188 115zM356 895l-161 -151l-42 43l151 156z" />
    <glyph glyph-name="ohungarumlaut" unicode="&#x151;" 
d="M607 769l-199 -119l-31 49l189 132zM374 774l-190 -128l-35 48l181 141zM538 273q0 -140 -64.5 -212t-174.5 -72q-114 0 -175.5 72t-61.5 206q0 139 65.5 215t176.5 76q234 0 234 -285zM457 273q0 221 -155 221q-59 0 -96.5 -34.5t-50.5 -81.5t-13 -106q0 -218 161 -218
q154 0 154 219z" />
    <glyph glyph-name="OE" unicode="&#x152;" 
d="M572 0h-252l-1 37q-24 -25 -47 -37t-60 -12q-34 0 -60 10t-43.5 24.5t-29.5 43t-18.5 53.5t-10 69.5t-4 77.5t-0.5 89q0 73 4 124.5t16 99t32 76t53 45t79 16.5q33 0 50 -6.5t38 -24.5l3 22h239v-67h-172v-251h160v-68h-160v-253h184v-68zM310 101v506q-31 40 -89 40
q-31 0 -51 -20.5t-29.5 -63t-12.5 -89.5t-3 -118q0 -83 1.5 -122t9 -87.5t26.5 -68t51 -19.5q20 0 32 1.5t24.5 9t17 11t23.5 20.5z" />
    <glyph glyph-name="oe" unicode="&#x153;" 
d="M552 8q-40 -17 -119 -17q-46 0 -83 19.5t-49 62.5q-28 -82 -112 -82q-37 0 -63 12t-41 32.5t-23.5 57.5t-11 76t-2.5 98q0 153 29.5 222t114.5 69q46 0 70 -18t39 -56q26 75 116 75q81 0 107.5 -63t26.5 -209v-29h-216q0 -86 11.5 -129.5t35.5 -58t71 -14.5q38 0 84 10z
M478 316q0 48 -2 77t-8.5 55.5t-19.5 38.5t-35 12q-47 0 -62 -41t-15 -142h142zM262 273q0 36 -0.5 55t-2 50t-6.5 48.5t-12.5 36t-20.5 27t-30 8.5q-24 0 -39.5 -13.5t-22 -41.5t-8.5 -54.5t-2 -67.5v-49v-32q0 -47 2 -74t8.5 -57t22.5 -43.5t42 -13.5q43 0 56 57t13 164z
" />
    <glyph glyph-name="Racute" unicode="&#x154;" 
d="M559 0h-95l-141 285q-25 -5 -62 -5h-88v-280h-84v707h224q103 0 162.5 -53t59.5 -154q0 -145 -135 -196zM447 494q1 77 -38 111.5t-119 34.5h-118v-290h95q180 0 180 144zM431 858l-201 -109l-26 54l195 117z" />
    <glyph glyph-name="racute" unicode="&#x155;" 
d="M506 739l-197 -121l-31 52l190 130zM572 520l-24 -65q-75 35 -122 35q-80 0 -147 -81v-341h197v-68h-420v68h145v413h-144v65h222v-69q66 81 157 81q22 0 40.5 -2.5t34.5 -8t24 -8.5t22 -10.5t15 -8.5z" />
    <glyph glyph-name="Rcommaaccent" unicode="&#x156;" 
d="M344 -58l-28 -197h-58l16 197h70zM559 0h-95l-141 285q-25 -5 -62 -5h-88v-280h-84v707h224q103 0 162.5 -53t59.5 -154q0 -145 -135 -196zM447 494q1 77 -38 111.5t-119 34.5h-118v-290h95q180 0 180 144z" />
    <glyph glyph-name="rcommaaccent" unicode="&#x157;" 
d="M282 -58l-28 -197h-58l16 197h70zM572 520l-24 -65q-75 35 -122 35q-80 0 -147 -81v-341h197v-68h-420v68h145v413h-144v65h222v-69q66 81 157 81q22 0 40.5 -2.5t34.5 -8t24 -8.5t22 -10.5t15 -8.5z" />
    <glyph glyph-name="Rcaron" unicode="&#x158;" 
d="M474 820l-188 -82l-181 82l27 54l154 -65l160 65zM559 0h-95l-141 285q-25 -5 -62 -5h-88v-280h-84v707h224q103 0 162.5 -53t59.5 -154q0 -145 -135 -196zM447 494q1 77 -38 111.5t-119 34.5h-118v-290h95q180 0 180 144z" />
    <glyph glyph-name="rcaron" unicode="&#x159;" 
d="M498 760l-192 -115l-190 115l31 50l158 -85l159 85zM572 520l-24 -65q-75 35 -122 35q-80 0 -147 -81v-341h197v-68h-420v68h145v413h-144v65h222v-69q66 81 157 81q22 0 40.5 -2.5t34.5 -8t24 -8.5t22 -10.5t15 -8.5z" />
    <glyph glyph-name="Sacute" unicode="&#x15a;" 
d="M526 187q0 -105 -69 -151.5t-182 -46.5q-115 0 -201 37l27 68q90 -33 171 -33q32 0 59.5 5.5t54.5 17.5t42.5 37t15.5 60q0 40 -26.5 70.5t-65.5 48.5t-85.5 40t-85.5 44.5t-65.5 63t-26.5 93.5q0 89 61.5 132.5t154.5 43.5q96 0 178 -37l-24 -63q-82 32 -151 32
q-62 0 -101 -24.5t-39 -77.5q0 -44 37 -76.5t89.5 -56t105 -49t89.5 -71t37 -107.5zM428 858l-201 -109l-26 54l195 117z" />
    <glyph glyph-name="sacute" unicode="&#x15b;" 
d="M445 739l-197 -121l-31 52l190 130zM509 143q0 -44 -23.5 -76t-61.5 -48t-75 -23t-75 -7q-105 0 -185 31l17 66q102 -34 164 -34q71 0 116.5 21t45.5 67q0 33 -33.5 55.5t-81 37.5t-95 33t-81 54.5t-33.5 90.5q0 70 57.5 108.5t142.5 38.5q93 0 167 -30l-19 -61
q-83 27 -151 27q-54 0 -87 -20.5t-33 -58.5q0 -36 33.5 -60.5t81 -40t95 -34t81 -53t33.5 -84.5z" />
    <glyph glyph-name="Scircumflex" unicode="&#x15c;" 
d="M526 187q0 -105 -69 -151.5t-182 -46.5q-115 0 -201 37l27 68q90 -33 171 -33q32 0 59.5 5.5t54.5 17.5t42.5 37t15.5 60q0 40 -26.5 70.5t-65.5 48.5t-85.5 40t-85.5 44.5t-65.5 63t-26.5 93.5q0 89 61.5 132.5t154.5 43.5q96 0 178 -37l-24 -63q-82 32 -151 32
q-62 0 -101 -24.5t-39 -77.5q0 -44 37 -76.5t89.5 -56t105 -49t89.5 -71t37 -107.5zM488 812l-28 -51l-158 84l-159 -84l-31 50l189 109z" />
    <glyph glyph-name="scircumflex" unicode="&#x15d;" 
d="M491 697l-31 -52l-158 86l-159 -86l-34 52l193 114zM509 143q0 -44 -23.5 -76t-61.5 -48t-75 -23t-75 -7q-105 0 -185 31l17 66q102 -34 164 -34q71 0 116.5 21t45.5 67q0 33 -33.5 55.5t-81 37.5t-95 33t-81 54.5t-33.5 90.5q0 70 57.5 108.5t142.5 38.5q93 0 167 -30
l-19 -61q-83 27 -151 27q-54 0 -87 -20.5t-33 -58.5q0 -36 33.5 -60.5t81 -40t95 -34t81 -53t33.5 -84.5z" />
    <glyph glyph-name="Scedilla" unicode="&#x15e;" 
d="M526 187q0 -105 -69 -151.5t-182 -46.5q-115 0 -201 37l27 68q90 -33 171 -33q32 0 59.5 5.5t54.5 17.5t42.5 37t15.5 60q0 40 -26.5 70.5t-65.5 48.5t-85.5 40t-85.5 44.5t-65.5 63t-26.5 93.5q0 89 61.5 132.5t154.5 43.5q96 0 178 -37l-24 -63q-82 32 -151 32
q-62 0 -101 -24.5t-39 -77.5q0 -44 37 -76.5t89.5 -56t105 -49t89.5 -71t37 -107.5zM356 -117q2 -81 -106 -125l-25 42q57 34 57 82q0 27 -23 66h78q19 -30 19 -65z" />
    <glyph glyph-name="scedilla" unicode="&#x15f;" 
d="M509 143q0 -44 -23.5 -76t-61.5 -48t-75 -23t-75 -7q-105 0 -185 31l17 66q102 -34 164 -34q71 0 116.5 21t45.5 67q0 33 -33.5 55.5t-81 37.5t-95 33t-81 54.5t-33.5 90.5q0 70 57.5 108.5t142.5 38.5q93 0 167 -30l-19 -61q-83 27 -151 27q-54 0 -87 -20.5t-33 -58.5
q0 -36 33.5 -60.5t81 -40t95 -34t81 -53t33.5 -84.5zM362 -117q2 -81 -106 -125l-25 42q57 34 57 82q0 27 -23 66h78q19 -30 19 -65z" />
    <glyph glyph-name="Scaron" unicode="&#x160;" 
d="M526 187q0 -105 -69 -151.5t-182 -46.5q-115 0 -201 37l27 68q90 -33 171 -33q32 0 59.5 5.5t54.5 17.5t42.5 37t15.5 60q0 40 -26.5 70.5t-65.5 48.5t-85.5 40t-85.5 44.5t-65.5 63t-26.5 93.5q0 89 61.5 132.5t154.5 43.5q96 0 178 -37l-24 -63q-82 32 -151 32
q-62 0 -101 -24.5t-39 -77.5q0 -44 37 -76.5t89.5 -56t105 -49t89.5 -71t37 -107.5zM482 820l-188 -82l-181 82l27 54l154 -65l160 65z" />
    <glyph glyph-name="scaron" unicode="&#x161;" 
d="M488 760l-192 -115l-190 115l31 50l158 -85l159 85zM509 143q0 -44 -23.5 -76t-61.5 -48t-75 -23t-75 -7q-105 0 -185 31l17 66q102 -34 164 -34q71 0 116.5 21t45.5 67q0 33 -33.5 55.5t-81 37.5t-95 33t-81 54.5t-33.5 90.5q0 70 57.5 108.5t142.5 38.5q93 0 167 -30
l-19 -61q-83 27 -151 27q-54 0 -87 -20.5t-33 -58.5q0 -36 33.5 -60.5t81 -40t95 -34t81 -53t33.5 -84.5z" />
    <glyph glyph-name="Tcommaaccent" unicode="&#x162;" 
d="M334 -58l-28 -197h-58l16 197h70zM547 638h-205v-638h-83v638h-206v69h494v-69z" />
    <glyph glyph-name="tcommaaccent" unicode="&#x163;" 
d="M399 -58l-28 -197h-58l16 197h70zM549 31q-103 -42 -190 -42q-90 0 -137.5 32.5t-47.5 123.5v336h-126v65h126v112h76v-112h289v-65h-288v-320q0 -57 25 -80t88 -23q70 0 170 35z" />
    <glyph glyph-name="Tcaron" unicode="&#x164;" 
d="M484 820l-188 -82l-181 82l27 54l154 -65l160 65zM547 638h-205v-638h-83v638h-206v69h494v-69z" />
    <glyph glyph-name="tcaron" unicode="&#x165;" 
d="M424 812l-29 -197h-58l16 197h71zM549 31q-103 -42 -190 -42q-90 0 -137.5 32.5t-47.5 123.5v336h-126v65h126v112h76v-112h289v-65h-288v-320q0 -57 25 -80t88 -23q70 0 170 35z" />
    <glyph glyph-name="Tbar" unicode="&#x166;" 
d="M481 342h-139v-342h-83v342h-138v58h138v238h-206v69h494v-69h-205v-238h139v-58z" />
    <glyph glyph-name="tbar" unicode="&#x167;" 
d="M424 316h-171v-159q0 -56 25 -76t89 -20q90 0 169 31l16 -63q-96 -38 -184 -38q-35 0 -59.5 2.5t-51.5 11.5t-43 25t-27 45t-11 70v171h-124v59h124v106h-126v65h126v112h77v-112h288v-65h-288v-106h171v-59z" />
    <glyph glyph-name="Utilde" unicode="&#x168;" 
d="M464 804q-12 -16 -39 -33t-62 -17q-24 0 -65.5 19t-61.5 19q-37 0 -70 -26l-30 48q41 44 104 44q27 0 66.5 -18t56.5 -18q32 0 71 27zM532 267q0 -82 -17.5 -138.5t-50.5 -86t-72 -41.5t-90 -12q-56 0 -95.5 11t-72.5 37.5t-49.5 77.5t-16.5 126v466h84v-460
q0 -108 37.5 -147.5t112.5 -39.5q79 0 115 44t36 162v441h79v-440z" />
    <glyph glyph-name="utilde" unicode="&#x169;" 
d="M511 0h-76v64q-2 -1 -14 -9.5t-16.5 -11.5t-17 -11t-19.5 -11t-20 -9.5t-23.5 -9.5t-23.5 -6.5t-27 -5t-28 -1.5q-42 0 -72 13t-46 32.5t-25.5 49.5t-11.5 54.5t-2 58.5v349h78v-333q0 -31 1 -49.5t6.5 -41t16 -34t30 -20t47.5 -8.5q60 0 167 67v419h76v-546zM464 717
q-11 -16 -38 -33t-63 -17q-24 0 -65.5 18.5t-61.5 18.5q-36 0 -70 -25l-30 47q42 45 104 45q27 0 66.5 -18.5t56.5 -18.5q35 0 71 28z" />
    <glyph glyph-name="Umacron" unicode="&#x16a;" 
d="M446 781h-292v66h292v-66zM532 267q0 -82 -17.5 -138.5t-50.5 -86t-72 -41.5t-90 -12q-56 0 -95.5 11t-72.5 37.5t-49.5 77.5t-16.5 126v466h84v-460q0 -108 37.5 -147.5t112.5 -39.5q79 0 115 44t36 162v441h79v-440z" />
    <glyph glyph-name="umacron" unicode="&#x16b;" 
d="M511 0h-76v64q-2 -1 -14 -9.5t-16.5 -11.5t-17 -11t-19.5 -11t-20 -9.5t-23.5 -9.5t-23.5 -6.5t-27 -5t-28 -1.5q-42 0 -72 13t-46 32.5t-25.5 49.5t-11.5 54.5t-2 58.5v349h78v-333q0 -31 1 -49.5t6.5 -41t16 -34t30 -20t47.5 -8.5q60 0 167 67v419h76v-546zM446 692
h-292v66h292v-66z" />
    <glyph glyph-name="Ubreve" unicode="&#x16c;" 
d="M298 758q-106 0 -161 84l42 39q45 -57 122 -57q75 0 121 56l41 -38q-7 -13 -21.5 -29t-54 -35.5t-89.5 -19.5zM532 267q0 -82 -17.5 -138.5t-50.5 -86t-72 -41.5t-90 -12q-56 0 -95.5 11t-72.5 37.5t-49.5 77.5t-16.5 126v466h84v-460q0 -108 37.5 -147.5t112.5 -39.5
q79 0 115 44t36 162v441h79v-440z" />
    <glyph glyph-name="ubreve" unicode="&#x16d;" 
d="M511 0h-76v64q-2 -1 -14 -9.5t-16.5 -11.5t-17 -11t-19.5 -11t-20 -9.5t-23.5 -9.5t-23.5 -6.5t-27 -5t-28 -1.5q-42 0 -72 13t-46 32.5t-25.5 49.5t-11.5 54.5t-2 58.5v349h78v-333q0 -31 1 -49.5t6.5 -41t16 -34t30 -20t47.5 -8.5q60 0 167 67v419h76v-546zM300 660
q-102 0 -159 86l41 42q51 -59 119 -59t117 59l41 -43q-24 -37 -66.5 -61t-92.5 -24z" />
    <glyph glyph-name="Uring" unicode="&#x16e;" 
d="M532 267q0 -82 -17.5 -138.5t-50.5 -86t-72 -41.5t-90 -12q-56 0 -95.5 11t-72.5 37.5t-49.5 77.5t-16.5 126v466h84v-460q0 -108 37.5 -147.5t112.5 -39.5q79 0 115 44t36 162v441h79v-440zM419 816q0 -50 -33 -79t-84 -29t-86 26.5t-35 79.5q0 51 35 80.5t83 29.5
q46 0 83 -26.5t37 -81.5zM365 815q0 28 -19 45.5t-46 17.5q-30 0 -47.5 -16.5t-17.5 -44.5t18 -46t47 -18q30 0 47.5 17t17.5 45z" />
    <glyph glyph-name="uring" unicode="&#x16f;" 
d="M419 734q0 -50 -33 -79t-84 -29t-86 26.5t-35 79.5q0 51 35 80.5t83 29.5q46 0 83 -26.5t37 -81.5zM365 733q0 28 -19 45.5t-46 17.5q-30 0 -47.5 -16.5t-17.5 -44.5t18 -46t47 -18q30 0 47.5 17t17.5 45zM511 0h-76v64q-2 -1 -14 -9.5t-16.5 -11.5t-17 -11t-19.5 -11
t-20 -9.5t-23.5 -9.5t-23.5 -6.5t-27 -5t-28 -1.5q-42 0 -72 13t-46 32.5t-25.5 49.5t-11.5 54.5t-2 58.5v349h78v-333q0 -31 1 -49.5t6.5 -41t16 -34t30 -20t47.5 -8.5q60 0 167 67v419h76v-546z" />
    <glyph glyph-name="Uhungarumlaut" unicode="&#x170;" 
d="M532 267q0 -82 -17.5 -138.5t-50.5 -86t-72 -41.5t-90 -12q-56 0 -95.5 11t-72.5 37.5t-49.5 77.5t-16.5 126v466h84v-460q0 -108 37.5 -147.5t112.5 -39.5q79 0 115 44t36 162v441h79v-440zM551 855l-193 -108l-26 54l188 115zM346 895l-161 -151l-42 43l151 156z" />
    <glyph glyph-name="uhungarumlaut" unicode="&#x171;" 
d="M511 0h-76v64q-2 -1 -14 -9.5t-16.5 -11.5t-17 -11t-19.5 -11t-20 -9.5t-23.5 -9.5t-23.5 -6.5t-27 -5t-28 -1.5q-42 0 -72 13t-46 32.5t-25.5 49.5t-11.5 54.5t-2 58.5v349h78v-333q0 -31 1 -49.5t6.5 -41t16 -34t30 -20t47.5 -8.5q60 0 167 67v419h76v-546zM593 769
l-199 -119l-31 49l189 132zM360 774l-190 -128l-35 48l181 141z" />
    <glyph glyph-name="Uogonek" unicode="&#x172;" 
d="M532 265q0 -209 -121 -259q-38 -21 -77 -56.5t-39 -66.5q0 -53 65 -53q17 0 44 10l18 -55q-31 -19 -83 -19q-62 0 -90 30t-28 77q0 57 70 114q-108 2 -165.5 57t-57.5 195v468h84v-461q0 -109 37.5 -148t112.5 -39q79 0 115 44t36 162v442h79v-442z" />
    <glyph glyph-name="uogonek" unicode="&#x173;" 
d="M511 0q-42 -22 -77 -55t-35 -62q0 -51 65 -51q23 0 44 8l18 -55q-26 -16 -83 -16q-62 0 -90 28.5t-28 75.5q0 71 110 139v52l-17 -12q-18 -13 -23 -16t-22 -13t-28 -13.5t-27.5 -10t-33.5 -8.5t-35 -2q-44 0 -75.5 13.5t-47.5 32t-25 49.5t-10.5 54t-1.5 59v349h78v-333
q0 -31 1 -49.5t6.5 -41t16 -34t30 -20t47.5 -8.5q60 0 167 67v419h76v-546z" />
    <glyph glyph-name="Wcircumflex" unicode="&#x174;" 
d="M543 707l-44 -707h-101l-81 350l-15 77h-2l-19 -79l-91 -348h-100l-32 707h74l20 -526l-1 -116h3l25 121l76 292h95l68 -289l21 -123h3l1 118l29 523h71zM488 812l-28 -51l-158 84l-159 -84l-31 50l189 109z" />
    <glyph glyph-name="wcircumflex" unicode="&#x175;" 
d="M491 697l-31 -52l-158 86l-159 -86l-34 52l193 114zM572 546l-87 -546h-102l-82 450h-2l-102 -450h-99l-70 546h75l50 -490h3l100 449h91l83 -449h3l67 490h72z" />
    <glyph glyph-name="Ycircumflex" unicode="&#x176;" 
d="M562 707l-228 -449v-258h-82v258l-213 449h88l130 -285l37 -99h3l40 99l139 285h86zM488 812l-28 -51l-158 84l-159 -84l-31 50l189 109z" />
    <glyph glyph-name="ycircumflex" unicode="&#x177;" 
d="M563 546l-306 -766h-74l87 220h-35l-197 546h83l170 -491h3l190 491h79zM491 697l-31 -52l-158 86l-159 -86l-34 52l193 114z" />
    <glyph glyph-name="Ydieresis" unicode="&#x178;" 
d="M562 707l-228 -449v-258h-82v258l-213 449h88l130 -285l37 -99h3l40 99l139 285h86zM460 807l-57 -57l-57 57l56 57zM246 807l-55 -57l-57 57l56 57z" />
    <glyph glyph-name="Zacute" unicode="&#x179;" 
d="M537 0h-474v71l360 565h-334v71h427v-65l-363 -572h384v-70zM426 858l-201 -109l-26 54l195 117z" />
    <glyph glyph-name="zacute" unicode="&#x17a;" 
d="M454 739l-197 -121l-31 52l190 130zM527 0h-454v68l359 409h-333v69h424v-64l-365 -413h369v-69z" />
    <glyph glyph-name="Zdotaccent" unicode="&#x17b;" 
d="M363 843l-63 -64l-61 64l61 62zM537 0h-474v71l360 565h-334v71h427v-65l-363 -572h384v-70z" />
    <glyph glyph-name="zdotaccent" unicode="&#x17c;" 
d="M527 0h-454v68l359 409h-333v69h424v-64l-365 -413h369v-69zM379 724l-66 -65l-63 65l63 64z" />
    <glyph glyph-name="Zcaron" unicode="&#x17d;" 
d="M491 820l-188 -82l-181 82l27 54l154 -65l160 65zM537 0h-474v71l360 565h-334v71h427v-65l-363 -572h384v-70z" />
    <glyph glyph-name="zcaron" unicode="&#x17e;" 
d="M491 760l-192 -115l-190 115l31 50l158 -85l159 85zM527 0h-454v68l359 409h-333v69h424v-64l-365 -413h369v-69z" />
    <glyph glyph-name="florin" unicode="&#x192;" 
d="M523 482h-218l1 -529q0 -175 -208 -175l3 71q63 0 94.5 25.5t31.5 82.5v525h-150v64h150v41q0 179 194 179q25 0 38 -1l-8 -68q-3 0 -14.5 0.5t-13.5 0.5q-60 -2 -89 -27.5t-29 -85.5v-39h218v-64z" />
    <glyph glyph-name="uni01C4" unicode="&#x1c4;" 
d="M580 806l-126 -70l-122 73l27 44l94 -49l100 47zM556 0h-221v55l138 586h-117v66h190v-52l-143 -590h153v-65zM314 349q0 -196 -33 -272.5t-134 -76.5h-97v707h93q44 0 75 -16t49.5 -43t29 -74.5t14 -98.5t3.5 -126zM240 345q0 60 -1 97.5t-4.5 75t-10 58t-17.5 37.5
t-27 23.5t-39 6.5h-21v-579h37q20 0 34.5 6.5t23.5 25t14 35.5t7.5 56.5t3 68.5t0.5 89z" />
    <glyph glyph-name="uni01C5" unicode="&#x1c5;" 
d="M317 349q0 -196 -33 -272.5t-134 -76.5h-98v707h94q44 0 75 -16t49.5 -43t29 -74.5t14 -98.5t3.5 -126zM243 345q0 60 -1 97.5t-4.5 75t-10 58t-17.5 37.5t-27 23.5t-39 6.5h-21v-579h37q20 0 34.5 6.5t23.5 25t14 35.5t7.5 56.5t3 68.5t0.5 89zM554 0h-205v62l124 417
h-112v67h180v-61l-127 -419h140v-66zM578 717l-127 -95l-122 98l34 41l88 -65l94 62z" />
    <glyph glyph-name="uni01C6" unicode="&#x1c6;" 
d="M579 717l-127 -95l-121 98l33 41l88 -65l94 62zM552 0h-205v62l125 417h-112v67h179v-61l-126 -419h139v-66zM309 0h-69v54q-38 -59 -78 -59q-53 0 -72.5 55.5t-19.5 178.5q0 80 4.5 133t18.5 100.5t42 70t71 22.5q21 0 34 -4v203h69v-754zM240 116v372q-10 6 -34 6
q-16 0 -28 -8t-19.5 -26t-12 -36.5t-6.5 -48t-2.5 -52.5t-0.5 -58q0 -85 5 -129.5t13.5 -58.5t24.5 -14t60 53z" />
    <glyph glyph-name="uni01C7" unicode="&#x1c7;" 
d="M494 429q0 -184 -231 -229l-9 74q33 10 52 17.5t48.5 25t44 45t14.5 65.5v280h81v-278zM488 0h-383v707h83v-636h300v-71z" />
    <glyph glyph-name="uni01C8" unicode="&#x1c8;" 
d="M369 0h-264v707h83v-634h181v-73zM510 -47q-1 -175 -207 -175q-90 0 -179 35l22 67q91 -31 160 -31q63 0 94.5 25.5t31.5 82.5v589h78v-593zM536 724l-66 -65l-63 65l63 64z" />
    <glyph glyph-name="uni01C9" unicode="&#x1c9;" 
d="M168 0h-79v754h79v-754zM505 -47q0 -175 -207 -175q-88 0 -179 35l22 67q93 -31 160 -31q64 0 95.5 25.5t31.5 82.5v589h77v-593zM531 724l-66 -65l-63 65l63 64z" />
    <glyph glyph-name="uni01CA" unicode="&#x1ca;" 
d="M327 707v-707h-93l-101 439l-40 182h-3l8 -186v-435h-61v707h87l102 -432l42 -189h5l-8 186v435h62zM570 707v-479q0 -100 -47 -155.5t-139 -84.5l-19 63q137 45 137 175v421h-120v60h188z" />
    <glyph glyph-name="uni01CB" unicode="&#x1cb;" 
d="M356 0h-93l-101 439l-40 182h-3l8 -186v-435h-61v707h87l102 -432l42 -189h5l-8 186v435h62v-707zM546 716l-63 -63l-62 63l62 62zM518 546v-566q0 -200 -179 -200q-61 0 -106 18l14 60q49 -14 96 -14q59 0 82 34t24 100v568h69z" />
    <glyph glyph-name="uni01CC" unicode="&#x1cc;" 
d="M564 -47q0 -175 -201 -175q-83 0 -169 34l21 63q84 -30 151 -30q64 0 96 25.5t32 81.5v594h70v-593zM376 0h-69v368q0 72 -13.5 97.5t-68.5 25.5q-14 0 -27 -5t-25 -15t-20 -17t-18.5 -19t-11.5 -14v-421h-71v546h70v-62q58 74 128 74q35 0 59.5 -9.5t37.5 -23
t19.5 -37.5t8 -42t1.5 -47v-399zM593 724l-66 -65l-63 65l63 64z" />
    <glyph glyph-name="uni01D3" unicode="&#x1d3;" 
d="M488 820l-188 -82l-181 82l27 54l154 -65l160 65zM532 267q0 -82 -17.5 -138.5t-50.5 -86t-72 -41.5t-90 -12q-56 0 -95.5 11t-72.5 37.5t-49.5 77.5t-16.5 126v466h84v-460q0 -108 37.5 -147.5t112.5 -39.5q79 0 115 44t36 162v441h79v-440z" />
    <glyph glyph-name="uni01D4" unicode="&#x1d4;" 
d="M491 760l-192 -115l-190 115l31 50l158 -85l159 85zM511 0h-76v64q-2 -1 -14 -9.5t-16.5 -11.5t-17 -11t-19.5 -11t-20 -9.5t-23.5 -9.5t-23.5 -6.5t-27 -5t-28 -1.5q-42 0 -72 13t-46 32.5t-25.5 49.5t-11.5 54.5t-2 58.5v349h78v-333q0 -31 1 -49.5t6.5 -41t16 -34
t30 -20t47.5 -8.5q60 0 167 67v419h76v-546z" />
    <glyph glyph-name="AEmacron" unicode="&#x1e2;" 
d="M540 781h-292v66h292v-66zM568 0h-259v311h-108l-88 -311h-80l211 707h303v-67h-163v-251h151v-68h-151v-253h184v-68zM309 378v288h-9l-44 -156l-37 -132h90z" />
    <glyph glyph-name="aemacron" unicode="&#x1e3;" 
d="M551 7q-43 -17 -115 -17q-122 0 -149 78q-46 -78 -121 -78q-121 0 -121 155t170 165l47 2v77q0 66 -13 85.5t-54 19.5q-21 0 -42.5 -4t-41.5 -10t-26 -7l-15 56q60 30 149 30q70 0 91 -56q26 56 111 56q75 0 101.5 -58.5t26.5 -190.5v-41l-217 -13q2 -128 24 -163
t101 -35q38 0 80 11zM481 326q1 89 -12.5 130t-58.5 41q-38 0 -57 -42.5t-19 -139.5zM270 115q-10 37 -10 139l-43 -4q-60 -5 -81.5 -29t-21.5 -67q0 -57 15.5 -78.5t49.5 -21.5q26 0 45.5 15t45.5 46zM452 692h-292v66h292v-66z" />
    <glyph glyph-name="uni01F1" unicode="&#x1f1;" 
d="M559 0h-221v55l138 586h-117v66h190v-52l-143 -590h153v-65zM317 349q0 -196 -33 -272.5t-134 -76.5h-98v707h94q44 0 75 -16t49.5 -43t29 -74.5t14 -98.5t3.5 -126zM243 345q0 60 -1 97.5t-4.5 75t-10 58t-17.5 37.5t-27 23.5t-39 6.5h-21v-579h37q20 0 34.5 6.5
t23.5 25t14 35.5t7.5 56.5t3 68.5t0.5 89z" />
    <glyph glyph-name="uni01F2" unicode="&#x1f2;" 
d="M317 349q0 -196 -33 -272.5t-134 -76.5h-98v707h94q44 0 75 -16t49.5 -43t29 -74.5t14 -98.5t3.5 -126zM243 345q0 60 -1 97.5t-4.5 75t-10 58t-17.5 37.5t-27 23.5t-39 6.5h-21v-579h37q20 0 34.5 6.5t23.5 25t14 35.5t7.5 56.5t3 68.5t0.5 89zM554 0h-205v62l124 417
h-112v67h180v-61l-127 -419h140v-66z" />
    <glyph glyph-name="uni01F3" unicode="&#x1f3;" 
d="M553 0h-204v62l124 417h-112v67h180v-61l-127 -419h139v-66zM310 0h-68v54q-40 -59 -79 -59q-52 0 -72 56t-20 178q0 80 4.5 133t18.5 100.5t42 70t71 22.5q22 0 35 -4v203h68v-754zM242 116v372q-11 6 -34 6q-44 0 -57 -59t-13 -170q0 -85 5 -129.5t13.5 -58.5t24.5 -14
q5 0 11.5 4t14.5 11.5t13.5 13.5t13 14.5t8.5 9.5z" />
    <glyph glyph-name="AEacute" unicode="&#x1fc;" 
d="M522 858l-201 -109l-26 54l195 117zM568 0h-259v311h-108l-88 -311h-80l211 707h303v-67h-163v-251h151v-68h-151v-253h184v-68zM309 378v288h-9l-44 -156l-37 -132h90z" />
    <glyph glyph-name="aeacute" unicode="&#x1fd;" 
d="M443 739l-197 -121l-31 52l190 130zM551 7q-43 -17 -115 -17q-122 0 -149 78q-46 -78 -121 -78q-121 0 -121 155t170 165l47 2v77q0 66 -13 85.5t-54 19.5q-21 0 -42.5 -4t-41.5 -10t-26 -7l-15 56q60 30 149 30q70 0 91 -56q26 56 111 56q75 0 101.5 -58.5t26.5 -190.5
v-41l-217 -13q2 -128 24 -163t101 -35q38 0 80 11zM481 326q1 89 -12.5 130t-58.5 41q-38 0 -57 -42.5t-19 -139.5zM270 115q-10 37 -10 139l-43 -4q-60 -5 -81.5 -29t-21.5 -67q0 -57 15.5 -78.5t49.5 -21.5q26 0 45.5 15t45.5 46z" />
    <glyph glyph-name="Oslashacute" unicode="&#x1fe;" 
d="M540 353q0 -87 -10.5 -149.5t-37.5 -113t-76.5 -76t-123.5 -25.5q-107 0 -163 64l-41 -64h-55l69 106q-42 81 -42 260t56.5 270.5t192.5 91.5q100 0 156 -62l40 63h51l-65 -100q49 -87 49 -265zM143 356q0 -115 16 -172l257 396q-35 69 -114 69q-87 0 -123 -75.5
t-36 -217.5zM456 354q0 112 -22 174l-256 -399q34 -72 116 -72q44 0 75 16.5t47.5 41t26 66.5t11.5 79t2 94zM440 858l-201 -109l-26 54l195 117z" />
    <glyph glyph-name="oslashacute" unicode="&#x1ff;" 
d="M562 558l-71 -86q47 -71 47 -199q0 -140 -64.5 -212t-174.5 -72q-101 0 -160 55l-45 -55h-55l72 87q-49 72 -49 191q0 139 65.5 215t176.5 76q103 0 161 -55l46 55h51zM142 272q0 -78 25 -129l247 298q-38 53 -112 53q-59 0 -96.5 -34.5t-50.5 -81.5t-13 -106zM457 273
q0 77 -24 128l-245 -298q40 -49 115 -49q154 0 154 219zM459 739l-197 -121l-31 52l190 130z" />
    <glyph glyph-name="Scommaaccent" unicode="&#x218;" 
d="M335 -58l-28 -197h-58l16 197h70zM526 187q0 -105 -69 -151.5t-182 -46.5q-115 0 -201 37l27 68q90 -33 171 -33q32 0 59.5 5.5t54.5 17.5t42.5 37t15.5 60q0 40 -26.5 70.5t-65.5 48.5t-85.5 40t-85.5 44.5t-65.5 63t-26.5 93.5q0 89 61.5 132.5t154.5 43.5
q96 0 178 -37l-24 -63q-82 32 -151 32q-62 0 -101 -24.5t-39 -77.5q0 -44 37 -76.5t89.5 -56t105 -49t89.5 -71t37 -107.5z" />
    <glyph glyph-name="scommaaccent" unicode="&#x219;" 
d="M342 -58l-28 -197h-58l16 197h70zM509 143q0 -44 -23.5 -76t-61.5 -48t-75 -23t-75 -7q-105 0 -185 31l17 66q102 -34 164 -34q71 0 116.5 21t45.5 67q0 33 -33.5 55.5t-81 37.5t-95 33t-81 54.5t-33.5 90.5q0 70 57.5 108.5t142.5 38.5q93 0 167 -30l-19 -61
q-83 27 -151 27q-54 0 -87 -20.5t-33 -58.5q0 -36 33.5 -60.5t81 -40t95 -34t81 -53t33.5 -84.5z" />
    <glyph glyph-name="uni021A" unicode="&#x21a;" 
d="M336 -58l-28 -197h-58l16 197h70zM547 638h-205v-638h-83v638h-206v69h494v-69z" />
    <glyph glyph-name="uni021B" unicode="&#x21b;" 
d="M399 -58l-28 -197h-58l16 197h70zM549 31q-103 -42 -190 -42q-90 0 -137.5 32.5t-47.5 123.5v336h-126v65h126v112h76v-112h289v-65h-288v-320q0 -57 25 -80t88 -23q70 0 170 35z" />
    <glyph glyph-name="dotlessj" unicode="&#x237;" 
d="M420 -47q0 -175 -208 -175q-86 0 -179 35l23 67q93 -31 159 -31q64 0 95.5 25.5t31.5 82.5v525h-270v64h348v-593z" />
    <glyph glyph-name="circumflex" unicode="&#x2c6;" 
d="M491 697l-31 -52l-158 86l-159 -86l-34 52l193 114z" />
    <glyph glyph-name="caron" unicode="&#x2c7;" 
d="M491 760l-192 -115l-190 115l31 50l158 -85l159 85z" />
    <glyph glyph-name="breve" unicode="&#x2d8;" 
d="M300 660q-102 0 -159 86l41 42q51 -59 119 -59t117 59l41 -43q-24 -37 -66.5 -61t-92.5 -24z" />
    <glyph glyph-name="dotaccent" unicode="&#x2d9;" 
d="M365 724l-66 -65l-63 65l63 64z" />
    <glyph glyph-name="ring" unicode="&#x2da;" 
d="M419 734q0 -50 -33 -79t-84 -29t-86 26.5t-35 79.5q0 51 35 80.5t83 29.5q46 0 83 -26.5t37 -81.5zM365 733q0 28 -19 45.5t-46 17.5q-30 0 -47.5 -16.5t-17.5 -44.5t18 -46t47 -18q30 0 47.5 17t17.5 45z" />
    <glyph glyph-name="ogonek" unicode="&#x2db;" 
d="M399 -215q-26 -16 -83 -16q-119 0 -119 104q0 38 34 77t69 61t69 38l32 -36q-38 -20 -84 -58t-46 -72q0 -51 66 -51q22 0 43 8z" />
    <glyph glyph-name="tilde" unicode="&#x2dc;" 
d="M464 717q-11 -16 -38 -33t-63 -17q-24 0 -65.5 18.5t-61.5 18.5q-36 0 -70 -25l-30 47q42 45 104 45q27 0 66.5 -18.5t56.5 -18.5q35 0 71 28z" />
    <glyph glyph-name="hungarumlaut" unicode="&#x2dd;" 
d="M593 769l-199 -119l-31 49l189 132zM360 774l-190 -128l-35 48l181 141z" />
    <glyph glyph-name="Delta" unicode="&#x394;" 
d="M560 0h-523l221 707h115zM458 67l-109 432l-37 154l-44 -155l-132 -431h322z" />
    <glyph glyph-name="Delta" unicode="&#x2206;" 
d="M560 0h-523l221 707h115zM458 67l-109 432l-37 154l-44 -155l-132 -431h322z" />
    <glyph glyph-name="Omega" unicode="&#x3a9;" 
d="M59 0v70h112q-54 32 -83 115t-29 184q0 349 249 349q54 0 95 -17.5t67 -47.5t41.5 -75.5t22 -96t6.5 -114.5q0 -90 -32.5 -174t-91.5 -123h124v-70h-201v70q69 50 93.5 121.5t24.5 179.5q0 139 -32.5 207t-124.5 68q-87 0 -122.5 -70t-35.5 -203q0 -123 22 -185t85 -118
v-70h-190z" />
    <glyph glyph-name="Omega" unicode="&#x2126;" 
d="M59 0v70h112q-54 32 -83 115t-29 184q0 349 249 349q54 0 95 -17.5t67 -47.5t41.5 -75.5t22 -96t6.5 -114.5q0 -90 -32.5 -174t-91.5 -123h124v-70h-201v70q69 50 93.5 121.5t24.5 179.5q0 139 -32.5 207t-124.5 68q-87 0 -122.5 -70t-35.5 -203q0 -123 22 -185t85 -118
v-70h-190z" />
    <glyph glyph-name="pi" unicode="&#x3c0;" 
d="M486 0h-77v478h-217v-478h-76v478h-72v68h513v-68h-71v-478z" />
    <glyph glyph-name="uni1E46" unicode="&#x1e46;" 
d="M375 -135l-66 -65l-63 65l63 64zM533 0h-128l-237 561l-26 75h-3l6 -81v-555h-78v707h118l236 -554l35 -91h3l-5 96v549h79v-707z" />
    <glyph glyph-name="uni1E47" unicode="&#x1e47;" 
d="M367 -135l-66 -65l-63 65l63 64zM512 0h-76v337q0 78 -21.5 115t-87.5 37q-61 0 -162 -66v-423h-79v546h78v-62q27 21 45 33t58 26.5t82 14.5q43 0 74 -12t47.5 -30t26.5 -46.5t12.5 -53.5t2.5 -59v-357z" />
    <glyph glyph-name="uni1E62" unicode="&#x1e62;" 
d="M526 187q0 -105 -69 -151.5t-182 -46.5q-115 0 -201 37l27 68q90 -33 171 -33q32 0 59.5 5.5t54.5 17.5t42.5 37t15.5 60q0 40 -26.5 70.5t-65.5 48.5t-85.5 40t-85.5 44.5t-65.5 63t-26.5 93.5q0 89 61.5 132.5t154.5 43.5q96 0 178 -37l-24 -63q-82 32 -151 32
q-62 0 -101 -24.5t-39 -77.5q0 -44 37 -76.5t89.5 -56t105 -49t89.5 -71t37 -107.5zM362 -135l-66 -65l-63 65l63 64z" />
    <glyph glyph-name="uni1E63" unicode="&#x1e63;" 
d="M509 143q0 -44 -23.5 -76t-61.5 -48t-75 -23t-75 -7q-105 0 -185 31l17 66q102 -34 164 -34q71 0 116.5 21t45.5 67q0 33 -33.5 55.5t-81 37.5t-95 33t-81 54.5t-33.5 90.5q0 70 57.5 108.5t142.5 38.5q93 0 167 -30l-19 -61q-83 27 -151 27q-54 0 -87 -20.5t-33 -58.5
q0 -36 33.5 -60.5t81 -40t95 -34t81 -53t33.5 -84.5zM365 -134l-66 -65l-63 65l63 64z" />
    <glyph glyph-name="Wgrave" unicode="&#x1e80;" 
d="M381 749l-201 109l32 62l195 -117zM543 707l-44 -707h-101l-81 350l-15 77h-2l-19 -79l-91 -348h-100l-32 707h74l20 -526l-1 -116h3l25 121l76 292h95l68 -289l21 -123h3l1 118l29 523h71z" />
    <glyph glyph-name="wgrave" unicode="&#x1e81;" 
d="M572 546l-87 -546h-102l-82 450h-2l-102 -450h-99l-70 546h75l50 -490h3l100 449h91l83 -449h3l67 490h72zM398 669l-31 -51l-197 121l36 61z" />
    <glyph glyph-name="Wacute" unicode="&#x1e82;" 
d="M454 858l-201 -109l-26 54l195 117zM543 707l-44 -707h-101l-81 350l-15 77h-2l-19 -79l-91 -348h-100l-32 707h74l20 -526l-1 -116h3l25 121l76 292h95l68 -289l21 -123h3l1 118l29 523h71z" />
    <glyph glyph-name="wacute" unicode="&#x1e83;" 
d="M430 739l-197 -121l-31 52l190 130zM572 546l-87 -546h-102l-82 450h-2l-102 -450h-99l-70 546h75l50 -490h3l100 449h91l83 -449h3l67 490h72z" />
    <glyph glyph-name="Wdieresis" unicode="&#x1e84;" 
d="M468 807l-57 -57l-57 57l56 57zM254 807l-55 -57l-57 57l56 57zM543 707l-44 -707h-101l-81 350l-15 77h-2l-19 -79l-91 -348h-100l-32 707h74l20 -526l-1 -116h3l25 121l76 292h95l68 -289l21 -123h3l1 118l29 523h71z" />
    <glyph glyph-name="wdieresis" unicode="&#x1e85;" 
d="M462 716l-56 -57l-57 57l56 56zM250 716l-56 -57l-56 57l55 56zM572 546l-87 -546h-102l-82 450h-2l-102 -450h-99l-70 546h75l50 -490h3l100 449h91l83 -449h3l67 490h72z" />
    <glyph glyph-name="uni1EBC" unicode="&#x1ebc;" 
d="M481 804q-12 -16 -39 -33t-62 -17q-24 0 -65.5 19t-61.5 19q-37 0 -70 -26l-30 48q41 44 104 44q27 0 66.5 -18t56.5 -18q32 0 71 27zM531 0h-419v707h401v-67h-318v-251h298v-68h-298v-253h336v-68z" />
    <glyph glyph-name="uni1EBD" unicode="&#x1ebd;" 
d="M523 254h-366q1 -62 17 -102.5t45.5 -60.5t61.5 -27t77 -7q61 0 138 20l13 -64q-75 -25 -171 -25q-126 0 -193.5 63t-67.5 212q0 154 67 224.5t179 70.5q200 0 200 -275v-29zM440 314q0 87 -33.5 135.5t-95.5 48.5t-104 -47t-49 -137h282zM464 717q-11 -16 -38 -33
t-63 -17q-24 0 -65.5 18.5t-61.5 18.5q-36 0 -70 -25l-30 47q42 45 104 45q27 0 66.5 -18.5t56.5 -18.5q35 0 71 28z" />
    <glyph glyph-name="Ygrave" unicode="&#x1ef2;" 
d="M562 707l-228 -449v-258h-82v258l-213 449h88l130 -285l37 -99h3l40 99l139 285h86zM381 749l-201 109l32 62l195 -117z" />
    <glyph glyph-name="ygrave" unicode="&#x1ef3;" 
d="M563 546l-306 -766h-74l87 220h-35l-197 546h83l170 -491h3l190 491h79zM392 669l-31 -51l-197 121l36 61z" />
    <glyph glyph-name="endash" unicode="&#x2013;" 
d="M539 252h-480v70h480v-70z" />
    <glyph glyph-name="emdash" unicode="&#x2014;" 
d="M600 252h-600v70h600v-70z" />
    <glyph glyph-name="quoteleft" unicode="&#x2018;" 
d="M364 763q-15 -24 -27.5 -67t-12.5 -74v-131h-88v80q0 50 11 92t21 59.5t27 40.5h69z" />
    <glyph glyph-name="quoteright" unicode="&#x2019;" 
d="M364 683q0 -50 -11 -92t-21 -59.5t-27 -40.5h-69q15 25 27.5 67t12.5 74v131h88v-80z" />
    <glyph glyph-name="quotesinglbase" unicode="&#x201a;" 
d="M365 59q0 -50 -11.5 -92t-20.5 -59t-26 -41h-69q15 24 27.5 67t12.5 74v131h87v-80z" />
    <glyph glyph-name="quotedblleft" unicode="&#x201c;" 
d="M479 763q-15 -24 -27.5 -67t-12.5 -74v-131h-87v80q0 50 11.5 92t20.5 59t26 41h69zM248 763q-15 -24 -27 -67t-12 -74v-131h-88v80q0 50 11.5 92t20.5 59t26 41h69z" />
    <glyph glyph-name="quotedblright" unicode="&#x201d;" 
d="M479 683q0 -50 -11.5 -92t-20.5 -59t-26 -41h-69q15 25 27 67.5t12 73.5v131h88v-80zM248 683q0 -50 -11.5 -92t-20.5 -59t-26 -41h-69q15 25 27.5 67.5t12.5 73.5v131h87v-80z" />
    <glyph glyph-name="quotedblbase" unicode="&#x201e;" 
d="M480 59q0 -50 -11.5 -92t-20.5 -59t-26 -41h-68q15 24 27 67t12 74v131h87v-80zM250 59q0 -50 -11.5 -92t-20.5 -59t-26 -41h-69q15 24 27.5 66.5t12.5 74.5v131h87v-80z" />
    <glyph glyph-name="dagger" unicode="&#x2020;" 
d="M524 508l-189 7l7 -515h-84l8 515l-190 -7v74l189 -6l-7 178h83l-6 -178l189 6v-74z" />
    <glyph glyph-name="daggerdbl" unicode="&#x2021;" 
d="M500 171l-166 6l7 -177h-83l7 177l-165 -6v75l165 -7v275l-165 -6v74l165 -5l-7 177h83l-6 -177l165 5v-74l-166 6v-275l166 7v-75z" />
    <glyph glyph-name="bullet" unicode="&#x2022;" 
d="M445 352q0 -63 -42 -103.5t-103 -40.5t-103 40.5t-42 103.5t42 104t103 41q62 0 103.5 -39.5t41.5 -105.5z" />
    <glyph glyph-name="ellipsis" unicode="&#x2026;" 
d="M549 0h-88v91h88v-91zM338 0h-87v91h87v-91zM136 0h-87v91h87v-91z" />
    <glyph glyph-name="perthousand" unicode="&#x2030;" 
d="M270 560q0 -80 -24 -119t-84 -39q-57 0 -78 33.5t-21 117.5q0 83 23 122t79 39q61 0 83 -32.5t22 -121.5zM549 454l-514 -216l-20 53l514 214zM571 152q0 -81 -23.5 -119.5t-83.5 -38.5q-56 0 -74 38q-21 -38 -75 -38q-58 0 -79 33t-21 117q0 83 23 122.5t80 39.5
q59 0 77 -37q22 37 72 37q61 0 82.5 -32.5t21.5 -121.5zM214 560v10q0 23 -0.5 33.5t-2.5 26t-7 22t-15 11.5t-24 5q-30 0 -39 -26t-9 -89v-30.5t1.5 -24t4 -21.5t7.5 -14t13 -10.5t19 -2.5q32 0 42 26t10 84zM515 152v10q0 28 -1 41t-5 29t-14.5 22t-27.5 6q-29 0 -38 -26
t-9 -90v-7q0 -23 0.5 -33.5t2.5 -25.5t6.5 -21t13.5 -11t22 -5q32 0 41 26t9 85zM365 152v13q0 36 -1.5 52t-12 29.5t-33.5 13.5q-30 0 -39 -26.5t-9 -89.5v-30t1.5 -24t4 -22t7.5 -14t13 -10.5t19 -2.5q32 0 41 26t9 85z" />
    <glyph glyph-name="guilsinglleft" unicode="&#x2039;" 
d="M405 482l-173 -210l170 -215l-56 -43l-204 258l206 251z" />
    <glyph glyph-name="guilsinglright" unicode="&#x203a;" 
d="M428 272l-205 -258l-55 43l170 215l-173 210l57 41z" />
    <glyph glyph-name="exclamdbl" unicode="&#x203c;" 
d="M215 312l-3 -140h-70l-5 140v395h78v-395zM221 0h-90v87h90v-87zM462 312l-3 -140h-70l-5 140v395h78v-395zM468 0h-90v87h90v-87z" />
    <glyph glyph-name="fraction" unicode="&#x2044;" 
d="M582 555l-528 -470l-36 51l528 470z" />
    <glyph glyph-name="Euro" unicode="&#x20ac;" 
d="M562 19q-27 -10 -37.5 -13.5t-46.5 -9t-83 -5.5q-118 0 -186 64t-90 173h-81v64h73q-3 16 -3 57q0 44 4 64h-74v64h82q23 111 92.5 173t181.5 62q98 0 166 -35l-24 -60q-69 27 -143 27q-155 0 -191 -167h245v-64h-252q-2 -15 -2 -54q0 -46 3 -67h251v-64h-242
q40 -166 207 -166q61 0 127 21z" />
    <glyph glyph-name="afii61352" unicode="&#x2116;" 
d="M503 406q-96 0 -96 152q0 159 99 159q97 0 97 -156q0 -71 -25 -113t-75 -42zM504 456q20 0 30.5 18.5t12 37t1.5 49.5q0 22 -1 36t-4.5 32.5t-13.5 28t-25 9.5q-16 0 -25.5 -9t-13.5 -29t-4.5 -32t-0.5 -36q0 -25 1 -38t4.5 -31.5t13 -27t25.5 -8.5zM34 0v707h92
l183 -597l-3 54v543h67v-707h-99l-176 580l2 -41v-539h-66zM409 283v60h194v-60h-194z" />
    <glyph glyph-name="trademark" unicode="&#x2122;" 
d="M545 352h-58v213l4 66h-3l-22 -53l-37 -82h-56l-34 80l-21 56h-4l5 -67v-213h-58v355h74l47 -111l18 -53h3l21 53l47 111h74v-355zM225 653h-65v-301h-61v301h-76v54h202v-54z" />
    <glyph glyph-name="estimated" unicode="&#x212e;" 
d="M306 103q-101 0 -163 57.5t-62 159.5t63.5 169t165.5 67q94 0 151 -50.5t58 -142.5v-41h-351v-51q0 -46 41 -84.5t101 -38.5q97 0 157 79l33 -25q-65 -99 -194 -99zM168 362h263v22q0 63 -30 98t-91 35q-64 0 -103 -36t-39 -97v-22z" />
    <glyph glyph-name="arrowleft" unicode="&#x2190;" 
d="M500 266h-285l143 -145h-89l-180 180l180 178h89l-143 -145h285v-68z" />
    <glyph glyph-name="arrowup" unicode="&#x2191;" 
d="M474 237l-145 143v-285h-69v285l-145 -143v89l180 179l179 -179v-89z" />
    <glyph glyph-name="arrowright" unicode="&#x2192;" 
d="M500 299l-180 -178h-89l143 145h-285v68h285l-143 145h89z" />
    <glyph glyph-name="arrowdown" unicode="&#x2193;" 
d="M474 274l-181 -179l-178 179v89l145 -143v285h69v-285l145 143v-89z" />
    <glyph glyph-name="uni2196" unicode="&#x2196;" 
d="M410 135l-201 202l-2 -203l-62 63v254l253 -2l63 -62l-204 -2l202 -201z" />
    <glyph glyph-name="uni2197" unicode="&#x2197;" 
d="M381 134l-1 203l-201 -202l-49 49l202 201l-204 2l63 62l254 1l-1 -253z" />
    <glyph glyph-name="uni2198" unicode="&#x2198;" 
d="M444 149l-253 2l-63 62l204 2l-202 201l49 49l201 -202l2 203l62 -63v-254z" />
    <glyph glyph-name="uni2199" unicode="&#x2199;" 
d="M398 151l-254 -1l1 253l63 63l1 -203l201 202l49 -49l-202 -201l204 -2z" />
    <glyph glyph-name="uni21d0" unicode="&#x21d0;" 
d="M522 224h-253l69 -84l-55 -43l-205 258l206 250l57 -40l-69 -81h250v-64h-299l-55 -65l53 -66h301v-65z" />
    <glyph glyph-name="uni21D2" unicode="&#x21d2;" 
d="M522 355l-205 -258l-55 43l69 84h-253v65h301l53 66l-55 65h-299v64h250l-69 81l57 40z" />
    <glyph glyph-name="uni21E7" unicode="&#x21e7;" 
d="M600 1h-600v545h600v-545zM534 62v423h-468v-423h468zM455 271h-84v-160h-162v160h-84l167 202zM353 311l-62 89l-67 -89h35v-150h62v150h32z" />
    <glyph glyph-name="uni21EA" unicode="&#x21ea;" 
d="M600 1h-600v545h600v-545zM534 62v423h-468v-423h468zM455 271h-84v-48h-162v48h-84l167 202zM371 201v-120h-162v120h162zM353 311l-62 89l-67 -89h35v-38h62v38h32zM321 131v20h-62v-20h62z" />
    <glyph glyph-name="partialdiff" unicode="&#x2202;" 
d="M525 325q0 -178 -57.5 -258t-174.5 -80q-49 0 -85.5 9t-68 32t-48 68t-16.5 111q0 92 57 159.5t160 67.5q49 0 140 -17q-18 92 -79.5 151t-148.5 85l23 67q26 -7 50 -15.5t55 -24.5t57 -36.5t52 -51.5t44 -68t29 -88.5t11 -110.5zM442 319q0 4 -0.5 16t-0.5 16
q-94 16 -151 16q-67 0 -101.5 -46t-34.5 -124q0 -67 34.5 -105t99.5 -38q37 0 64 13t44 35t27.5 56.5t14.5 72.5t4 88z" />
    <glyph glyph-name="product" unicode="&#x220f;" 
d="M539 640h-69v-640h-83v640h-175v-640h-83v640h-68v67h478v-67z" />
    <glyph glyph-name="summation" unicode="&#x2211;" 
d="M518 0h-435v71l179 282l-180 282v72h436v-68h-348l181 -287l-179 -281h346v-71z" />
    <glyph glyph-name="minus" unicode="&#x2212;" 
d="M495 318h-390v71h390v-71z" />
    <glyph glyph-name="radical" unicode="&#x221a;" 
d="M591 837l-226 -837h-114l-114 475h-96v71h160l92 -411l15 -83h3l17 84l187 701h76z" />
    <glyph glyph-name="infinity" unicode="&#x221e;" 
d="M566 356q0 -71 -34 -116.5t-104 -45.5q-16 0 -31.5 4.5t-27 12t-22.5 18t-18 20t-13.5 20.5t-10 18.5t-7.5 14.5l-3 8q-52 -118 -132 -118q-128 0 -128 156q0 74 33 118t98 44q89 0 132 -118l6 12q6 12 12 23.5t18.5 27t25.5 27t32.5 20t40.5 8.5q133 0 133 -154z
M501 352h1q0 49 -16.5 72.5t-58.5 23.5q-22 0 -41.5 -13.5t-33 -33.5t-19 -30.5t-8.5 -18.5q31 -61 62 -82q21 -14 43 -14q42 0 56.5 25t14.5 71zM269 348q-40 100 -99 100q-42 0 -57 -25t-15 -70q0 -49 15.5 -73t58.5 -24q21 0 40 12.5t31.5 32.5t17.5 29.5t8 17.5z" />
    <glyph glyph-name="uni2220" unicode="&#x2220;" 
d="M596 217h-195q-5 -71 -52 -159l-44 24q41 76 46 135h-347l244 243q-47 38 -111 61l17 47l23 -8q60 -22 108 -63l139 140l36 -35l-140 -140q72 -83 81 -195h195v-50zM351 267q-7 93 -67 159l-159 -159h226z" />
    <glyph glyph-name="integral" unicode="&#x222b;" 
d="M519 649q-9 -1 -34 -3t-34 -3t-29 -5t-28.5 -9t-21.5 -14.5t-18.5 -22.5t-10 -32t-4.5 -43v-546q0 -51 -14.5 -88.5t-37.5 -59t-57.5 -34t-67.5 -16.5t-75 -4l-6 68q9 1 27.5 2.5t27.5 2.5t25 3t23.5 5l20 8t19 11.5t14.5 16t12 21.5t6.5 28t2.5 35v548q0 51 15 88
t38 58.5t58 34t68.5 16.5t75.5 4z" />
    <glyph glyph-name="approxequal" unicode="&#x2248;" 
d="M537 437q-61 -64 -131 -64q-53 0 -117.5 31t-99.5 31q-45 0 -88 -30l-38 54q62 56 132 56q53 0 112 -31t100 -31t88 33zM537 253q-61 -64 -131 -64q-53 0 -117.5 31t-99.5 31q-45 0 -88 -30l-38 54q62 56 132 56q53 0 112 -31t100 -31q44 0 88 33z" />
    <glyph glyph-name="notequal" unicode="&#x2260;" 
d="M495 224h-238l-81 -130h-67l83 130h-87v65h126l83 131h-209v64h248l69 110h64l-68 -110h77v-64h-117l-82 -131h199v-65z" />
    <glyph glyph-name="uni2261" unicode="&#x2261;" 
d="M495 524h-390v64h390v-64zM495 321h-390v65h390v-65zM495 126h-390v64h390v-64z" />
    <glyph glyph-name="uni2262" unicode="&#x2262;" 
d="M495 673l-43 -85h43v-64h-75l-71 -138h146v-65h-177l-68 -131h245v-64h-276l-43 -85h-67l43 85h-47v64h80l67 131h-147v65h180l71 138h-251v64h282l45 85h63z" />
    <glyph glyph-name="lessequal" unicode="&#x2264;" 
d="M491 143l-382 160v101l382 159v-74l-326 -136l326 -135v-75zM495 0h-390v69h390v-69z" />
    <glyph glyph-name="greaterequal" unicode="&#x2265;" 
d="M491 303l-382 -159v74l327 135l-327 136v74l382 -159v-101zM495 0h-390v69h390v-69z" />
    <glyph glyph-name="uni22C6" unicode="&#x22c6;" 
d="M510 334l-157 -51l96 -135l-52 -37l-97 134l-97 -134l-52 37l96 135l-157 51l20 62l158 -56v170h64l-1 -169l159 55z" />
    <glyph glyph-name="uni2308" unicode="&#x2308;" 
d="M511 639h-101v61h101v-61zM310 639h-100v61h100v-61zM110 639h-38l-1 -40h-61v101h100v-61zM72 400h-62v101h62v-101zM72 200h-62v101h62v-101zM72 0h-62v101h62v-101zM72 -200h-62v101h62v-101z" />
    <glyph glyph-name="uni2309" unicode="&#x2309;" 
d="M511 599h-61l-1 40h-38v61h100v-101zM511 400h-62v101h62v-101zM311 639h-100v61h100v-61zM511 200h-62v101h62v-101zM111 639h-100v61h100v-61zM511 0h-62v101h62v-101zM511 -200h-62v101h62v-101z" />
    <glyph glyph-name="uni230a" unicode="&#x230a;" 
d="M72 600h-62v100h62v-100zM72 400h-62v100h62v-100zM511 -200h-101v61h101v-61zM72 200h-62v100h62v-100zM311 -200h-101v61h101v-61zM72 0h-62v100h62v-100zM111 -200h-101v101h61l1 -40l39 -1v-60z" />
    <glyph glyph-name="uni230B" unicode="&#x230b;" 
d="M550 600h-61v100h61v-100zM550 400h-61v100h61v-100zM150 -200h-101v61h101v-61zM550 200h-61v100h61v-100zM350 -200h-101v61h101v-61zM550 0h-61v100h61v-100zM550 -200h-101v60l40 1v40h61v-101z" />
    <glyph glyph-name="uni2318" unicode="&#x2318;" 
d="M538 202q0 -34 -24 -58t-58 -24t-58 24t-24 58v32h-148v-32q0 -34 -24 -58t-58 -24t-58 24t-24 58t24 58t58 24h32v149h-32q-34 0 -58 23.5t-24 58.5q0 34 24 58t58 24t58 -24t24 -58v-32h148v31q0 34 24 58t58 24t58 -24t24 -58t-24 -58t-58 -24h-31v-148h31
q34 0 58 -24t24 -58zM375 284v149h-149v-149h149zM488 514q0 14 -9 23t-23 9t-23 -9t-9 -23v-31h1v-1h31q14 0 23 9t9 23zM488 202q0 14 -9 23t-23 9h-32v-32q0 -13 9.5 -22.5t22.5 -9.5t22.5 9.5t9.5 22.5zM176 483v32q0 13 -9.5 22.5t-22.5 9.5t-22.5 -9.5t-9.5 -22.5
t9 -22.5t23 -9.5h32zM176 234h-32q-14 0 -23 -9t-9 -23q0 -13 9.5 -22.5t22.5 -9.5t22.5 9.5t9.5 22.5v32z" />
    <glyph glyph-name="uni2325" unicode="&#x2325;" 
d="M600 1h-600v545h600v-545zM534 62v423h-468v-423h468zM459 330h-149v50h149v-50zM460 160h-162l-111 170h-57v50h87l111 -170h132v-50z" />
    <glyph glyph-name="uni2360" unicode="&#x2360;" 
d="M600 1h-600v545h600v-545zM534 62v423h-468v-423h468zM489 351h-379v50h379v-50zM468 145h-67l-107 107l-110 -107h-66l176 175z" />
    <glyph glyph-name="uni2370" unicode="&#x2370;" 
d="M600 1h-600v545h600v-545zM534 62v423h-468v-423h468zM368 351q0 -19 -11 -35.5t-23.5 -26t-23.5 -22t-11 -24.5q0 -11 4 -37l-41 -8q-7 32 -7 44q0 24 15.5 44.5t31 36t15.5 27.5q0 20 -12 32.5t-23.5 15.5t-37.5 9l10 41q54 -7 84 -27t30 -70zM314 109h-59v61h59v-61z
" />
    <glyph glyph-name="uni23af" unicode="&#x23af;" 
d="M511 -200h-101v61h101v-61zM310 -200h-100v61h100v-61zM110 -200h-100v61h100v-61z" />
    <glyph glyph-name="uni23d0" unicode="&#x23d0;" 
d="M114 600h-62v100h62v-100zM114 400h-62v100h62v-100zM114 200h-62v100h62v-100zM114 0h-62v100h62v-100zM114 -200h-62v100h62v-100z" />
    <glyph glyph-name="uni241B" unicode="&#x241b;" 
d="M600 1h-600v545h600v-545zM534 62v423h-468v-423h468zM507 350l-18 -25q-18 12 -33 12q-20 0 -28 -11t-8 -44q0 -35 7.5 -46t30.5 -11q14 0 36 7l11 -27q-24 -11 -51 -11q-41 0 -55 23t-14 63q0 88 70 88q27 0 52 -18zM360 244q0 -50 -66 -50q-28 0 -58 14l14 27
q29 -10 43 -10q34 0 34 18q0 10 -13 17.5t-29 13t-29 18t-13 30.5q0 45 58 45q23 0 51 -11l-10 -28q-27 9 -41 9q-25 0 -25 -13q0 -11 21 -19.5t42 -22.5t21 -38zM215 196h-114v170h108v-30h-74v-39h69v-31h-69v-40h80v-30z" />
    <glyph glyph-name="uni2421" unicode="&#x2421;" 
d="M600 1h-600v545h600v-545zM534 62v423h-468v-423h468zM462 249h-246l90 -90h-67l-117 117l120 118h67l-93 -93h246v-52z" />
    <glyph glyph-name="uni2588" unicode="&#x2588;" 
d="M600 -220h-600v1000h600v-1000z" />
    <glyph glyph-name="uni2591" unicode="&#x2591;" 
d="M550 730h-50v50h50v-50zM600 630h-50v50h50v-50zM450 730h-50v50h50v-50zM500 630h-50v50h50v-50zM350 730h-50v50h50v-50zM550 530h-50v50h50v-50zM400 630h-50v50h50v-50zM600 430h-50v50h50v-50zM250 730h-50v50h50v-50zM450 530h-50v50h50v-50zM300 630h-50v50h50
v-50zM500 430h-50v50h50v-50zM150 730h-50v50h50v-50zM350 530h-50v50h50v-50zM550 330h-50v50h50v-50zM200 630h-50v50h50v-50zM400 430h-50v50h50v-50zM600 230h-50v50h50v-50zM50 730h-50v50h50v-50zM250 530h-50v50h50v-50zM450 330h-50v50h50v-50zM100 630h-50v50h50
v-50zM300 430h-50v50h50v-50zM500 230h-50v50h50v-50zM150 530h-50v50h50v-50zM350 330h-50v50h50v-50zM550 130h-50v50h50v-50zM200 430h-50v50h50v-50zM400 230h-50v50h50v-50zM600 30h-50v50h50v-50zM50 530h-50v50h50v-50zM250 330h-50v50h50v-50zM450 130h-50v50h50
v-50zM100 430h-50v50h50v-50zM300 230h-50v50h50v-50zM500 30h-50v50h50v-50zM150 330h-50v50h50v-50zM350 130h-50v50h50v-50zM550 -70h-50v50h50v-50zM200 230h-50v50h50v-50zM400 30h-50v50h50v-50zM600 -170h-50v50h50v-50zM50 330h-50v50h50v-50zM250 130h-50v50h50
v-50zM450 -70h-50v50h50v-50zM100 230h-50v50h50v-50zM300 30h-50v50h50v-50zM500 -170h-50v50h50v-50zM150 130h-50v50h50v-50zM350 -70h-50v50h50v-50zM200 30h-50v50h50v-50zM400 -170h-50v50h50v-50zM50 130h-50v50h50v-50zM250 -70h-50v50h50v-50zM100 30h-50v50h50
v-50zM300 -170h-50v50h50v-50zM150 -70h-50v50h50v-50zM200 -170h-50v50h50v-50zM50 -70h-50v50h50v-50zM100 -170h-50v50h50v-50z" />
    <glyph glyph-name="uni2592" unicode="&#x2592;" 
d="M601 -220h-51v50h-49v-50h-51v50h-49v-50h-51v50h-49v-50h-51v50h-49v-50h-51v50h-49v-50h-51v50h-51v51h51v49h-51v51h51v49h-51v51h51v49h-51v51h51v49h-51v51h51v48h-51v51h51v49h-51v51h51v49h-51v51h51v49h-51v51h51v49h-51v51h51v-50h49v50h51v-50h49v50h51v-50h49
v50h51v-50h49v50h51v-50h49v50h51v-50h51v-51h-51v-49h51v-51h-51v-49h51v-51h-51v-49h51v-51h-51v-49h51v-50h-51v-49h51v-51h-51v-49h51v-51h-51v-49h51v-51h-51v-49h51v-51h-51v-49h51v-51zM550 680v49h-50v-49h50zM550 580v49h-50v-49h50zM499 630l1 49h-50v-49h49z
M449 680l1 49h-50v-49h49zM550 480v49h-50v-49h50zM499 530l1 49h-50v-49h49zM449 580l1 49h-50v-49h49zM399 630l1 49h-50v-49h49zM349 680l1 49h-50v-49h49zM550 380v49h-50v-49h50zM499 430l1 49h-50v-49h49zM449 480l1 49h-50v-49h49zM399 530l1 49h-50v-49h49zM349 580
l1 49h-50v-49h49zM299 630l1 49h-50v-49h49zM249 680l1 49h-50v-49h49zM550 281v48h-50v-48h50zM499 330l1 49h-50v-49h49zM449 380l1 49h-50v-49h49zM399 430l1 49h-50v-49h49zM349 480l1 49h-50v-49h49zM299 530l1 49h-50v-49h49zM249 580l1 49h-50v-49h49zM199 630l1 49
h-50v-49h49zM149 680l1 49h-50v-49h49zM550 181v49h-50v-49h50zM499 231l1 49h-50v-49h49zM449 281l1 48h-50v-48h49zM399 330l1 49h-50v-49h49zM349 380l1 49h-50v-49h49zM299 430l1 49h-50v-49h49zM249 480l1 49h-50v-49h49zM199 530l1 49h-50v-49h49zM149 580l1 49h-50
v-49h49zM99 630l1 49h-50v-49h49zM550 81v49h-50v-49h50zM499 131l1 49h-50v-49h49zM449 181l1 49h-50v-49h49zM399 231l1 49h-50v-49h49zM349 281l1 48h-50v-48h49zM299 330l1 49h-50v-49h49zM249 380l1 49h-50v-49h49zM199 430l1 49h-50v-49h49zM149 480l1 49h-50v-49h49z
M99 530l1 49h-50v-49h49zM550 -19v49h-50v-49h50zM499 31l1 49h-50v-49h49zM449 81l1 49h-50v-49h49zM399 131l1 49h-50v-49h49zM349 181l1 49h-50v-49h49zM299 231l1 49h-50v-49h49zM249 281l1 48h-50v-48h49zM199 330l1 49h-50v-49h49zM149 380l1 49h-50v-49h49zM99 430
l1 49h-50v-49h49zM550 -119v49h-50v-49h50zM499 -69l1 49h-50v-49h49zM449 -19l1 49h-50v-49h49zM399 31l1 49h-50v-49h49zM349 81l1 49h-50v-49h49zM299 131l1 49h-50v-49h49zM249 181l1 49h-50v-49h49zM199 231l1 49h-50v-49h49zM149 281l1 48h-50v-48h49zM99 330l1 49
h-50v-49h49zM500 -169v49h-50v-49h50zM449 -119l1 49h-50v-49h49zM399 -69l1 49h-50v-49h49zM349 -19l1 49h-50v-49h49zM299 31l1 49h-50v-49h49zM249 81l1 49h-50v-49h49zM199 131l1 49h-50v-49h49zM149 181l1 49h-50v-49h49zM99 231l1 49h-50v-49h49zM400 -169v49h-50v-49
h50zM349 -119l1 49h-50v-49h49zM299 -69l1 49h-50v-49h49zM249 -19l1 49h-50v-49h49zM199 31l1 49h-50v-49h49zM149 81l1 49h-50v-49h49zM99 131l1 49h-50v-49h49zM300 -169v49h-50v-49h50zM249 -119l1 49h-50v-49h49zM199 -69l1 49h-50v-49h49zM149 -19l1 49h-50v-49h49z
M99 31l1 49h-50v-49h49zM200 -169v49h-50v-49h50zM149 -119l1 49h-50v-49h49zM99 -69l1 49h-50v-49h49zM100 -169v49h-50v-49h50z" />
    <glyph glyph-name="uni2593" unicode="&#x2593;" 
d="M600 -220h-50v50h-50v-50h-50v50h-51l1 -50h-50v50h-50v-50h-50v50h-50v-50h-50v50h-50v-50h-50v50h-50v150h50v50h-50v150h50v50h-50v150h50v50h-50v150h50v50h-50v150h600v-50h-50v-50h50v-150h-50v-50h50v-150h-50v-50h50v-150h-50v-50h50v-150h-50v-50h50v-100z
M500 680v50h-50v-50h50zM550 580v50h-50v-50h50zM400 680v50h-50v-50h50zM450 580v50h-50v-50h50zM300 680v50h-50v-50h50zM500 480v50h-50v-50h50zM350 580v50h-50v-50h50zM550 380v50h-50v-50h50zM200 680v50h-50v-50h50zM400 480v50h-50v-50h50zM250 580v50h-50v-50h50z
M450 380v50h-50v-50h50zM100 680v50h-50v-50h50zM300 480v50h-50v-50h50zM500 280v50h-50v-50h50zM150 580v50h-50v-50h50zM350 380v50h-50v-50h50zM550 180v50h-50v-50h50zM200 480v50h-50v-50h50zM400 280v50h-50v-50h50zM250 380v50h-50v-50h50zM450 180v50h-50v-50h50z
M100 480v50h-50v-50h50zM300 280v50h-50v-50h50zM500 80v50h-50v-50h50zM150 380v50h-50v-50h50zM350 180v50h-50v-50h50zM550 -20v50h-50v-50h50zM200 280v50h-50v-50h50zM400 80v50h-50v-50h50zM250 180v50h-50v-50h50zM450 -20v50h-50v-50h50zM100 280v50h-50v-50h50z
M300 80v50h-50v-50h50zM500 -120v50h-50v-50h50zM150 180v50h-50v-50h50zM350 -20v50h-50v-50h50zM200 80v50h-50v-50h50zM400 -120v50h-50v-50h50zM250 -20v50h-50v-50h50zM100 80v50h-50v-50h50zM300 -120v50h-50v-50h50zM150 -20v50h-50v-50h50zM200 -120v50h-50v-50h50z
M100 -120v50h-50v-50h50z" />
    <glyph glyph-name="uni25a0" unicode="&#x25a0;" 
d="M502 97h-404v404h404v-404z" />
    <glyph glyph-name="uni25a1" unicode="&#x25a1;" 
d="M502 97h-404v404h404v-404zM442 158v283h-283v-283h283z" />
    <glyph glyph-name="uni25AD" unicode="&#x25ad;" 
d="M600 1h-600v779h600v-779zM534 67v648h-467v-648h467z" />
    <glyph glyph-name="uni25AF" unicode="&#x25af;" 
d="M600 -220h-600v1000h600v-1000zM534 -155v870h-467v-870h467z" />
    <glyph glyph-name="uni25B4" unicode="&#x25b4;" 
d="M600 1h-600v545h600v-545zM534 62v423h-468v-423h468zM397 225h-194l97 163z" />
    <glyph glyph-name="uni25B7" unicode="&#x25b7;" 
d="M541 300l-446 -250v500zM409 300l-247 146v-290z" />
    <glyph glyph-name="uni25B8" unicode="&#x25b8;" 
d="M600 1h-600v545h600v-545zM534 62v423h-468v-423h468zM395 276l-162 -96v193z" />
    <glyph glyph-name="uni25BE" unicode="&#x25be;" 
d="M600 1h-600v545h600v-545zM534 62v423h-468v-423h468zM397 322l-97 -163l-97 163h194z" />
    <glyph glyph-name="uni25C1" unicode="&#x25c1;" 
d="M502 50l-446 250l446 250v-500zM435 156v290l-248 -146z" />
    <glyph glyph-name="uni25C2" unicode="&#x25c2;" 
d="M600 1h-600v545h600v-545zM534 62v423h-468v-423h468zM353 180l-162 96l162 97v-193z" />
    <glyph glyph-name="uni25c6" unicode="&#x25c6;" 
d="M550 299l-250 -250l-250 250l250 250z" />
    <glyph glyph-name="uni25c7" unicode="&#x25c7;" 
d="M557 299l-257 -257l-257 257l257 257zM476 300l-176 176l-176 -176l176 -176z" />
    <glyph glyph-name="lozenge" unicode="&#x25ca;" 
d="M535 353l-189 -353h-104l-177 355l189 353h103zM450 351l-145 300l-155 -294l145 -300z" />
    <glyph glyph-name="uni25CB" unicode="&#x25cb;" 
d="M551 300q0 -104 -73 -177q-74 -74 -178 -74q-103 0 -177 74t-74 177q0 104 74 178q73 73 177 73q105 0 178 -73t73 -178zM489 300q0 79 -55 134t-134 55q-78 0 -133 -55q-56 -56 -56 -134q0 -77 56 -133t133 -56q78 0 134 56q55 55 55 133z" />
    <glyph glyph-name="uni25CF" unicode="&#x25cf;" 
d="M500 300q0 -81 -58 -141q-59 -59 -142 -59q-82 0 -141 59t-59 141t59 141t141 59q83 0 141 -58q59 -59 59 -142z" />
    <glyph glyph-name="uni2610" unicode="&#x2610;" 
d="M551 56h-403v41h-50v404h404v-50h49v-395zM446 153v292h-292v-292h292z" />
    <glyph glyph-name="uni2611" unicode="&#x2611;" 
d="M551 56h-403v41h-50v404h404v-50h49v-395zM446 153v292h-292v-292h292zM365 416h65l-141 -232h-39l-71 141h66l30 -63z" />
    <glyph glyph-name="uni2762" unicode="&#x2762;" 
d="M600 1h-600v545h600v-545zM534 62v423h-468v-423h468zM314 219h-59v215h59v-215zM314 109h-59v61h59v-61z" />
    <glyph glyph-name="fi" unicode="&#xfb01;" 
d="M520 0h-80v480h-251v-480h-79v480h-76v66h75v26q0 110 48.5 151.5t136.5 41.5q19 0 69 -3t77 -3q20 0 60 4l13 -59q-35 -13 -98 -13q-25 0 -66 3t-55 3q-59 0 -82.5 -31t-23.5 -95v-25h332v-546z" />
    <glyph glyph-name="fl" unicode="&#xfb02;" 
d="M522 0h-80v692q-28 -2 -77.5 2.5t-68.5 4.5q-59 0 -82.5 -29.5t-23.5 -87.5v-36h106v-66h-106v-480h-78v480h-77v66h76v32q0 187 185 187q18 0 67.5 -3.5t75.5 -3.5q11 0 26 0.5t33 2t24 1.5v-762z" />
    <glyph glyph-name="zero.zero" 
d="M355 353l-55 -55l-53 55l53 54zM542 364q0 -179 -57 -277t-190 -98q-69 0 -117 27t-73.5 77.5t-36 110.5t-10.5 138q0 376 253 376q58 0 101 -21t67.5 -53t39 -81t19 -94.5t4.5 -104.5zM461 358q0 62 -6 108.5t-21.5 91.5t-48 69t-80.5 24q-50 0 -84.5 -25t-51.5 -71
t-24 -95.5t-7 -113.5q0 -290 161 -290q49 0 82.5 24t50 68.5t23 94t6.5 115.5z" />
    <glyph glyph-name="ring.cap" 
d="M419 734q0 -50 -33 -79t-84 -29t-86 26.5t-35 79.5q0 51 35 80.5t83 29.5q46 0 83 -26.5t37 -81.5zM365 733q0 28 -19 45.5t-46 17.5q-30 0 -47.5 -16.5t-17.5 -44.5t18 -46t47 -18q30 0 47.5 17t17.5 45z" />
    <glyph glyph-name="apple" 
d="M399 274h-7v11h-11v6h-6v17h6v6h18v-40zM222 291v-6h-11v-11h-6v40h17v-6h6v-17h-6zM467 285h-18v6h-6v17h6v6h12v-6h6v-12h-17v-5h17v-6zM330 285h-6v23h-11v-23h-6v40h6v-11h12v-6h5v-23zM433 285h-18v6h-6v23h7v-23h10v23h7v-29zM358 303v5h-11v6h12v-6h5v-12h-17v-5
h17v-6h-17v6h-6v17h6v-5h11zM160 285h-12v6h-6v17h-5v6h5v6h7v-6h11v-6h-11v-17h11v-6zM296 285h-12v6h-5v17h-6v6h6v6h6v-6h11v-6h-11v-17h11v-6zM256 291v17h-11v6h12v-6h5v-17h-5v-6h-12v6h-6v17h6v-17h11zM177 291h11v-6h-5v-5h-6v-6h-6v6h5v11h-5v23h6v-23zM597 296h-5
v-5h-7v5h-5v7h5v5h7v-5h5v-7zM222 291v17h-11v-17h11zM558 296h-6v-5h-6v5h-6v7h6v5h6v-5h6v-7zM24 296h-6v-5h-6v5h-6v7h6v5h6v-5h6v-7zM115 296h-6v-5h-6v5h-6v7h6v5h6v-5h6v-7zM506 296h-5v-5h-6v5h-6v7h6v5h6v-5h5v-7zM63 296h-5v-5h-6v5h-6v7h6v5h6v-5h5v-7zM392 291
v17h-10v-17h10zM194 291h-6v23h6v-23zM98 308h-7v5h-5v7h6v-6h6v-6zM126 313h-6v-5h-6v6h6v6h6v-7zM518 313h-6v-5h-6v6h6v6h6v-7zM489 308h-6v5h-5v7h6v-6h5v-6zM98 285h-6v-5h-6v5h5v6h7v-6zM518 280h-6v5h-6v6h6v-6h6v-5zM126 280h-6v5h-6v6h6v-6h6v-5zM489 285h-5v-5h-6
v5h5v6h6v-6zM460 303v5h-10v-5h10zM541 308h-7v6h7v-6zM541 285h-7v6h7v-6zM563 308h-6v6h6v-6zM69 308h-6v6h6v-6zM563 285h-6v6h6v-6zM69 285h-6v6h6v-6zM46 285h-6v6h6v-6zM46 308h-6v6h6v-6z" />
    <glyph glyph-name="ampersand.alt1" 
d="M566 9q-54 -18 -93 -18q-81 0 -104 25.5t-23 110.5v194h-175v-253h134v-68h-215v707h214v-67h-133v-251h175v107h78v-107h102v-68h-102v-188q0 -49 9 -61t45 -12q29 0 73 11z" />
    <glyph glyph-name="ctrl" 
d="M600 1h-600v545h600v-545zM534 62v423h-468v-423h468zM408 221h-34l-23 46h-13v-46h-29v131h44q44 0 44 -41q0 -24 -18 -35zM191 338l-16 -23q-14 10 -24 10q-12 0 -17 -7t-5 -30q0 -26 5 -33t19 -7q10 0 27 6l9 -25q-19 -9 -39 -9q-51 0 -51 66q0 68 52 68q18 0 40 -16z
M295 324h-34v-103h-29v103h-34v28h97v-28zM502 221h-77v131h29v-103h48v-28zM367 310q0 9 -3.5 12t-13.5 3h-12v-30h8q21 0 21 15z" />
    <glyph glyph-name="hvhorizform" 
d="M511 639h-101v61h101v-61zM310 639h-100v61h100v-61zM110 639h-100v61h100v-61z" />
    <glyph glyph-name="i_e" 
d="M458 55q33 0 84 11l15 -58q-42 -18 -119 -18q-98 0 -134 62t-36 215q0 118 15.5 181.5t47 87t88.5 23.5q81 0 109 -63.5t28 -208.5v-29h-217q0 -125 25 -164t94 -39zM163 0h-73v546h73v-546zM483 316q0 47 -2 76.5t-8.5 56t-20 38.5t-35.5 12q-47 0 -62 -41.5t-15 -141.5
h143zM192 724l-66 -65l-63 65l63 64z" />
    <glyph glyph-name="off" 
d="M319 284h-52v326h52v-326zM550 300q0 -103 -73 -176q-74 -74 -177 -74q-101 0 -176 73q-74 74 -74 177q0 69 34.5 127t97.5 94l25 -43q-107 -66 -107 -178q0 -82 59 -141t141 -59q84 0 141 59q59 59 59 141q0 51 -27 101t-92 83l31 41q52 -23 95 -83.5t43 -141.5z" />
    <glyph glyph-name="c_h" 
d="M547 0h-69v420q0 24 -1 35.5t-11 23.5t-30 12q-38 0 -80 -38v-453h-69v754h68v-244q48 48 102 48q52 0 71 -32t19 -90v-436zM259 5q-31 -11 -74 -11q-29 0 -51.5 9.5t-37 23.5t-25 38.5t-15.5 44.5t-7.5 53.5t-3 53t-0.5 53.5q0 43 2 76t10.5 75.5t23 70.5t42 47.5
t65.5 19.5q41 0 65 -16l-16 -55q-19 9 -48 9q-19 0 -32.5 -10.5t-21.5 -34t-12.5 -40.5t-6.5 -53t-2 -47.5v-44.5v-40q0 -29 1 -49.5t6 -45.5t13.5 -40.5t25 -26.5t38.5 -11q26 0 48 7z" />
    <glyph glyph-name="s_s" 
d="M517 126q0 -68 -36.5 -102.5t-86.5 -34.5q-57 0 -96 17l17 64q36 -14 70 -14q26 0 41.5 18.5t15.5 51.5q0 30 -19.5 69t-43 72t-43 77.5t-19.5 85.5q0 61 32.5 94.5t84.5 33.5q50 0 81 -14l-16 -60q-25 9 -57 9q-23 0 -37.5 -16t-14.5 -46q0 -31 20 -70t43.5 -71.5
t43.5 -77.5t20 -86zM263 126q0 -68 -36.5 -102.5t-86.5 -34.5q-58 0 -97 17l17 64q38 -14 70 -14q26 0 41.5 18.5t15.5 51.5q0 30 -19.5 69t-43 72t-43 77.5t-19.5 85.5q0 61 32.5 94.5t84.5 33.5q50 0 81 -14l-16 -60q-24 9 -57 9q-23 0 -37.5 -16t-14.5 -46q0 -31 20 -70
t44 -71.5t44 -77.5t20 -86z" />
    <glyph glyph-name="S_S" 
d="M564 151q0 -87 -43 -124.5t-111 -37.5q-60 0 -108 22l19 63q51 -18 86 -18t59 21.5t24 71.5q0 41 -26 95.5t-57 100.5t-57 106t-26 111q0 79 38.5 117t94.5 38q49 0 89 -18l-21 -59q-32 11 -61 11q-66 0 -66 -81q0 -42 26 -97.5t57 -101.5t57 -107t26 -113zM281 151
q1 -87 -42 -124.5t-111 -37.5q-60 0 -109 22l20 63q51 -18 86 -18t58.5 21.5t23.5 71.5q0 41 -26 95.5t-56.5 100.5t-56.5 106t-26 111q0 79 38.5 117t94.5 38q49 0 88 -18l-20 -59q-33 11 -61 11q-66 0 -66 -81q0 -42 26 -97.5t56.5 -101.5t56.5 -107t26 -113z" />
    <glyph glyph-name="exclam_question" 
d="M546 508q0 -41 -17.5 -81t-38.5 -66t-38.5 -59.5t-17.5 -64.5q0 -33 8 -59l-68 -10q-13 46 -13 72q0 43 16.5 83t35.5 65t35.5 56t16.5 59q0 122 -131 138l15 68q197 -17 197 -201zM184 312l-3 -140h-71l-5 140v395h79v-395zM456 0h-90v87h90v-87zM189 0h-90v87h90v-87z
" />
    <glyph glyph-name="I_E" 
d="M560 0h-262v707h244v-67h-163v-251h143v-68h-143v-253h181v-68zM169 1h-80v706h80v-706z" />
    <glyph glyph-name="C_H" 
d="M557 0h-71v321h-116v-321h-72v707h71v-320h116v320h72v-707zM263 702l-22 -64q-30 9 -51 9q-49 0 -67 -63t-18 -225q0 -89 2.5 -140t11.5 -90.5t26 -55t45 -15.5q31 0 64 12l18 -60q-38 -20 -104 -20q-36 0 -61.5 17.5t-40.5 46t-23.5 77t-11 98t-2.5 120.5q0 70 4 122.5
t14 100.5t27.5 78.5t45 48t65.5 17.5q49 0 78 -14z" />
    <glyph glyph-name="L_L" 
d="M555 0h-221v707h78v-637h143v-70zM283 0h-221v707h78v-637h143v-70z" />
    <glyph glyph-name="l_l" 
d="M473 0h-79v754h79v-754zM190 0h-78v754h78v-754z" />
    <glyph glyph-name="r_r" 
d="M581 549l-14 -66q-20 5 -37 5q-10 0 -19 -1.5t-17.5 -5t-14.5 -6t-13.5 -9.5t-11 -9.5t-11 -11.5t-9.5 -11.5t-9.5 -13t-8.5 -11.5v-409h-75v546h68l5 -69q52 79 130 79q14 0 37 -7zM299 549l-13 -66q-20 5 -37 5q-10 0 -19 -1.5t-17.5 -5t-14.5 -6t-13.5 -9.5t-11 -9.5
t-11 -11.5t-9.5 -11.5t-9.5 -13t-8.5 -11.5v-409h-75v546h68l5 -69q52 79 130 79q15 0 36 -7z" />
    <glyph glyph-name="R_R" 
d="M567 0h-71l-56 285q-27 -5 -28 -5h-16v-280h-72v707h106q119 0 119 -207q0 -162 -51 -198zM291 0h-72l-55 285q-27 -5 -29 -5h-16v-280h-71v707h105q119 0 119 -207q0 -163 -50 -198zM478 494q0 89 -12 121t-47 32h-24v-304h21q22 0 35 10.5t18.5 34t7 45t1.5 61.5z
M201 494q0 90 -11.5 121.5t-46.5 31.5h-24v-304h21q15 0 25.5 4.5t17 16t10.5 22.5t5.5 31.5t2 35t0.5 41.5z" />
    <glyph glyph-name="caron.alt" 
d="M479 756l-29 -197h-58l16 197h71z" />
    <glyph glyph-name="dieresis.cap" 
d="M463 807l-57 -57l-57 57l56 57zM249 807l-55 -57l-57 57l56 57z" />
    <glyph glyph-name="breve.cap" 
d="M298 758q-106 0 -161 84l42 39q45 -57 122 -57q75 0 121 56l41 -38q-7 -13 -21.5 -29t-54 -35.5t-89.5 -19.5z" />
    <glyph glyph-name="acute.cap" 
d="M416 858l-201 -109l-26 54l195 117z" />
    <glyph glyph-name="macron.cap" 
d="M446 781h-292v66h292v-66z" />
    <glyph glyph-name="caron.cap" 
d="M484 820l-188 -82l-181 82l27 54l154 -65l160 65z" />
    <glyph glyph-name="dotaccent.cap" 
d="M362 843l-63 -64l-61 64l61 62z" />
    <glyph glyph-name="hungarumlaut.cap" 
d="M504 855l-193 -108l-26 54l188 115zM299 895l-161 -151l-42 43l151 156z" />
    <glyph glyph-name="circumflex.cap" 
d="M488 812l-28 -51l-158 84l-159 -84l-31 50l189 109z" />
    <glyph glyph-name="tilde.cap" 
d="M464 804q-12 -16 -39 -33t-62 -17q-24 0 -65.5 19t-61.5 19q-37 0 -70 -26l-30 48q41 44 104 44q27 0 66.5 -18t56.5 -18q32 0 71 27z" />
    <glyph glyph-name="grave.cap" 
d="M381 749l-201 109l32 62l195 -117z" />
    <glyph glyph-name="commaaccent" 
d="M279 -58l-28 -197h-58l16 197h70z" />
    <glyph glyph-name="Jacute" 
d="M469 231q0 -68 -32 -117.5t-87.5 -75t-116.5 -37t-133 -12.5l-7 71q294 13 294 169v411h-292v67h374v-476zM429 858l-201 -109l-26 54l195 117z" />
    <glyph glyph-name="Ymacron" 
d="M562 707l-228 -449v-258h-82v258l-213 449h88l130 -285l37 -99h3l40 99l139 285h86zM446 781h-292v66h292v-66z" />
    <glyph glyph-name="jacute" 
d="M420 -47q0 -175 -208 -175q-86 0 -179 35l23 67q93 -31 159 -31q64 0 95.5 25.5t31.5 82.5v525h-270v64h348v-593zM477 739l-197 -121l-31 52l190 130z" />
    <glyph glyph-name="uni0045_uni02DA" 
d="M531 0h-419v707h401v-67h-318v-251h298v-68h-298v-253h336v-68zM433 851q0 -50 -33 -79t-84 -29t-86 26.5t-35 79.5q0 51 35 80.5t83 29.5q46 0 83 -26.5t37 -81.5zM379 850q0 28 -19 45.5t-46 17.5q-30 0 -47.5 -16.5t-17.5 -44.5t18 -46t47 -18q30 0 47.5 17t17.5 45z
" />
    <glyph glyph-name="uni0046_uni00AF" 
d="M475 781h-292v66h292v-66zM540 640h-335v-271h316v-67h-316v-302h-82v707h417v-67z" />
    <glyph glyph-name="uni0050_uni00AF" 
d="M560 486q0 -102 -67 -166.5t-205 -64.5h-89v-255h-84v707h225q105 0 162.5 -57t57.5 -164zM474 481q0 83 -38 121t-120 38h-117v-316h95q180 0 180 157zM446 781h-292v66h292v-66z" />
    <glyph glyph-name="uni0052_uni0060" 
d="M354 749l-201 109l32 62l195 -117zM559 0h-95l-141 285q-25 -5 -62 -5h-88v-280h-84v707h224q103 0 162.5 -53t59.5 -154q0 -145 -135 -196zM447 494q1 77 -38 111.5t-119 34.5h-118v-290h95q180 0 180 144z" />
    <glyph glyph-name="uni0053_uni02D8" 
d="M298 758q-106 0 -161 84l42 39q45 -57 122 -57q75 0 121 56l41 -38q-7 -13 -21.5 -29t-54 -35.5t-89.5 -19.5zM526 187q0 -105 -69 -151.5t-182 -46.5q-115 0 -201 37l27 68q90 -33 171 -33q32 0 59.5 5.5t54.5 17.5t42.5 37t15.5 60q0 40 -26.5 70.5t-65.5 48.5
t-85.5 40t-85.5 44.5t-65.5 63t-26.5 93.5q0 89 61.5 132.5t154.5 43.5q96 0 178 -37l-24 -63q-82 32 -151 32q-62 0 -101 -24.5t-39 -77.5q0 -44 37 -76.5t89.5 -56t105 -49t89.5 -71t37 -107.5z" />
    <glyph glyph-name="uni0056_uni00AF" 
d="M446 781h-292v66h292v-66zM556 707l-211 -707h-126l-182 707h87l132 -537l26 -114h3l31 114l157 537h83z" />
    <glyph glyph-name="uni0058_uni00AF" 
d="M45 0l207 354l-203 353h87l172 -301l173 301h85l-205 -350l203 -357h-86l-173 306l-174 -306h-86zM454 781h-292v66h292v-66z" />
    <glyph glyph-name="uni0065_uni02DA" 
d="M419 734q0 -50 -33 -79t-84 -29t-86 26.5t-35 79.5q0 51 35 80.5t83 29.5q46 0 83 -26.5t37 -81.5zM365 733q0 28 -19 45.5t-46 17.5q-30 0 -47.5 -16.5t-17.5 -44.5t18 -46t47 -18q30 0 47.5 17t17.5 45zM523 254h-366q1 -62 17 -102.5t45.5 -60.5t61.5 -27t77 -7
q61 0 138 20l13 -64q-75 -25 -171 -25q-126 0 -193.5 63t-67.5 212q0 154 67 224.5t179 70.5q200 0 200 -275v-29zM440 314q0 87 -33.5 135.5t-95.5 48.5t-104 -47t-49 -137h282z" />
    <glyph glyph-name="uni0066_uni00AF" 
d="M540 828h-292v66h292v-66zM557 748l-14 -66q-63 14 -117 14q-65 0 -96 -24.5t-31 -87.5v-38h224v-64h-224v-414h224v-68h-456v68h154v414h-154v64h154v39q0 180 204 180q76 0 132 -17z" />
    <glyph glyph-name="uni006E_uni00AF" 
d="M446 692h-292v66h292v-66zM512 0h-76v337q0 78 -21.5 115t-87.5 37q-61 0 -162 -66v-423h-79v546h78v-62q27 21 45 33t58 26.5t82 14.5q43 0 74 -12t47.5 -30t26.5 -46.5t12.5 -53.5t2.5 -59v-357z" />
    <glyph glyph-name="uni0070_uni00AF" 
d="M522 289q0 -83 -20 -142.5t-56 -93t-80 -48.5t-98 -15q-53 0 -107 8v-218h-79v766h78v-47q82 59 150 59q103 0 157.5 -68t54.5 -201zM440 269q0 47 -5.5 83.5t-21 69.5t-46 50.5t-75.5 17.5q-59 0 -132 -53v-371q60 -10 111 -10q85 0 127 58.5t42 154.5zM444 692h-292v66
h292v-66z" />
    <glyph glyph-name="uni0072_uni0060" 
d="M572 520l-24 -65q-75 35 -122 35q-80 0 -147 -81v-341h197v-68h-420v68h145v413h-144v65h222v-69q66 81 157 81q22 0 40.5 -2.5t34.5 -8t24 -8.5t22 -10.5t15 -8.5zM425 669l-31 -51l-197 121l36 61z" />
    <glyph glyph-name="uni0073_uni02D8" 
d="M509 143q0 -44 -23.5 -76t-61.5 -48t-75 -23t-75 -7q-105 0 -185 31l17 66q102 -34 164 -34q71 0 116.5 21t45.5 67q0 33 -33.5 55.5t-81 37.5t-95 33t-81 54.5t-33.5 90.5q0 70 57.5 108.5t142.5 38.5q93 0 167 -30l-19 -61q-83 27 -151 27q-54 0 -87 -20.5t-33 -58.5
q0 -36 33.5 -60.5t81 -40t95 -34t81 -53t33.5 -84.5zM300 660q-102 0 -159 86l41 42q51 -59 119 -59t117 59l41 -43q-24 -37 -66.5 -61t-92.5 -24z" />
    <glyph glyph-name="uni0076_uni00AF" 
d="M446 692h-292v66h292v-66zM564 546l-219 -546h-110l-197 546h82l147 -417l24 -79h2l28 79l163 417h80z" />
    <glyph glyph-name="uni0078_uni00AF" 
d="M573 546l-224 -273l224 -273h-95l-178 226l-179 -226h-94l224 273l-224 273h94l179 -224l179 224h94zM446 692h-292v66h292v-66z" />
    <glyph glyph-name="ymacron" 
d="M563 546l-306 -766h-74l87 220h-35l-197 546h83l170 -491h3l190 491h79zM446 692h-292v66h292v-66z" />
    <glyph glyph-name="Iacute_Jacute" 
d="M152 744l-42 43l152 156l52 -48zM196 707v-525h-82v525h82zM494 226q0 -55 -23.5 -97.5t-60.5 -68.5t-88.5 -42.5t-102 -23t-107.5 -6.5l-6 72q306 14 306 171v476h82v-481zM607 855l-193 -108l-26 54l187 115z" />
    <glyph glyph-name="iacute_jacute" 
d="M170 0h-79v546h79v-546zM507 -47q0 -175 -207 -175q-88 0 -179 35l22 67q93 -31 160 -31q64 0 95.5 25.5t31.5 82.5v589h77v-593zM107 617l-37 48l176 140l44 -54zM622 737l-192 -120l-31 52l186 127z" />
    <glyph glyph-name="uni004E_uni00AF" 
d="M453 781h-292v66h292v-66zM533 0h-128l-237 561l-26 75h-3l6 -81v-555h-78v707h118l236 -554l35 -91h3l-5 96v549h79v-707z" />
    <glyph glyph-name="zero.zero_alt" 
d="M542 364q0 -179 -57 -277t-190 -98q-69 0 -117 27t-73.5 77.5t-36 110.5t-10.5 138q0 376 253 376q58 0 101 -21t67.5 -53t39 -81t19 -94.5t4.5 -104.5zM461 358q0 169 -47 238l-205 -508q37 -32 90 -32q49 0 82.5 24t50 68.5t23 94t6.5 115.5zM138 346q0 -148 42 -220
l201 503q-31 22 -76 22q-50 0 -84.5 -25t-51.5 -71t-24 -95.5t-7 -113.5z" />
  </font>
</defs>
</svg>
