<?xml version="1.0" standalone="no"?>
<!DOCTYPE svg PUBLIC "-//W3C//DTD SVG 1.1//EN" "http://www.w3.org/Graphics/SVG/1.1/DTD/svg11.dtd" >
<svg xmlns="http://www.w3.org/2000/svg" xmlns:xlink="http://www.w3.org/1999/xlink" version="1.1">
<metadata>
Created by FontForge 20150318 at Wed May  6 20:40:09 2015
 By uniteet7
Generated by Fontographer 3.5
</metadata>
<defs>
<font id="Tautografica" horiz-adv-x="999" >
  <font-face 
    font-family="Tautografica"
    font-weight="5"
    font-stretch="normal"
    units-per-em="1000"
    panose-1="0 0 0 0 0 0 0 0 0 0"
    ascent="800"
    descent="-200"
    x-height="634"
    cap-height="671"
    bbox="50 -104 903 800"
    underline-thickness="20"
    underline-position="-123"
    unicode-range="U+0020-00D7"
  />
<missing-glyph horiz-adv-x="800" 
d="M50 0v800h700v-800h-700zM700 50v700h-600v-700h600z" />
    <glyph glyph-name=".notdef" horiz-adv-x="800" 
d="M50 0v800h700v-800h-700zM700 50v700h-600v-700h600z" />
    <glyph glyph-name=".null" horiz-adv-x="0" 
 />
    <glyph glyph-name="glyph2" horiz-adv-x="500" 
 />
    <glyph glyph-name="space" unicode=" " horiz-adv-x="500" 
 />
    <glyph glyph-name="space" unicode="&#xa0;" horiz-adv-x="500" 
 />
    <glyph glyph-name="A" unicode="A" 
d="M889 -72v391h-178v353h-424v-353h-178v-391h73v318h634v-318h73zM637 319h-277v280h277v-280z" />
    <glyph glyph-name="B" unicode="B" 
d="M681 508q0 76 -53 129t-129 53t-129 -53t-53 -129q0 -75 53.5 -128.5t128.5 -53.5q76 0 129 53t53 129zM681 92q0 75 -53.5 128.5t-128.5 53.5q-76 0 -129 -53t-53 -129t53 -129t129 -53t129 53t53 129zM608 508q0 -45 -32 -77t-77 -32t-77 32t-32 77t32 77t77 32t77 -32
t32 -77zM608 92q0 -45 -32 -77t-77 -32t-77 32t-32 77t32 77t77 32t77 -32t32 -77z" />
    <glyph glyph-name="C" unicode="C" 
d="M714 630l-51 51l-380 -383l378 -379l52 51l-327 328z" />
    <glyph glyph-name="D" unicode="D" 
d="M903 300l-404 404l-404 -404l26 -26l378 -378zM462 36l-263 264l263 264v-528zM799 300l-263 -264v528z" />
    <glyph glyph-name="E" unicode="E" 
d="M850 -90v73h-314v283h314v73h-314v278h314v73h-702v-73h314v-278h-314v-73h314v-283h-314v-73h702z" />
    <glyph glyph-name="F" unicode="F" 
d="M871 244v73h-317v282h317v74h-390v-356h-354v-390h74l-1 317h671z" />
    <glyph glyph-name="G" unicode="G" 
d="M892 -93v786h-786v-786h786zM819 333h-351v-353h-289v640h640v-287zM819 -20h-277v280h277v-280z" />
    <glyph glyph-name="H" unicode="H" 
d="M797 -54v708h-74v-180h-448v180h-74v-708h74v181h448v-181h74zM723 200h-448v201h448v-201z" />
    <glyph glyph-name="I" unicode="I" 
d="M681 489q0 76 -53 129t-129 53t-129 -53t-53 -129q0 -66 40.5 -115.5t104.5 -62.5v-382h73v382q63 12 104.5 62.5t41.5 115.5zM608 489q0 -45 -32 -77t-77 -32t-77 32t-32 77t32 77t77 32t77 -32t32 -77z" />
    <glyph glyph-name="J" unicode="J" horiz-adv-x="1100" 
d="M767 -90v73h-231v347q63 13 104 62t41 116q0 76 -53 129t-129 53t-129 -53t-53 -129q0 -66 40.5 -115.5t104.5 -62.5v-347h-231v-73h536zM608 508q0 -45 -32 -77t-77 -32t-77 32t-32 77t32 77t77 32t77 -32t32 -77z" />
    <glyph glyph-name="K" unicode="K" 
d="M763 262v71h-390l282 285l-51 49l-298 -301v301h-71v-740h71v298l297 -298l50 50l-283 285h393z" />
    <glyph glyph-name="L" unicode="L" 
d="M853 -72v73h-317v671h-74v-671h-317v-73h708z" />
    <glyph glyph-name="M" unicode="M" 
d="M892 -93v786h-786v-786h786zM819 -20h-280v640h279zM466 -20h-287v640h287v-640z" />
    <glyph glyph-name="N" unicode="N" 
d="M892 -93v786h-786v-786h786zM818 32l-587 588h587v-588zM767 -20h-588v588z" />
    <glyph glyph-name="O" unicode="O" 
d="M892 300q0 163 -115 278t-278 115t-278 -115t-115 -278t115 -278t278 -115t278 115t115 278zM818 300q0 -132 -93.5 -225.5t-225.5 -93.5t-225.5 93.5t-93.5 225.5t93.5 225.5t225.5 93.5t225.5 -93.5t93.5 -225.5zM593 300q0 39 -27.5 66.5t-66.5 27.5t-66.5 -27.5
t-27.5 -66.5t27.5 -66.5t66.5 -27.5t66.5 27.5t27.5 66.5z" />
    <glyph glyph-name="P" unicode="P" 
d="M892 244v431h-431v-358h-355v-392h73v319h713zM819 317h-284v285h284v-285z" />
    <glyph glyph-name="Q" unicode="Q" 
d="M892 300q0 163 -115 278t-278 115t-278 -115t-115 -278t115 -278t278 -115t278 115t115 278zM818 300q0 -123 -81 -213t-201 -104v634q121 -14 201.5 -103.5t80.5 -213.5zM462 -17q-121 14 -201.5 103.5t-80.5 213.5q0 123 81 213t201 104v-634z" />
    <glyph glyph-name="R" unicode="R" 
d="M891 248v426h-427v-353h-357v-391h73v318h284v-322h73v322h354zM818 321h-281v280h281v-280z" />
    <glyph glyph-name="S" unicode="S" 
d="M503 632l-52 52l-336 -337l52 -51zM599 301l-103 102l-102 -102l102 -103zM883 253l-52 51l-336 -336l51 -52z" />
    <glyph glyph-name="T" unicode="T" 
d="M855 263v74h-319v319h-74v-319h-319v-74h319v-319h74v319h319z" />
    <glyph glyph-name="U" unicode="U" 
d="M536 318v356h-74v-356h74zM889 -74v393h-73v-320h-634v320h-73l-1 -393h781z" />
    <glyph glyph-name="V" unicode="V" 
d="M889 660h-79l-282 -720h79zM470 -60l-282 720h-79l282 -720h79z" />
    <glyph glyph-name="W" unicode="W" 
d="M537 301v356h-73v-356h73zM866 446h-82l-242 -503h81zM456 -57l-243 503h-81l243 -503h81z" />
    <glyph glyph-name="X" unicode="X" 
d="M727 302l-175 176l150 152l-52 51l-150 -151l-150 151l-52 -51l151 -152l-178 -180l175 -176l-150 -152l52 -51l150 151l150 -151l52 51l-151 152zM624 302l-126 -128l-124 124l126 128z" />
    <glyph glyph-name="Y" unicode="Y" 
d="M889 260v394h-73v-321h-634v321h-73l-1 -394h354v-314h74v314h353z" />
    <glyph glyph-name="Z" unicode="Z" 
d="M737 561v73h-476v-73h476zM571 228v144h-144v-144h144zM737 -34v73h-476v-73h476z" />
    <glyph glyph-name="a" unicode="a" 
d="M889 -72v391h-178v353h-424v-353h-178v-391h73v318h634v-318h73zM637 319h-277v280h277v-280z" />
    <glyph glyph-name="b" unicode="b" 
d="M681 508q0 76 -53 129t-129 53t-129 -53t-53 -129q0 -75 53.5 -128.5t128.5 -53.5q76 0 129 53t53 129zM681 92q0 75 -53.5 128.5t-128.5 53.5q-76 0 -129 -53t-53 -129t53 -129t129 -53t129 53t53 129zM608 508q0 -45 -32 -77t-77 -32t-77 32t-32 77t32 77t77 32t77 -32
t32 -77zM608 92q0 -45 -32 -77t-77 -32t-77 32t-32 77t32 77t77 32t77 -32t32 -77z" />
    <glyph glyph-name="c" unicode="c" 
d="M714 630l-51 51l-380 -383l378 -379l52 51l-327 328z" />
    <glyph glyph-name="d" unicode="d" 
d="M903 300l-404 404l-404 -404l26 -26l378 -378zM462 36l-263 264l263 264v-528zM799 300l-263 -264v528z" />
    <glyph glyph-name="e" unicode="e" 
d="M850 -90v73h-314v283h314v73h-314v278h314v73h-702v-73h314v-278h-314v-73h314v-283h-314v-73h702z" />
    <glyph glyph-name="f" unicode="f" 
d="M871 244v73h-317v282h317v74h-390v-356h-354v-390h74l-1 317h671z" />
    <glyph glyph-name="g" unicode="g" 
d="M892 -93v786h-786v-786h786zM819 333h-351v-353h-289v640h640v-287zM819 -20h-277v280h277v-280z" />
    <glyph glyph-name="h" unicode="h" 
d="M797 -54v708h-74v-180h-448v180h-74v-708h74v181h448v-181h74zM723 200h-448v201h448v-201z" />
    <glyph glyph-name="i" unicode="i" 
d="M681 489q0 76 -53 129t-129 53t-129 -53t-53 -129q0 -66 40.5 -115.5t104.5 -62.5v-382h73v382q63 12 104.5 62.5t41.5 115.5zM608 489q0 -45 -32 -77t-77 -32t-77 32t-32 77t32 77t77 32t77 -32t32 -77z" />
    <glyph glyph-name="j" unicode="j" horiz-adv-x="1100" 
d="M767 -90v73h-231v347q63 13 104 62t41 116q0 76 -53 129t-129 53t-129 -53t-53 -129q0 -66 40.5 -115.5t104.5 -62.5v-347h-231v-73h536zM608 508q0 -45 -32 -77t-77 -32t-77 32t-32 77t32 77t77 32t77 -32t32 -77z" />
    <glyph glyph-name="k" unicode="k" 
d="M763 262v71h-390l282 285l-51 49l-298 -301v301h-71v-740h71v298l297 -298l50 50l-283 285h393z" />
    <glyph glyph-name="l" unicode="l" 
d="M853 -72v73h-317v671h-74v-671h-317v-73h708z" />
    <glyph glyph-name="m" unicode="m" 
d="M892 -93v786h-786v-786h786zM819 -20h-280v640h279zM466 -20h-287v640h287v-640z" />
    <glyph glyph-name="n" unicode="n" 
d="M892 -93v786h-786v-786h786zM818 32l-587 588h587v-588zM767 -20h-588v588z" />
    <glyph glyph-name="o" unicode="o" 
d="M892 300q0 163 -115 278t-278 115t-278 -115t-115 -278t115 -278t278 -115t278 115t115 278zM818 300q0 -132 -93.5 -225.5t-225.5 -93.5t-225.5 93.5t-93.5 225.5t93.5 225.5t225.5 93.5t225.5 -93.5t93.5 -225.5zM593 300q0 39 -27.5 66.5t-66.5 27.5t-66.5 -27.5
t-27.5 -66.5t27.5 -66.5t66.5 -27.5t66.5 27.5t27.5 66.5z" />
    <glyph glyph-name="p" unicode="p" 
d="M892 244v431h-431v-358h-355v-392h73v319h713zM819 317h-284v285h284v-285z" />
    <glyph glyph-name="q" unicode="q" 
d="M892 300q0 163 -115 278t-278 115t-278 -115t-115 -278t115 -278t278 -115t278 115t115 278zM818 300q0 -123 -81 -213t-201 -104v634q121 -14 201.5 -103.5t80.5 -213.5zM462 -17q-121 14 -201.5 103.5t-80.5 213.5q0 123 81 213t201 104v-634z" />
    <glyph glyph-name="r" unicode="r" 
d="M891 248v426h-427v-353h-357v-391h73v318h284v-322h73v322h354zM818 321h-281v280h281v-280z" />
    <glyph glyph-name="s" unicode="s" 
d="M503 632l-52 52l-336 -337l52 -51zM599 301l-103 102l-102 -102l102 -103zM883 253l-52 51l-336 -336l51 -52z" />
    <glyph glyph-name="t" unicode="t" 
d="M855 263v74h-319v319h-74v-319h-319v-74h319v-319h74v319h319z" />
    <glyph glyph-name="u" unicode="u" 
d="M536 318v356h-74v-356h74zM889 -74v393h-73v-320h-634v320h-73l-1 -393h781z" />
    <glyph glyph-name="v" unicode="v" 
d="M889 660h-79l-282 -720h79zM470 -60l-282 720h-79l282 -720h79z" />
    <glyph glyph-name="w" unicode="w" 
d="M537 301v356h-73v-356h73zM866 446h-82l-242 -503h81zM456 -57l-243 503h-81l243 -503h81z" />
    <glyph glyph-name="x" unicode="x" 
d="M727 302l-175 176l150 152l-52 51l-150 -151l-150 151l-52 -51l151 -152l-178 -180l175 -176l-150 -152l52 -51l150 151l150 -151l52 51l-151 152zM624 302l-126 -128l-124 124l126 128z" />
    <glyph glyph-name="y" unicode="y" 
d="M889 260v394h-73v-321h-634v321h-73l-1 -394h354v-314h74v314h353z" />
    <glyph glyph-name="z" unicode="z" 
d="M737 561v73h-476v-73h476zM571 228v144h-144v-144h144zM737 -34v73h-476v-73h476z" />
    <glyph glyph-name="multiply" unicode="&#xd7;" horiz-adv-x="0" 
 />
    <glyph glyph-name="multiply" unicode="&#x141;" horiz-adv-x="0" 
 />
    <glyph glyph-name="multiply" unicode="&#xfd;" horiz-adv-x="0" 
 />
  </font>
</defs>
</svg>
